<?xml version="1.0"?>
<!-- Generated by SVGo -->
<svg width="330.952mm" height="130.927mm"
     viewBox="0.000 0.000 330.952 130.927"
     xmlns="http://www.w3.org/2000/svg" 
     xmlns:xlink="http://www.w3.org/1999/xlink">
<polygon points="322.952,5.001 323.187,5.010 323.421,5.037 323.652,5.083 323.879,5.147 324.100,5.229 324.313,5.327 324.519,5.443 324.715,5.573 324.900,5.719 325.073,5.879 325.233,6.052 325.379,6.237 325.509,6.433 325.625,6.639 325.723,6.852 325.805,7.073 325.869,7.300 325.915,7.531 325.942,7.765 325.952,8.001 325.952,122.927 325.942,123.162 325.915,123.396 325.869,123.627 325.805,123.854 325.723,124.075 325.625,124.288 325.509,124.494 325.379,124.690 325.233,124.875 325.073,125.048 324.900,125.208 324.715,125.354 324.519,125.484 324.313,125.600 324.100,125.698 323.879,125.780 323.652,125.844 323.421,125.890 323.187,125.917 322.952,125.927 8.001,125.927 7.765,125.917 7.531,125.890 7.300,125.844 7.073,125.780 6.852,125.698 6.639,125.600 6.433,125.484 6.237,125.354 6.052,125.208 5.879,125.048 5.719,124.875 5.573,124.690 5.443,124.494 5.327,124.288 5.229,124.075 5.147,123.854 5.083,123.627 5.037,123.396 5.010,123.162 5.000,122.927 5.001,8.001 5.010,7.765 5.037,7.531 5.083,7.300 5.147,7.073 5.229,6.852 5.327,6.639 5.443,6.433 5.573,6.237 5.719,6.052 5.879,5.879 6.052,5.719 6.237,5.573 6.433,5.443 6.639,5.327 6.852,5.229 7.073,5.147 7.300,5.083 7.531,5.037 7.765,5.010 8.001,5.000" style="fill:none;stroke-width:0.050000mm;stroke:black"/>
<polygon points="322.359,121.258 321.892,121.496 321.521,121.867 321.283,122.334 321.202,122.852 321.283,123.369 321.521,123.836 321.892,124.207 322.359,124.445 322.877,124.526 323.394,124.445 323.861,124.207 324.232,123.836 324.470,123.369 324.552,122.852 324.470,122.334 324.232,121.867 323.861,121.496 323.394,121.258 322.877,121.177" style="fill:none;stroke-width:0.050000mm;stroke:black"/>
<polygon points="217.425,121.258 216.958,121.496 216.588,121.867 216.350,122.334 216.268,122.852 216.350,123.369 216.588,123.836 216.958,124.207 217.425,124.445 217.943,124.526 218.460,124.445 218.927,124.207 219.298,123.836 219.536,123.369 219.618,122.852 219.536,122.334 219.298,121.867 218.927,121.496 218.460,121.258 217.943,121.177" style="fill:none;stroke-width:0.050000mm;stroke:black"/>
<polygon points="112.492,121.258 112.025,121.496 111.654,121.867 111.416,122.334 111.334,122.852 111.416,123.369 111.654,123.836 112.025,124.207 112.492,124.445 113.009,124.526 113.527,124.445 113.994,124.207 114.364,123.836 114.602,123.369 114.684,122.852 114.602,122.334 114.364,121.867 113.994,121.496 113.527,121.258 113.009,121.177" style="fill:none;stroke-width:0.050000mm;stroke:black"/>
<polygon points="7.558,121.258 7.091,121.496 6.720,121.867 6.482,122.334 6.401,122.852 6.482,123.369 6.720,123.836 7.091,124.207 7.558,124.445 8.075,124.526 8.593,124.445 9.060,124.207 9.431,123.836 9.669,123.369 9.751,122.852 9.669,122.334 9.431,121.867 9.060,121.496 8.593,121.258 8.075,121.177" style="fill:none;stroke-width:0.050000mm;stroke:black"/>
<polygon points="15.676,101.401 15.676,115.251 29.526,115.251 29.526,101.401" style="fill:none;stroke-width:0.050000mm;stroke:black"/>
<polygon points="34.726,101.401 34.726,115.251 48.576,115.251 48.576,101.401" style="fill:none;stroke-width:0.050000mm;stroke:black"/>
<polygon points="110.926,101.401 110.926,115.251 124.776,115.251 124.776,101.401" style="fill:none;stroke-width:0.050000mm;stroke:black"/>
<polygon points="206.176,101.401 206.176,115.251 220.026,115.251 220.026,101.401" style="fill:none;stroke-width:0.050000mm;stroke:black"/>
<polygon points="282.376,101.401 282.376,115.251 296.226,115.251 296.226,101.401" style="fill:none;stroke-width:0.050000mm;stroke:black"/>
<polygon points="301.426,101.401 301.426,115.251 315.276,115.251 315.276,101.401" style="fill:none;stroke-width:0.050000mm;stroke:black"/>
<polygon points="53.776,96.638 53.776,110.488 67.626,110.488 67.626,96.638" style="fill:none;stroke-width:0.050000mm;stroke:black"/>
<polygon points="91.876,96.638 91.876,110.488 105.726,110.488 105.726,96.638" style="fill:none;stroke-width:0.050000mm;stroke:black"/>
<polygon points="225.226,96.638 225.226,110.488 239.076,110.488 239.076,96.638" style="fill:none;stroke-width:0.050000mm;stroke:black"/>
<polygon points="263.326,96.638 263.326,110.488 277.176,110.488 277.176,96.638" style="fill:none;stroke-width:0.050000mm;stroke:black"/>
<polygon points="72.826,91.876 72.826,105.726 86.676,105.726 86.676,91.876" style="fill:none;stroke-width:0.050000mm;stroke:black"/>
<polygon points="139.501,91.876 139.501,105.726 153.351,105.726 153.351,91.876" style="fill:none;stroke-width:0.050000mm;stroke:black"/>
<polygon points="158.551,91.876 158.551,105.726 172.401,105.726 172.401,91.876" style="fill:none;stroke-width:0.050000mm;stroke:black"/>
<polygon points="177.601,91.876 177.601,105.726 191.451,105.726 191.451,91.876" style="fill:none;stroke-width:0.050000mm;stroke:black"/>
<polygon points="244.276,91.876 244.276,105.726 258.126,105.726 258.126,91.876" style="fill:none;stroke-width:0.050000mm;stroke:black"/>
<polygon points="15.676,82.351 15.676,96.201 29.526,96.201 29.526,82.351" style="fill:none;stroke-width:0.050000mm;stroke:black"/>
<polygon points="34.726,82.351 34.726,96.201 48.576,96.201 48.576,82.351" style="fill:none;stroke-width:0.050000mm;stroke:black"/>
<polygon points="110.926,82.351 110.926,96.201 124.776,96.201 124.776,82.351" style="fill:none;stroke-width:0.050000mm;stroke:black"/>
<polygon points="206.176,82.351 206.176,96.201 220.026,96.201 220.026,82.351" style="fill:none;stroke-width:0.050000mm;stroke:black"/>
<polygon points="282.376,82.351 282.376,96.201 296.226,96.201 296.226,82.351" style="fill:none;stroke-width:0.050000mm;stroke:black"/>
<polygon points="301.426,82.351 301.426,96.201 315.276,96.201 315.276,82.351" style="fill:none;stroke-width:0.050000mm;stroke:black"/>
<polygon points="53.776,77.588 53.776,91.438 67.626,91.438 67.626,77.588" style="fill:none;stroke-width:0.050000mm;stroke:black"/>
<polygon points="91.876,77.588 91.876,91.438 105.726,91.438 105.726,77.588" style="fill:none;stroke-width:0.050000mm;stroke:black"/>
<polygon points="225.226,77.588 225.226,91.438 239.076,91.438 239.076,77.588" style="fill:none;stroke-width:0.050000mm;stroke:black"/>
<polygon points="263.326,77.588 263.326,91.438 277.176,91.438 277.176,77.588" style="fill:none;stroke-width:0.050000mm;stroke:black"/>
<polygon points="72.826,72.826 72.826,86.676 86.676,86.676 86.676,72.826" style="fill:none;stroke-width:0.050000mm;stroke:black"/>
<polygon points="244.276,72.826 244.276,86.676 258.126,86.676 258.126,72.826" style="fill:none;stroke-width:0.050000mm;stroke:black"/>
<polygon points="15.676,63.301 15.676,77.150 29.526,77.150 29.526,63.301" style="fill:none;stroke-width:0.050000mm;stroke:black"/>
<polygon points="34.726,63.301 34.726,77.150 48.576,77.150 48.576,63.301" style="fill:none;stroke-width:0.050000mm;stroke:black"/>
<polygon points="110.926,63.301 110.926,77.150 124.776,77.150 124.776,63.301" style="fill:none;stroke-width:0.050000mm;stroke:black"/>
<polygon points="206.176,63.301 206.176,77.150 220.026,77.150 220.026,63.301" style="fill:none;stroke-width:0.050000mm;stroke:black"/>
<polygon points="282.376,63.301 282.376,77.150 296.226,77.150 296.226,63.301" style="fill:none;stroke-width:0.050000mm;stroke:black"/>
<polygon points="301.426,63.301 301.426,77.150 315.276,77.150 315.276,63.301" style="fill:none;stroke-width:0.050000mm;stroke:black"/>
<polygon points="53.776,58.538 53.776,72.388 67.626,72.388 67.626,58.538" style="fill:none;stroke-width:0.050000mm;stroke:black"/>
<polygon points="91.876,58.538 91.876,72.388 105.726,72.388 105.726,58.538" style="fill:none;stroke-width:0.050000mm;stroke:black"/>
<polygon points="225.226,58.538 225.226,72.388 239.076,72.388 239.076,58.538" style="fill:none;stroke-width:0.050000mm;stroke:black"/>
<polygon points="263.326,58.538 263.326,72.388 277.176,72.388 277.176,58.538" style="fill:none;stroke-width:0.050000mm;stroke:black"/>
<polygon points="136.976,40.464 136.976,70.464 193.976,70.464 193.976,40.464" style="fill:none;stroke-width:0.050000mm;stroke:black"/>
<polygon points="72.826,53.776 72.826,67.626 86.676,67.626 86.676,53.776" style="fill:none;stroke-width:0.050000mm;stroke:black"/>
<polygon points="244.276,53.776 244.276,67.626 258.126,67.626 258.126,53.776" style="fill:none;stroke-width:0.050000mm;stroke:black"/>
<polygon points="322.359,63.870 321.892,64.108 321.521,64.478 321.283,64.945 321.202,65.463 321.283,65.981 321.521,66.448 321.892,66.819 322.359,67.057 322.877,67.138 323.394,67.057 323.861,66.819 324.232,66.448 324.470,65.981 324.552,65.463 324.470,64.945 324.232,64.478 323.861,64.108 323.394,63.870 322.877,63.789" style="fill:none;stroke-width:0.050000mm;stroke:black"/>
<polygon points="7.558,63.870 7.091,64.108 6.720,64.478 6.482,64.945 6.401,65.463 6.482,65.981 6.720,66.448 7.091,66.819 7.558,67.057 8.075,67.138 8.593,67.057 9.060,66.819 9.431,66.448 9.669,65.981 9.751,65.463 9.669,64.945 9.431,64.478 9.060,64.108 8.593,63.870 8.075,63.789" style="fill:none;stroke-width:0.050000mm;stroke:black"/>
<polygon points="15.676,44.251 15.676,58.100 29.526,58.100 29.526,44.251" style="fill:none;stroke-width:0.050000mm;stroke:black"/>
<polygon points="34.726,44.251 34.726,58.100 48.576,58.100 48.576,44.251" style="fill:none;stroke-width:0.050000mm;stroke:black"/>
<polygon points="110.926,44.251 110.926,58.100 124.776,58.100 124.776,44.251" style="fill:none;stroke-width:0.050000mm;stroke:black"/>
<polygon points="206.176,44.251 206.176,58.100 220.026,58.100 220.026,44.251" style="fill:none;stroke-width:0.050000mm;stroke:black"/>
<polygon points="282.376,44.251 282.376,58.100 296.226,58.100 296.226,44.251" style="fill:none;stroke-width:0.050000mm;stroke:black"/>
<polygon points="301.426,44.251 301.426,58.100 315.276,58.100 315.276,44.251" style="fill:none;stroke-width:0.050000mm;stroke:black"/>
<polygon points="53.776,39.488 53.776,53.338 67.626,53.338 67.626,39.488" style="fill:none;stroke-width:0.050000mm;stroke:black"/>
<polygon points="91.876,39.488 91.876,53.338 105.726,53.338 105.726,39.488" style="fill:none;stroke-width:0.050000mm;stroke:black"/>
<polygon points="225.226,39.488 225.226,53.338 239.076,53.338 239.076,39.488" style="fill:none;stroke-width:0.050000mm;stroke:black"/>
<polygon points="263.326,39.488 263.326,53.338 277.176,53.338 277.176,39.488" style="fill:none;stroke-width:0.050000mm;stroke:black"/>
<polygon points="72.826,34.726 72.826,48.575 86.676,48.575 86.676,34.726" style="fill:none;stroke-width:0.050000mm;stroke:black"/>
<polygon points="244.276,34.726 244.276,48.575 258.126,48.575 258.126,34.726" style="fill:none;stroke-width:0.050000mm;stroke:black"/>
<polygon points="15.676,25.201 15.676,39.051 29.526,39.051 29.526,25.201" style="fill:none;stroke-width:0.050000mm;stroke:black"/>
<polygon points="34.726,25.201 34.726,39.051 48.576,39.051 48.576,25.201" style="fill:none;stroke-width:0.050000mm;stroke:black"/>
<polygon points="110.926,25.201 110.926,39.051 124.776,39.051 124.776,25.201" style="fill:none;stroke-width:0.050000mm;stroke:black"/>
<polygon points="206.176,25.201 206.176,39.051 220.026,39.051 220.026,25.201" style="fill:none;stroke-width:0.050000mm;stroke:black"/>
<polygon points="282.376,25.201 282.376,39.051 296.226,39.051 296.226,25.201" style="fill:none;stroke-width:0.050000mm;stroke:black"/>
<polygon points="301.426,25.201 301.426,39.051 315.276,39.051 315.276,25.201" style="fill:none;stroke-width:0.050000mm;stroke:black"/>
<polygon points="53.776,20.438 53.776,34.288 67.626,34.288 67.626,20.438" style="fill:none;stroke-width:0.050000mm;stroke:black"/>
<polygon points="91.876,20.438 91.876,34.288 105.726,34.288 105.726,20.438" style="fill:none;stroke-width:0.050000mm;stroke:black"/>
<polygon points="225.226,20.438 225.226,34.288 239.076,34.288 239.076,20.438" style="fill:none;stroke-width:0.050000mm;stroke:black"/>
<polygon points="263.326,20.438 263.326,34.288 277.176,34.288 277.176,20.438" style="fill:none;stroke-width:0.050000mm;stroke:black"/>
<polygon points="72.826,15.676 72.826,29.526 86.676,29.526 86.676,15.676" style="fill:none;stroke-width:0.050000mm;stroke:black"/>
<polygon points="244.276,15.676 244.276,29.526 258.126,29.526 258.126,15.676" style="fill:none;stroke-width:0.050000mm;stroke:black"/>
<polygon points="112.492,6.482 112.025,6.720 111.654,7.091 111.416,7.558 111.334,8.075 111.416,8.593 111.654,9.060 112.025,9.431 112.492,9.669 113.009,9.751 113.527,9.669 113.994,9.431 114.364,9.060 114.602,8.593 114.684,8.075 114.602,7.558 114.364,7.091 113.994,6.720 113.527,6.482 113.009,6.400" style="fill:none;stroke-width:0.050000mm;stroke:black"/>
<polygon points="217.425,6.482 216.958,6.720 216.588,7.091 216.350,7.558 216.268,8.075 216.350,8.593 216.588,9.060 216.958,9.431 217.425,9.669 217.943,9.751 218.460,9.669 218.927,9.431 219.298,9.060 219.536,8.593 219.618,8.075 219.536,7.558 219.298,7.091 218.927,6.720 218.460,6.482 217.943,6.400" style="fill:none;stroke-width:0.050000mm;stroke:black"/>
<polygon points="322.359,6.482 321.892,6.720 321.521,7.091 321.283,7.558 321.202,8.075 321.283,8.593 321.521,9.060 321.892,9.431 322.359,9.669 322.877,9.751 323.394,9.669 323.861,9.431 324.232,9.060 324.470,8.593 324.552,8.075 324.470,7.558 324.232,7.091 323.861,6.720 323.394,6.482 322.877,6.400" style="fill:none;stroke-width:0.050000mm;stroke:black"/>
<polygon points="7.558,6.482 7.091,6.720 6.720,7.091 6.482,7.558 6.401,8.075 6.482,8.593 6.720,9.060 7.091,9.431 7.558,9.669 8.075,9.751 8.593,9.669 9.060,9.431 9.431,9.060 9.669,8.593 9.751,8.075 9.669,7.558 9.431,7.091 9.060,6.720 8.593,6.482 8.075,6.401" style="fill:none;stroke-width:0.050000mm;stroke:black"/>
</svg>
