<?xml version="1.0"?>
<!-- Generated by SVGo -->
<svg width="322.189mm" height="126.927mm"
     viewBox="0.000 0.000 322.189 126.927"
     xmlns="http://www.w3.org/2000/svg" 
     xmlns:xlink="http://www.w3.org/1999/xlink">
<polygon points="314.189,5.001 314.424,5.010 314.658,5.037 314.889,5.083 315.116,5.147 315.337,5.229 315.551,5.327 315.756,5.443 315.952,5.573 316.137,5.719 316.310,5.879 316.470,6.052 316.616,6.237 316.747,6.433 316.862,6.639 316.961,6.852 317.042,7.073 317.106,7.300 317.152,7.531 317.180,7.765 317.189,8.001 317.189,118.927 317.180,119.162 317.152,119.396 317.106,119.627 317.042,119.854 316.961,120.075 316.862,120.288 316.747,120.494 316.616,120.690 316.470,120.875 316.310,121.048 316.137,121.208 315.952,121.354 315.756,121.484 315.551,121.600 315.337,121.698 315.116,121.780 314.889,121.844 314.658,121.890 314.424,121.917 314.189,121.927 8.001,121.927 7.765,121.917 7.531,121.890 7.300,121.844 7.073,121.780 6.852,121.698 6.639,121.600 6.433,121.484 6.237,121.354 6.052,121.208 5.879,121.048 5.719,120.875 5.573,120.690 5.443,120.494 5.327,120.288 5.229,120.075 5.147,119.854 5.083,119.627 5.037,119.396 5.010,119.162 5.000,118.927 5.001,8.001 5.010,7.765 5.037,7.531 5.083,7.300 5.147,7.073 5.229,6.852 5.327,6.639 5.443,6.433 5.573,6.237 5.719,6.052 5.879,5.879 6.052,5.719 6.237,5.573 6.433,5.443 6.639,5.327 6.852,5.229 7.073,5.147 7.300,5.083 7.531,5.037 7.765,5.010 8.001,5.000" style="fill:none;stroke-width:0.050000mm;stroke:black"/>
<polygon points="313.828,117.972 313.570,118.103 313.366,118.308 313.234,118.566 313.189,118.852 313.234,119.137 313.366,119.395 313.570,119.600 313.828,119.731 314.114,119.777 314.400,119.731 314.658,119.600 314.862,119.395 314.994,119.137 315.039,118.852 314.994,118.566 314.862,118.308 314.658,118.103 314.400,117.972 314.114,117.927" style="fill:none;stroke-width:0.050000mm;stroke:black"/>
<polygon points="211.815,117.972 211.557,118.103 211.353,118.308 211.221,118.566 211.176,118.852 211.221,119.137 211.353,119.395 211.557,119.600 211.815,119.731 212.101,119.777 212.387,119.731 212.645,119.600 212.850,119.395 212.981,119.137 213.026,118.852 212.981,118.566 212.850,118.308 212.645,118.103 212.387,117.972 212.101,117.927" style="fill:none;stroke-width:0.050000mm;stroke:black"/>
<polygon points="109.802,117.972 109.545,118.103 109.340,118.308 109.209,118.566 109.163,118.852 109.209,119.137 109.340,119.395 109.545,119.600 109.802,119.731 110.088,119.777 110.374,119.731 110.632,119.600 110.837,119.395 110.968,119.137 111.013,118.852 110.968,118.566 110.837,118.308 110.632,118.103 110.374,117.972 110.088,117.927" style="fill:none;stroke-width:0.050000mm;stroke:black"/>
<polygon points="7.790,117.972 7.532,118.103 7.327,118.308 7.196,118.566 7.151,118.852 7.196,119.137 7.327,119.395 7.532,119.600 7.790,119.731 8.075,119.777 8.361,119.731 8.619,119.600 8.824,119.395 8.955,119.137 9.001,118.852 8.955,118.566 8.824,118.308 8.619,118.103 8.361,117.972 8.075,117.927" style="fill:none;stroke-width:0.050000mm;stroke:black"/>
<polygon points="11.151,11.150 11.151,115.777 311.039,115.777 311.039,11.150" style="fill:none;stroke-width:0.050000mm;stroke:black"/>
<polygon points="313.828,62.584 313.570,62.715 313.366,62.920 313.234,63.178 313.189,63.464 313.234,63.749 313.366,64.007 313.570,64.212 313.828,64.343 314.114,64.389 314.400,64.343 314.658,64.212 314.862,64.007 314.994,63.749 315.039,63.464 314.994,63.178 314.862,62.920 314.658,62.715 314.400,62.584 314.114,62.539" style="fill:none;stroke-width:0.050000mm;stroke:black"/>
<polygon points="7.790,62.584 7.532,62.715 7.327,62.920 7.196,63.178 7.151,63.464 7.196,63.749 7.327,64.007 7.532,64.212 7.790,64.343 8.075,64.389 8.361,64.343 8.619,64.212 8.824,64.007 8.955,63.749 9.001,63.464 8.955,63.178 8.824,62.920 8.619,62.715 8.361,62.584 8.075,62.539" style="fill:none;stroke-width:0.050000mm;stroke:black"/>
<polygon points="109.802,7.196 109.545,7.327 109.340,7.532 109.209,7.790 109.163,8.075 109.209,8.361 109.340,8.619 109.545,8.824 109.802,8.955 110.088,9.001 110.374,8.955 110.632,8.824 110.837,8.619 110.968,8.361 111.013,8.075 110.968,7.790 110.837,7.532 110.632,7.327 110.374,7.196 110.088,7.150" style="fill:none;stroke-width:0.050000mm;stroke:black"/>
<polygon points="211.815,7.196 211.557,7.327 211.353,7.532 211.221,7.790 211.176,8.075 211.221,8.361 211.353,8.619 211.557,8.824 211.815,8.955 212.101,9.001 212.387,8.955 212.645,8.824 212.850,8.619 212.981,8.361 213.026,8.075 212.981,7.790 212.850,7.532 212.645,7.327 212.387,7.196 212.101,7.150" style="fill:none;stroke-width:0.050000mm;stroke:black"/>
<polygon points="313.828,7.196 313.570,7.327 313.366,7.532 313.234,7.790 313.189,8.075 313.234,8.361 313.366,8.619 313.570,8.824 313.828,8.955 314.114,9.001 314.400,8.955 314.658,8.824 314.862,8.619 314.994,8.361 315.039,8.075 314.994,7.790 314.862,7.532 314.658,7.327 314.400,7.196 314.114,7.150" style="fill:none;stroke-width:0.050000mm;stroke:black"/>
<polygon points="7.790,7.196 7.532,7.327 7.327,7.532 7.196,7.790 7.151,8.075 7.196,8.361 7.327,8.619 7.532,8.824 7.790,8.955 8.075,9.001 8.361,8.955 8.619,8.824 8.824,8.619 8.955,8.361 9.001,8.075 8.955,7.790 8.824,7.532 8.619,7.327 8.361,7.196 8.075,7.151" style="fill:none;stroke-width:0.050000mm;stroke:black"/>
</svg>
