  0
SECTION
  2
HEADER
  9
$ACADVER
  1
AC1009
  9
$EXTMIN
 10
0.0
 20
0.0
 30
0.0
  9
$EXTMAX
 10
1000.0
 20
1000.0
 30
0.0
  9
$FILLMODE
 70
 0
  9
$SPLFRAME
 70
 1
  0
ENDSEC
  0
SECTION
  2
TABLES
  0
TABLE
  2
LAYER
 70
1
  0
LAYER
  2
0
 70
     0
 62
     7
  6
CONTINUOUS
  0
ENDTAB
  0
ENDSEC
  0
SECTION
  2
ENTITIES
  0
LINE
  8
0
 62
     0
 10
0.0937066
 20
115.624
 30
0.0
 11
270.794
 21
115.624
 31
0.0
  0
LINE
  8
0
 62
     0
 10
270.794
 20
115.624
 30
0.0
 11
270.794
 21
0.0868165
 31
0.0
  0
LINE
  8
0
 62
     0
 10
270.794
 20
0.0868165
 30
0.0
 11
0.0937066
 21
0.0868165
 31
0.0
  0
LINE
  8
0
 62
     0
 10
0.0937066
 20
0.0868165
 30
0.0
 11
0.0937066
 21
115.624
 31
0.0
  0
LINE
  8
0
 62
     0
 10
128.444
 20
18.6118
 30
0.0
 11
128.444
 21
17.6127
 31
0.0
  0
LINE
  8
0
 62
     0
 10
128.444
 20
17.6127
 30
0.0
 11
127.642
 21
17.6127
 31
0.0
  0
LINE
  8
0
 62
     0
 10
127.642
 20
17.6127
 30
0.0
 11
127.642
 21
14.5121
 31
0.0
  0
LINE
  8
0
 62
     0
 10
127.642
 20
14.5121
 30
0.0
 11
128.444
 21
14.5121
 31
0.0
  0
LINE
  8
0
 62
     0
 10
128.444
 20
14.5121
 30
0.0
 11
128.444
 21
13.914
 31
0.0
  0
LINE
  8
0
 62
     0
 10
128.444
 20
13.914
 30
0.0
 11
110.243
 21
13.914
 31
0.0
  0
LINE
  8
0
 62
     0
 10
110.243
 20
13.914
 30
0.0
 11
110.243
 21
17.1428
 31
0.0
  0
LINE
  8
0
 62
     0
 10
110.243
 20
17.1428
 30
0.0
 11
103.493
 21
17.1428
 31
0.0
  0
LINE
  8
0
 62
     0
 10
103.493
 20
17.1428
 30
0.0
 11
103.493
 21
13.914
 31
0.0
  0
LINE
  8
0
 62
     0
 10
103.493
 20
13.914
 30
0.0
 11
102.668
 21
13.914
 31
0.0
  0
LINE
  8
0
 62
     0
 10
102.668
 20
13.914
 30
0.0
 11
102.668
 21
11.1125
 31
0.0
  0
LINE
  8
0
 62
     0
 10
102.668
 20
11.1125
 30
0.0
 11
103.493
 21
11.1125
 31
0.0
  0
LINE
  8
0
 62
     0
 10
103.493
 20
11.1125
 30
0.0
 11
103.493
 21
4.84382
 31
0.0
  0
LINE
  8
0
 62
     0
 10
103.493
 20
4.84382
 30
0.0
 11
105.219
 21
4.84382
 31
0.0
  0
LINE
  8
0
 62
     0
 10
105.219
 20
4.84382
 30
0.0
 11
105.219
 21
3.64352
 31
0.0
  0
LINE
  8
0
 62
     0
 10
105.219
 20
3.64352
 30
0.0
 11
108.519
 21
3.64352
 31
0.0
  0
LINE
  8
0
 62
     0
 10
108.519
 20
3.64352
 30
0.0
 11
108.519
 21
4.84382
 31
0.0
  0
LINE
  8
0
 62
     0
 10
108.519
 20
4.84382
 30
0.0
 11
110.243
 21
4.84382
 31
0.0
  0
LINE
  8
0
 62
     0
 10
110.243
 20
4.84382
 30
0.0
 11
110.243
 21
9.31414
 31
0.0
  0
LINE
  8
0
 62
     0
 10
110.243
 20
9.31414
 30
0.0
 11
128.444
 21
9.31414
 31
0.0
  0
LINE
  8
0
 62
     0
 10
128.444
 20
9.31414
 30
0.0
 11
128.444
 21
8.71333
 31
0.0
  0
LINE
  8
0
 62
     0
 10
128.444
 20
8.71333
 30
0.0
 11
127.642
 21
8.71333
 31
0.0
  0
LINE
  8
0
 62
     0
 10
127.642
 20
8.71333
 30
0.0
 11
127.642
 21
5.61414
 31
0.0
  0
LINE
  8
0
 62
     0
 10
127.642
 20
5.61414
 30
0.0
 11
128.444
 21
5.61414
 31
0.0
  0
LINE
  8
0
 62
     0
 10
128.444
 20
5.61414
 30
0.0
 11
128.444
 21
4.61366
 31
0.0
  0
LINE
  8
0
 62
     0
 10
128.444
 20
4.61366
 30
0.0
 11
142.444
 21
4.61366
 31
0.0
  0
LINE
  8
0
 62
     0
 10
142.444
 20
4.61366
 30
0.0
 11
142.444
 21
5.61414
 31
0.0
  0
LINE
  8
0
 62
     0
 10
142.444
 20
5.61414
 30
0.0
 11
143.244
 21
5.61414
 31
0.0
  0
LINE
  8
0
 62
     0
 10
143.244
 20
5.61414
 30
0.0
 11
143.244
 21
8.71333
 31
0.0
  0
LINE
  8
0
 62
     0
 10
143.244
 20
8.71333
 30
0.0
 11
142.444
 21
8.71333
 31
0.0
  0
LINE
  8
0
 62
     0
 10
142.444
 20
8.71333
 30
0.0
 11
142.444
 21
9.31414
 31
0.0
  0
LINE
  8
0
 62
     0
 10
142.444
 20
9.31414
 30
0.0
 11
160.643
 21
9.31414
 31
0.0
  0
LINE
  8
0
 62
     0
 10
160.643
 20
9.31414
 30
0.0
 11
160.643
 21
4.84382
 31
0.0
  0
LINE
  8
0
 62
     0
 10
160.643
 20
4.84382
 30
0.0
 11
162.369
 21
4.84382
 31
0.0
  0
LINE
  8
0
 62
     0
 10
162.369
 20
4.84382
 30
0.0
 11
162.369
 21
3.64352
 31
0.0
  0
LINE
  8
0
 62
     0
 10
162.369
 20
3.64352
 30
0.0
 11
165.669
 21
3.64352
 31
0.0
  0
LINE
  8
0
 62
     0
 10
165.669
 20
3.64352
 30
0.0
 11
165.669
 21
4.84382
 31
0.0
  0
LINE
  8
0
 62
     0
 10
165.669
 20
4.84382
 30
0.0
 11
167.393
 21
4.84382
 31
0.0
  0
LINE
  8
0
 62
     0
 10
167.393
 20
4.84382
 30
0.0
 11
167.393
 21
11.1125
 31
0.0
  0
LINE
  8
0
 62
     0
 10
167.393
 20
11.1125
 30
0.0
 11
168.219
 21
11.1125
 31
0.0
  0
LINE
  8
0
 62
     0
 10
168.219
 20
11.1125
 30
0.0
 11
168.219
 21
13.914
 31
0.0
  0
LINE
  8
0
 62
     0
 10
168.219
 20
13.914
 30
0.0
 11
167.393
 21
13.914
 31
0.0
  0
LINE
  8
0
 62
     0
 10
167.393
 20
13.914
 30
0.0
 11
167.393
 21
17.1428
 31
0.0
  0
LINE
  8
0
 62
     0
 10
167.393
 20
17.1428
 30
0.0
 11
160.643
 21
17.1428
 31
0.0
  0
LINE
  8
0
 62
     0
 10
160.643
 20
17.1428
 30
0.0
 11
160.643
 21
13.914
 31
0.0
  0
LINE
  8
0
 62
     0
 10
160.643
 20
13.914
 30
0.0
 11
142.444
 21
13.914
 31
0.0
  0
LINE
  8
0
 62
     0
 10
142.444
 20
13.914
 30
0.0
 11
142.444
 21
14.5121
 31
0.0
  0
LINE
  8
0
 62
     0
 10
142.444
 20
14.5121
 30
0.0
 11
143.244
 21
14.5121
 31
0.0
  0
LINE
  8
0
 62
     0
 10
143.244
 20
14.5121
 30
0.0
 11
143.244
 21
17.6127
 31
0.0
  0
LINE
  8
0
 62
     0
 10
143.244
 20
17.6127
 30
0.0
 11
142.444
 21
17.6127
 31
0.0
  0
LINE
  8
0
 62
     0
 10
142.444
 20
17.6127
 30
0.0
 11
142.444
 21
18.6118
 31
0.0
  0
LINE
  8
0
 62
     0
 10
142.444
 20
18.6118
 30
0.0
 11
128.444
 21
18.6118
 31
0.0
  0
LINE
  8
0
 62
     0
 10
23.6692
 20
18.6118
 30
0.0
 11
23.6692
 21
17.6127
 31
0.0
  0
LINE
  8
0
 62
     0
 10
23.6692
 20
17.6127
 30
0.0
 11
22.8685
 21
17.6127
 31
0.0
  0
LINE
  8
0
 62
     0
 10
22.8685
 20
17.6127
 30
0.0
 11
22.8685
 21
14.5121
 31
0.0
  0
LINE
  8
0
 62
     0
 10
22.8685
 20
14.5121
 30
0.0
 11
23.6692
 21
14.5121
 31
0.0
  0
LINE
  8
0
 62
     0
 10
23.6692
 20
14.5121
 30
0.0
 11
23.6692
 21
8.71333
 31
0.0
  0
LINE
  8
0
 62
     0
 10
23.6692
 20
8.71333
 30
0.0
 11
22.8685
 21
8.71333
 31
0.0
  0
LINE
  8
0
 62
     0
 10
22.8685
 20
8.71333
 30
0.0
 11
22.8685
 21
5.61414
 31
0.0
  0
LINE
  8
0
 62
     0
 10
22.8685
 20
5.61414
 30
0.0
 11
23.6692
 21
5.61414
 31
0.0
  0
LINE
  8
0
 62
     0
 10
23.6692
 20
5.61414
 30
0.0
 11
23.6692
 21
4.61366
 31
0.0
  0
LINE
  8
0
 62
     0
 10
23.6692
 20
4.61366
 30
0.0
 11
37.6686
 21
4.61366
 31
0.0
  0
LINE
  8
0
 62
     0
 10
37.6686
 20
4.61366
 30
0.0
 11
37.6686
 21
5.61414
 31
0.0
  0
LINE
  8
0
 62
     0
 10
37.6686
 20
5.61414
 30
0.0
 11
38.4694
 21
5.61414
 31
0.0
  0
LINE
  8
0
 62
     0
 10
38.4694
 20
5.61414
 30
0.0
 11
38.4694
 21
8.71333
 31
0.0
  0
LINE
  8
0
 62
     0
 10
38.4694
 20
8.71333
 30
0.0
 11
37.6686
 21
8.71333
 31
0.0
  0
LINE
  8
0
 62
     0
 10
37.6686
 20
8.71333
 30
0.0
 11
37.6686
 21
14.5121
 31
0.0
  0
LINE
  8
0
 62
     0
 10
37.6686
 20
14.5121
 30
0.0
 11
38.4694
 21
14.5121
 31
0.0
  0
LINE
  8
0
 62
     0
 10
38.4694
 20
14.5121
 30
0.0
 11
38.4694
 21
17.6127
 31
0.0
  0
LINE
  8
0
 62
     0
 10
38.4694
 20
17.6127
 30
0.0
 11
37.6686
 21
17.6127
 31
0.0
  0
LINE
  8
0
 62
     0
 10
37.6686
 20
17.6127
 30
0.0
 11
37.6686
 21
18.6118
 31
0.0
  0
LINE
  8
0
 62
     0
 10
37.6686
 20
18.6118
 30
0.0
 11
23.6692
 21
18.6118
 31
0.0
  0
LINE
  8
0
 62
     0
 10
42.7193
 20
18.6118
 30
0.0
 11
42.7193
 21
17.6127
 31
0.0
  0
LINE
  8
0
 62
     0
 10
42.7193
 20
17.6127
 30
0.0
 11
41.9185
 21
17.6127
 31
0.0
  0
LINE
  8
0
 62
     0
 10
41.9185
 20
17.6127
 30
0.0
 11
41.9185
 21
14.5121
 31
0.0
  0
LINE
  8
0
 62
     0
 10
41.9185
 20
14.5121
 30
0.0
 11
42.7193
 21
14.5121
 31
0.0
  0
LINE
  8
0
 62
     0
 10
42.7193
 20
14.5121
 30
0.0
 11
42.7193
 21
8.71333
 31
0.0
  0
LINE
  8
0
 62
     0
 10
42.7193
 20
8.71333
 30
0.0
 11
41.9185
 21
8.71333
 31
0.0
  0
LINE
  8
0
 62
     0
 10
41.9185
 20
8.71333
 30
0.0
 11
41.9185
 21
5.61414
 31
0.0
  0
LINE
  8
0
 62
     0
 10
41.9185
 20
5.61414
 30
0.0
 11
42.7193
 21
5.61414
 31
0.0
  0
LINE
  8
0
 62
     0
 10
42.7193
 20
5.61414
 30
0.0
 11
42.7193
 21
4.61366
 31
0.0
  0
LINE
  8
0
 62
     0
 10
42.7193
 20
4.61366
 30
0.0
 11
56.7186
 21
4.61366
 31
0.0
  0
LINE
  8
0
 62
     0
 10
56.7186
 20
4.61366
 30
0.0
 11
56.7186
 21
5.61414
 31
0.0
  0
LINE
  8
0
 62
     0
 10
56.7186
 20
5.61414
 30
0.0
 11
57.5194
 21
5.61414
 31
0.0
  0
LINE
  8
0
 62
     0
 10
57.5194
 20
5.61414
 30
0.0
 11
57.5194
 21
8.71333
 31
0.0
  0
LINE
  8
0
 62
     0
 10
57.5194
 20
8.71333
 30
0.0
 11
56.7186
 21
8.71333
 31
0.0
  0
LINE
  8
0
 62
     0
 10
56.7186
 20
8.71333
 30
0.0
 11
56.7186
 21
14.5121
 31
0.0
  0
LINE
  8
0
 62
     0
 10
56.7186
 20
14.5121
 30
0.0
 11
57.5194
 21
14.5121
 31
0.0
  0
LINE
  8
0
 62
     0
 10
57.5194
 20
14.5121
 30
0.0
 11
57.5194
 21
17.6127
 31
0.0
  0
LINE
  8
0
 62
     0
 10
57.5194
 20
17.6127
 30
0.0
 11
56.7186
 21
17.6127
 31
0.0
  0
LINE
  8
0
 62
     0
 10
56.7186
 20
17.6127
 30
0.0
 11
56.7186
 21
18.6118
 31
0.0
  0
LINE
  8
0
 62
     0
 10
56.7186
 20
18.6118
 30
0.0
 11
42.7193
 21
18.6118
 31
0.0
  0
LINE
  8
0
 62
     0
 10
61.7693
 20
18.6118
 30
0.0
 11
61.7693
 21
17.6127
 31
0.0
  0
LINE
  8
0
 62
     0
 10
61.7693
 20
17.6127
 30
0.0
 11
60.9685
 21
17.6127
 31
0.0
  0
LINE
  8
0
 62
     0
 10
60.9685
 20
17.6127
 30
0.0
 11
60.9685
 21
14.5121
 31
0.0
  0
LINE
  8
0
 62
     0
 10
60.9685
 20
14.5121
 30
0.0
 11
61.7693
 21
14.5121
 31
0.0
  0
LINE
  8
0
 62
     0
 10
61.7693
 20
14.5121
 30
0.0
 11
61.7693
 21
8.71333
 31
0.0
  0
LINE
  8
0
 62
     0
 10
61.7693
 20
8.71333
 30
0.0
 11
60.9685
 21
8.71333
 31
0.0
  0
LINE
  8
0
 62
     0
 10
60.9685
 20
8.71333
 30
0.0
 11
60.9685
 21
5.61414
 31
0.0
  0
LINE
  8
0
 62
     0
 10
60.9685
 20
5.61414
 30
0.0
 11
61.7693
 21
5.61414
 31
0.0
  0
LINE
  8
0
 62
     0
 10
61.7693
 20
5.61414
 30
0.0
 11
61.7693
 21
4.61366
 31
0.0
  0
LINE
  8
0
 62
     0
 10
61.7693
 20
4.61366
 30
0.0
 11
75.7686
 21
4.61366
 31
0.0
  0
LINE
  8
0
 62
     0
 10
75.7686
 20
4.61366
 30
0.0
 11
75.7686
 21
5.61414
 31
0.0
  0
LINE
  8
0
 62
     0
 10
75.7686
 20
5.61414
 30
0.0
 11
76.5694
 21
5.61414
 31
0.0
  0
LINE
  8
0
 62
     0
 10
76.5694
 20
5.61414
 30
0.0
 11
76.5694
 21
8.71333
 31
0.0
  0
LINE
  8
0
 62
     0
 10
76.5694
 20
8.71333
 30
0.0
 11
75.7686
 21
8.71333
 31
0.0
  0
LINE
  8
0
 62
     0
 10
75.7686
 20
8.71333
 30
0.0
 11
75.7686
 21
14.5121
 31
0.0
  0
LINE
  8
0
 62
     0
 10
75.7686
 20
14.5121
 30
0.0
 11
76.5694
 21
14.5121
 31
0.0
  0
LINE
  8
0
 62
     0
 10
76.5694
 20
14.5121
 30
0.0
 11
76.5694
 21
17.6127
 31
0.0
  0
LINE
  8
0
 62
     0
 10
76.5694
 20
17.6127
 30
0.0
 11
75.7686
 21
17.6127
 31
0.0
  0
LINE
  8
0
 62
     0
 10
75.7686
 20
17.6127
 30
0.0
 11
75.7686
 21
18.6118
 31
0.0
  0
LINE
  8
0
 62
     0
 10
75.7686
 20
18.6118
 30
0.0
 11
61.7693
 21
18.6118
 31
0.0
  0
LINE
  8
0
 62
     0
 10
80.8193
 20
18.6118
 30
0.0
 11
80.8193
 21
17.6127
 31
0.0
  0
LINE
  8
0
 62
     0
 10
80.8193
 20
17.6127
 30
0.0
 11
80.0185
 21
17.6127
 31
0.0
  0
LINE
  8
0
 62
     0
 10
80.0185
 20
17.6127
 30
0.0
 11
80.0185
 21
14.5121
 31
0.0
  0
LINE
  8
0
 62
     0
 10
80.0185
 20
14.5121
 30
0.0
 11
80.8193
 21
14.5121
 31
0.0
  0
LINE
  8
0
 62
     0
 10
80.8193
 20
14.5121
 30
0.0
 11
80.8193
 21
8.71333
 31
0.0
  0
LINE
  8
0
 62
     0
 10
80.8193
 20
8.71333
 30
0.0
 11
80.0185
 21
8.71333
 31
0.0
  0
LINE
  8
0
 62
     0
 10
80.0185
 20
8.71333
 30
0.0
 11
80.0185
 21
5.61414
 31
0.0
  0
LINE
  8
0
 62
     0
 10
80.0185
 20
5.61414
 30
0.0
 11
80.8193
 21
5.61414
 31
0.0
  0
LINE
  8
0
 62
     0
 10
80.8193
 20
5.61414
 30
0.0
 11
80.8193
 21
4.61366
 31
0.0
  0
LINE
  8
0
 62
     0
 10
80.8193
 20
4.61366
 30
0.0
 11
94.8186
 21
4.61366
 31
0.0
  0
LINE
  8
0
 62
     0
 10
94.8186
 20
4.61366
 30
0.0
 11
94.8186
 21
5.61414
 31
0.0
  0
LINE
  8
0
 62
     0
 10
94.8186
 20
5.61414
 30
0.0
 11
95.6179
 21
5.61414
 31
0.0
  0
LINE
  8
0
 62
     0
 10
95.6179
 20
5.61414
 30
0.0
 11
95.6179
 21
8.71333
 31
0.0
  0
LINE
  8
0
 62
     0
 10
95.6179
 20
8.71333
 30
0.0
 11
94.8186
 21
8.71333
 31
0.0
  0
LINE
  8
0
 62
     0
 10
94.8186
 20
8.71333
 30
0.0
 11
94.8186
 21
14.5121
 31
0.0
  0
LINE
  8
0
 62
     0
 10
94.8186
 20
14.5121
 30
0.0
 11
95.6179
 21
14.5121
 31
0.0
  0
LINE
  8
0
 62
     0
 10
95.6179
 20
14.5121
 30
0.0
 11
95.6179
 21
17.6127
 31
0.0
  0
LINE
  8
0
 62
     0
 10
95.6179
 20
17.6127
 30
0.0
 11
94.8186
 21
17.6127
 31
0.0
  0
LINE
  8
0
 62
     0
 10
94.8186
 20
17.6127
 30
0.0
 11
94.8186
 21
18.6118
 31
0.0
  0
LINE
  8
0
 62
     0
 10
94.8186
 20
18.6118
 30
0.0
 11
80.8193
 21
18.6118
 31
0.0
  0
LINE
  8
0
 62
     0
 10
176.069
 20
18.6118
 30
0.0
 11
176.069
 21
17.6127
 31
0.0
  0
LINE
  8
0
 62
     0
 10
176.069
 20
17.6127
 30
0.0
 11
175.267
 21
17.6127
 31
0.0
  0
LINE
  8
0
 62
     0
 10
175.267
 20
17.6127
 30
0.0
 11
175.267
 21
14.5121
 31
0.0
  0
LINE
  8
0
 62
     0
 10
175.267
 20
14.5121
 30
0.0
 11
176.069
 21
14.5121
 31
0.0
  0
LINE
  8
0
 62
     0
 10
176.069
 20
14.5121
 30
0.0
 11
176.069
 21
8.71333
 31
0.0
  0
LINE
  8
0
 62
     0
 10
176.069
 20
8.71333
 30
0.0
 11
175.267
 21
8.71333
 31
0.0
  0
LINE
  8
0
 62
     0
 10
175.267
 20
8.71333
 30
0.0
 11
175.267
 21
5.61414
 31
0.0
  0
LINE
  8
0
 62
     0
 10
175.267
 20
5.61414
 30
0.0
 11
176.069
 21
5.61414
 31
0.0
  0
LINE
  8
0
 62
     0
 10
176.069
 20
5.61414
 30
0.0
 11
176.069
 21
4.61366
 31
0.0
  0
LINE
  8
0
 62
     0
 10
176.069
 20
4.61366
 30
0.0
 11
190.069
 21
4.61366
 31
0.0
  0
LINE
  8
0
 62
     0
 10
190.069
 20
4.61366
 30
0.0
 11
190.069
 21
5.61414
 31
0.0
  0
LINE
  8
0
 62
     0
 10
190.069
 20
5.61414
 30
0.0
 11
190.869
 21
5.61414
 31
0.0
  0
LINE
  8
0
 62
     0
 10
190.869
 20
5.61414
 30
0.0
 11
190.869
 21
8.71333
 31
0.0
  0
LINE
  8
0
 62
     0
 10
190.869
 20
8.71333
 30
0.0
 11
190.069
 21
8.71333
 31
0.0
  0
LINE
  8
0
 62
     0
 10
190.069
 20
8.71333
 30
0.0
 11
190.069
 21
14.5121
 31
0.0
  0
LINE
  8
0
 62
     0
 10
190.069
 20
14.5121
 30
0.0
 11
190.869
 21
14.5121
 31
0.0
  0
LINE
  8
0
 62
     0
 10
190.869
 20
14.5121
 30
0.0
 11
190.869
 21
17.6127
 31
0.0
  0
LINE
  8
0
 62
     0
 10
190.869
 20
17.6127
 30
0.0
 11
190.069
 21
17.6127
 31
0.0
  0
LINE
  8
0
 62
     0
 10
190.069
 20
17.6127
 30
0.0
 11
190.069
 21
18.6118
 31
0.0
  0
LINE
  8
0
 62
     0
 10
190.069
 20
18.6118
 30
0.0
 11
176.069
 21
18.6118
 31
0.0
  0
LINE
  8
0
 62
     0
 10
195.119
 20
18.6118
 30
0.0
 11
195.119
 21
17.6127
 31
0.0
  0
LINE
  8
0
 62
     0
 10
195.119
 20
17.6127
 30
0.0
 11
194.318
 21
17.6127
 31
0.0
  0
LINE
  8
0
 62
     0
 10
194.318
 20
17.6127
 30
0.0
 11
194.318
 21
14.5121
 31
0.0
  0
LINE
  8
0
 62
     0
 10
194.318
 20
14.5121
 30
0.0
 11
195.119
 21
14.5121
 31
0.0
  0
LINE
  8
0
 62
     0
 10
195.119
 20
14.5121
 30
0.0
 11
195.119
 21
8.71333
 31
0.0
  0
LINE
  8
0
 62
     0
 10
195.119
 20
8.71333
 30
0.0
 11
194.318
 21
8.71333
 31
0.0
  0
LINE
  8
0
 62
     0
 10
194.318
 20
8.71333
 30
0.0
 11
194.318
 21
5.61414
 31
0.0
  0
LINE
  8
0
 62
     0
 10
194.318
 20
5.61414
 30
0.0
 11
195.119
 21
5.61414
 31
0.0
  0
LINE
  8
0
 62
     0
 10
195.119
 20
5.61414
 30
0.0
 11
195.119
 21
4.61366
 31
0.0
  0
LINE
  8
0
 62
     0
 10
195.119
 20
4.61366
 30
0.0
 11
209.119
 21
4.61366
 31
0.0
  0
LINE
  8
0
 62
     0
 10
209.119
 20
4.61366
 30
0.0
 11
209.119
 21
5.61414
 31
0.0
  0
LINE
  8
0
 62
     0
 10
209.119
 20
5.61414
 30
0.0
 11
209.919
 21
5.61414
 31
0.0
  0
LINE
  8
0
 62
     0
 10
209.919
 20
5.61414
 30
0.0
 11
209.919
 21
8.71333
 31
0.0
  0
LINE
  8
0
 62
     0
 10
209.919
 20
8.71333
 30
0.0
 11
209.119
 21
8.71333
 31
0.0
  0
LINE
  8
0
 62
     0
 10
209.119
 20
8.71333
 30
0.0
 11
209.119
 21
14.5121
 31
0.0
  0
LINE
  8
0
 62
     0
 10
209.119
 20
14.5121
 30
0.0
 11
209.919
 21
14.5121
 31
0.0
  0
LINE
  8
0
 62
     0
 10
209.919
 20
14.5121
 30
0.0
 11
209.919
 21
17.6127
 31
0.0
  0
LINE
  8
0
 62
     0
 10
209.919
 20
17.6127
 30
0.0
 11
209.119
 21
17.6127
 31
0.0
  0
LINE
  8
0
 62
     0
 10
209.119
 20
17.6127
 30
0.0
 11
209.119
 21
18.6118
 31
0.0
  0
LINE
  8
0
 62
     0
 10
209.119
 20
18.6118
 30
0.0
 11
195.119
 21
18.6118
 31
0.0
  0
LINE
  8
0
 62
     0
 10
214.169
 20
18.6118
 30
0.0
 11
214.169
 21
17.6127
 31
0.0
  0
LINE
  8
0
 62
     0
 10
214.169
 20
17.6127
 30
0.0
 11
213.368
 21
17.6127
 31
0.0
  0
LINE
  8
0
 62
     0
 10
213.368
 20
17.6127
 30
0.0
 11
213.368
 21
14.5121
 31
0.0
  0
LINE
  8
0
 62
     0
 10
213.368
 20
14.5121
 30
0.0
 11
214.169
 21
14.5121
 31
0.0
  0
LINE
  8
0
 62
     0
 10
214.169
 20
14.5121
 30
0.0
 11
214.169
 21
8.71333
 31
0.0
  0
LINE
  8
0
 62
     0
 10
214.169
 20
8.71333
 30
0.0
 11
213.368
 21
8.71333
 31
0.0
  0
LINE
  8
0
 62
     0
 10
213.368
 20
8.71333
 30
0.0
 11
213.368
 21
5.61414
 31
0.0
  0
LINE
  8
0
 62
     0
 10
213.368
 20
5.61414
 30
0.0
 11
214.169
 21
5.61414
 31
0.0
  0
LINE
  8
0
 62
     0
 10
214.169
 20
5.61414
 30
0.0
 11
214.169
 21
4.61366
 31
0.0
  0
LINE
  8
0
 62
     0
 10
214.169
 20
4.61366
 30
0.0
 11
228.169
 21
4.61366
 31
0.0
  0
LINE
  8
0
 62
     0
 10
228.169
 20
4.61366
 30
0.0
 11
228.169
 21
5.61414
 31
0.0
  0
LINE
  8
0
 62
     0
 10
228.169
 20
5.61414
 30
0.0
 11
228.969
 21
5.61414
 31
0.0
  0
LINE
  8
0
 62
     0
 10
228.969
 20
5.61414
 30
0.0
 11
228.969
 21
8.71333
 31
0.0
  0
LINE
  8
0
 62
     0
 10
228.969
 20
8.71333
 30
0.0
 11
228.169
 21
8.71333
 31
0.0
  0
LINE
  8
0
 62
     0
 10
228.169
 20
8.71333
 30
0.0
 11
228.169
 21
14.5121
 31
0.0
  0
LINE
  8
0
 62
     0
 10
228.169
 20
14.5121
 30
0.0
 11
228.969
 21
14.5121
 31
0.0
  0
LINE
  8
0
 62
     0
 10
228.969
 20
14.5121
 30
0.0
 11
228.969
 21
17.6127
 31
0.0
  0
LINE
  8
0
 62
     0
 10
228.969
 20
17.6127
 30
0.0
 11
228.169
 21
17.6127
 31
0.0
  0
LINE
  8
0
 62
     0
 10
228.169
 20
17.6127
 30
0.0
 11
228.169
 21
18.6118
 31
0.0
  0
LINE
  8
0
 62
     0
 10
228.169
 20
18.6118
 30
0.0
 11
214.169
 21
18.6118
 31
0.0
  0
LINE
  8
0
 62
     0
 10
233.219
 20
18.6118
 30
0.0
 11
233.219
 21
17.6127
 31
0.0
  0
LINE
  8
0
 62
     0
 10
233.219
 20
17.6127
 30
0.0
 11
232.418
 21
17.6127
 31
0.0
  0
LINE
  8
0
 62
     0
 10
232.418
 20
17.6127
 30
0.0
 11
232.418
 21
14.5121
 31
0.0
  0
LINE
  8
0
 62
     0
 10
232.418
 20
14.5121
 30
0.0
 11
233.219
 21
14.5121
 31
0.0
  0
LINE
  8
0
 62
     0
 10
233.219
 20
14.5121
 30
0.0
 11
233.219
 21
8.71333
 31
0.0
  0
LINE
  8
0
 62
     0
 10
233.219
 20
8.71333
 30
0.0
 11
232.418
 21
8.71333
 31
0.0
  0
LINE
  8
0
 62
     0
 10
232.418
 20
8.71333
 30
0.0
 11
232.418
 21
5.61414
 31
0.0
  0
LINE
  8
0
 62
     0
 10
232.418
 20
5.61414
 30
0.0
 11
233.219
 21
5.61414
 31
0.0
  0
LINE
  8
0
 62
     0
 10
233.219
 20
5.61414
 30
0.0
 11
233.219
 21
4.61366
 31
0.0
  0
LINE
  8
0
 62
     0
 10
233.219
 20
4.61366
 30
0.0
 11
247.219
 21
4.61366
 31
0.0
  0
LINE
  8
0
 62
     0
 10
247.219
 20
4.61366
 30
0.0
 11
247.219
 21
5.61414
 31
0.0
  0
LINE
  8
0
 62
     0
 10
247.219
 20
5.61414
 30
0.0
 11
248.019
 21
5.61414
 31
0.0
  0
LINE
  8
0
 62
     0
 10
248.019
 20
5.61414
 30
0.0
 11
248.019
 21
8.71333
 31
0.0
  0
LINE
  8
0
 62
     0
 10
248.019
 20
8.71333
 30
0.0
 11
247.219
 21
8.71333
 31
0.0
  0
LINE
  8
0
 62
     0
 10
247.219
 20
8.71333
 30
0.0
 11
247.219
 21
14.5121
 31
0.0
  0
LINE
  8
0
 62
     0
 10
247.219
 20
14.5121
 30
0.0
 11
248.019
 21
14.5121
 31
0.0
  0
LINE
  8
0
 62
     0
 10
248.019
 20
14.5121
 30
0.0
 11
248.019
 21
17.6127
 31
0.0
  0
LINE
  8
0
 62
     0
 10
248.019
 20
17.6127
 30
0.0
 11
247.219
 21
17.6127
 31
0.0
  0
LINE
  8
0
 62
     0
 10
247.219
 20
17.6127
 30
0.0
 11
247.219
 21
18.6118
 31
0.0
  0
LINE
  8
0
 62
     0
 10
247.219
 20
18.6118
 30
0.0
 11
233.219
 21
18.6118
 31
0.0
  0
LINE
  8
0
 62
     0
 10
11.7615
 20
37.6619
 30
0.0
 11
11.7615
 21
36.6628
 31
0.0
  0
LINE
  8
0
 62
     0
 10
11.7615
 20
36.6628
 30
0.0
 11
10.9623
 21
36.6628
 31
0.0
  0
LINE
  8
0
 62
     0
 10
10.9623
 20
36.6628
 30
0.0
 11
10.9623
 21
33.5621
 31
0.0
  0
LINE
  8
0
 62
     0
 10
10.9623
 20
33.5621
 30
0.0
 11
11.7615
 21
33.5621
 31
0.0
  0
LINE
  8
0
 62
     0
 10
11.7615
 20
33.5621
 30
0.0
 11
11.7615
 21
27.7633
 31
0.0
  0
LINE
  8
0
 62
     0
 10
11.7615
 20
27.7633
 30
0.0
 11
10.9623
 21
27.7633
 31
0.0
  0
LINE
  8
0
 62
     0
 10
10.9623
 20
27.7633
 30
0.0
 11
10.9623
 21
24.6641
 31
0.0
  0
LINE
  8
0
 62
     0
 10
10.9623
 20
24.6641
 30
0.0
 11
11.7615
 21
24.6641
 31
0.0
  0
LINE
  8
0
 62
     0
 10
11.7615
 20
24.6641
 30
0.0
 11
11.7615
 21
23.6637
 31
0.0
  0
LINE
  8
0
 62
     0
 10
11.7615
 20
23.6637
 30
0.0
 11
25.7624
 21
23.6637
 31
0.0
  0
LINE
  8
0
 62
     0
 10
25.7624
 20
23.6637
 30
0.0
 11
25.7624
 21
24.6641
 31
0.0
  0
LINE
  8
0
 62
     0
 10
25.7624
 20
24.6641
 30
0.0
 11
26.5617
 21
24.6641
 31
0.0
  0
LINE
  8
0
 62
     0
 10
26.5617
 20
24.6641
 30
0.0
 11
26.5617
 21
27.7633
 31
0.0
  0
LINE
  8
0
 62
     0
 10
26.5617
 20
27.7633
 30
0.0
 11
25.7624
 21
27.7633
 31
0.0
  0
LINE
  8
0
 62
     0
 10
25.7624
 20
27.7633
 30
0.0
 11
25.7624
 21
33.5621
 31
0.0
  0
LINE
  8
0
 62
     0
 10
25.7624
 20
33.5621
 30
0.0
 11
26.5617
 21
33.5621
 31
0.0
  0
LINE
  8
0
 62
     0
 10
26.5617
 20
33.5621
 30
0.0
 11
26.5617
 21
36.6628
 31
0.0
  0
LINE
  8
0
 62
     0
 10
26.5617
 20
36.6628
 30
0.0
 11
25.7624
 21
36.6628
 31
0.0
  0
LINE
  8
0
 62
     0
 10
25.7624
 20
36.6628
 30
0.0
 11
25.7624
 21
37.6619
 31
0.0
  0
LINE
  8
0
 62
     0
 10
25.7624
 20
37.6619
 30
0.0
 11
11.7615
 21
37.6619
 31
0.0
  0
LINE
  8
0
 62
     0
 10
37.9554
 20
37.6619
 30
0.0
 11
37.9554
 21
36.6628
 31
0.0
  0
LINE
  8
0
 62
     0
 10
37.9554
 20
36.6628
 30
0.0
 11
37.156
 21
36.6628
 31
0.0
  0
LINE
  8
0
 62
     0
 10
37.156
 20
36.6628
 30
0.0
 11
37.156
 21
33.5621
 31
0.0
  0
LINE
  8
0
 62
     0
 10
37.156
 20
33.5621
 30
0.0
 11
37.9554
 21
33.5621
 31
0.0
  0
LINE
  8
0
 62
     0
 10
37.9554
 20
33.5621
 30
0.0
 11
37.9554
 21
27.7633
 31
0.0
  0
LINE
  8
0
 62
     0
 10
37.9554
 20
27.7633
 30
0.0
 11
37.156
 21
27.7633
 31
0.0
  0
LINE
  8
0
 62
     0
 10
37.156
 20
27.7633
 30
0.0
 11
37.156
 21
24.6641
 31
0.0
  0
LINE
  8
0
 62
     0
 10
37.156
 20
24.6641
 30
0.0
 11
37.9554
 21
24.6641
 31
0.0
  0
LINE
  8
0
 62
     0
 10
37.9554
 20
24.6641
 30
0.0
 11
37.9554
 21
23.6637
 31
0.0
  0
LINE
  8
0
 62
     0
 10
37.9554
 20
23.6637
 30
0.0
 11
51.9561
 21
23.6637
 31
0.0
  0
LINE
  8
0
 62
     0
 10
51.9561
 20
23.6637
 30
0.0
 11
51.9561
 21
24.6641
 31
0.0
  0
LINE
  8
0
 62
     0
 10
51.9561
 20
24.6641
 30
0.0
 11
52.7554
 21
24.6641
 31
0.0
  0
LINE
  8
0
 62
     0
 10
52.7554
 20
24.6641
 30
0.0
 11
52.7554
 21
27.7633
 31
0.0
  0
LINE
  8
0
 62
     0
 10
52.7554
 20
27.7633
 30
0.0
 11
51.9561
 21
27.7633
 31
0.0
  0
LINE
  8
0
 62
     0
 10
51.9561
 20
27.7633
 30
0.0
 11
51.9561
 21
33.5621
 31
0.0
  0
LINE
  8
0
 62
     0
 10
51.9561
 20
33.5621
 30
0.0
 11
52.7554
 21
33.5621
 31
0.0
  0
LINE
  8
0
 62
     0
 10
52.7554
 20
33.5621
 30
0.0
 11
52.7554
 21
36.6628
 31
0.0
  0
LINE
  8
0
 62
     0
 10
52.7554
 20
36.6628
 30
0.0
 11
51.9561
 21
36.6628
 31
0.0
  0
LINE
  8
0
 62
     0
 10
51.9561
 20
36.6628
 30
0.0
 11
51.9561
 21
37.6619
 31
0.0
  0
LINE
  8
0
 62
     0
 10
51.9561
 20
37.6619
 30
0.0
 11
37.9554
 21
37.6619
 31
0.0
  0
LINE
  8
0
 62
     0
 10
57.0054
 20
37.6619
 30
0.0
 11
57.0054
 21
36.6628
 31
0.0
  0
LINE
  8
0
 62
     0
 10
57.0054
 20
36.6628
 30
0.0
 11
56.206
 21
36.6628
 31
0.0
  0
LINE
  8
0
 62
     0
 10
56.206
 20
36.6628
 30
0.0
 11
56.206
 21
33.5621
 31
0.0
  0
LINE
  8
0
 62
     0
 10
56.206
 20
33.5621
 30
0.0
 11
57.0054
 21
33.5621
 31
0.0
  0
LINE
  8
0
 62
     0
 10
57.0054
 20
33.5621
 30
0.0
 11
57.0054
 21
27.7633
 31
0.0
  0
LINE
  8
0
 62
     0
 10
57.0054
 20
27.7633
 30
0.0
 11
56.206
 21
27.7633
 31
0.0
  0
LINE
  8
0
 62
     0
 10
56.206
 20
27.7633
 30
0.0
 11
56.206
 21
24.6641
 31
0.0
  0
LINE
  8
0
 62
     0
 10
56.206
 20
24.6641
 30
0.0
 11
57.0054
 21
24.6641
 31
0.0
  0
LINE
  8
0
 62
     0
 10
57.0054
 20
24.6641
 30
0.0
 11
57.0054
 21
23.6637
 31
0.0
  0
LINE
  8
0
 62
     0
 10
57.0054
 20
23.6637
 30
0.0
 11
71.0061
 21
23.6637
 31
0.0
  0
LINE
  8
0
 62
     0
 10
71.0061
 20
23.6637
 30
0.0
 11
71.0061
 21
24.6641
 31
0.0
  0
LINE
  8
0
 62
     0
 10
71.0061
 20
24.6641
 30
0.0
 11
71.8054
 21
24.6641
 31
0.0
  0
LINE
  8
0
 62
     0
 10
71.8054
 20
24.6641
 30
0.0
 11
71.8054
 21
27.7633
 31
0.0
  0
LINE
  8
0
 62
     0
 10
71.8054
 20
27.7633
 30
0.0
 11
71.0061
 21
27.7633
 31
0.0
  0
LINE
  8
0
 62
     0
 10
71.0061
 20
27.7633
 30
0.0
 11
71.0061
 21
33.5621
 31
0.0
  0
LINE
  8
0
 62
     0
 10
71.0061
 20
33.5621
 30
0.0
 11
71.8054
 21
33.5621
 31
0.0
  0
LINE
  8
0
 62
     0
 10
71.8054
 20
33.5621
 30
0.0
 11
71.8054
 21
36.6628
 31
0.0
  0
LINE
  8
0
 62
     0
 10
71.8054
 20
36.6628
 30
0.0
 11
71.0061
 21
36.6628
 31
0.0
  0
LINE
  8
0
 62
     0
 10
71.0061
 20
36.6628
 30
0.0
 11
71.0061
 21
37.6619
 31
0.0
  0
LINE
  8
0
 62
     0
 10
71.0061
 20
37.6619
 30
0.0
 11
57.0054
 21
37.6619
 31
0.0
  0
LINE
  8
0
 62
     0
 10
76.0554
 20
37.6619
 30
0.0
 11
76.0554
 21
36.6628
 31
0.0
  0
LINE
  8
0
 62
     0
 10
76.0554
 20
36.6628
 30
0.0
 11
75.256
 21
36.6628
 31
0.0
  0
LINE
  8
0
 62
     0
 10
75.256
 20
36.6628
 30
0.0
 11
75.256
 21
33.5621
 31
0.0
  0
LINE
  8
0
 62
     0
 10
75.256
 20
33.5621
 30
0.0
 11
76.0554
 21
33.5621
 31
0.0
  0
LINE
  8
0
 62
     0
 10
76.0554
 20
33.5621
 30
0.0
 11
76.0554
 21
27.7633
 31
0.0
  0
LINE
  8
0
 62
     0
 10
76.0554
 20
27.7633
 30
0.0
 11
75.256
 21
27.7633
 31
0.0
  0
LINE
  8
0
 62
     0
 10
75.256
 20
27.7633
 30
0.0
 11
75.256
 21
24.6641
 31
0.0
  0
LINE
  8
0
 62
     0
 10
75.256
 20
24.6641
 30
0.0
 11
76.0554
 21
24.6641
 31
0.0
  0
LINE
  8
0
 62
     0
 10
76.0554
 20
24.6641
 30
0.0
 11
76.0554
 21
23.6637
 31
0.0
  0
LINE
  8
0
 62
     0
 10
76.0554
 20
23.6637
 30
0.0
 11
90.0561
 21
23.6637
 31
0.0
  0
LINE
  8
0
 62
     0
 10
90.0561
 20
23.6637
 30
0.0
 11
90.0561
 21
24.6641
 31
0.0
  0
LINE
  8
0
 62
     0
 10
90.0561
 20
24.6641
 30
0.0
 11
90.8554
 21
24.6641
 31
0.0
  0
LINE
  8
0
 62
     0
 10
90.8554
 20
24.6641
 30
0.0
 11
90.8554
 21
27.7633
 31
0.0
  0
LINE
  8
0
 62
     0
 10
90.8554
 20
27.7633
 30
0.0
 11
90.0561
 21
27.7633
 31
0.0
  0
LINE
  8
0
 62
     0
 10
90.0561
 20
27.7633
 30
0.0
 11
90.0561
 21
33.5621
 31
0.0
  0
LINE
  8
0
 62
     0
 10
90.0561
 20
33.5621
 30
0.0
 11
90.8554
 21
33.5621
 31
0.0
  0
LINE
  8
0
 62
     0
 10
90.8554
 20
33.5621
 30
0.0
 11
90.8554
 21
36.6628
 31
0.0
  0
LINE
  8
0
 62
     0
 10
90.8554
 20
36.6628
 30
0.0
 11
90.0561
 21
36.6628
 31
0.0
  0
LINE
  8
0
 62
     0
 10
90.0561
 20
36.6628
 30
0.0
 11
90.0561
 21
37.6619
 31
0.0
  0
LINE
  8
0
 62
     0
 10
90.0561
 20
37.6619
 30
0.0
 11
76.0554
 21
37.6619
 31
0.0
  0
LINE
  8
0
 62
     0
 10
95.1054
 20
37.6619
 30
0.0
 11
95.1054
 21
36.6628
 31
0.0
  0
LINE
  8
0
 62
     0
 10
95.1054
 20
36.6628
 30
0.0
 11
94.306
 21
36.6628
 31
0.0
  0
LINE
  8
0
 62
     0
 10
94.306
 20
36.6628
 30
0.0
 11
94.306
 21
33.5621
 31
0.0
  0
LINE
  8
0
 62
     0
 10
94.306
 20
33.5621
 30
0.0
 11
95.1054
 21
33.5621
 31
0.0
  0
LINE
  8
0
 62
     0
 10
95.1054
 20
33.5621
 30
0.0
 11
95.1054
 21
27.7633
 31
0.0
  0
LINE
  8
0
 62
     0
 10
95.1054
 20
27.7633
 30
0.0
 11
94.306
 21
27.7633
 31
0.0
  0
LINE
  8
0
 62
     0
 10
94.306
 20
27.7633
 30
0.0
 11
94.306
 21
24.6641
 31
0.0
  0
LINE
  8
0
 62
     0
 10
94.306
 20
24.6641
 30
0.0
 11
95.1054
 21
24.6641
 31
0.0
  0
LINE
  8
0
 62
     0
 10
95.1054
 20
24.6641
 30
0.0
 11
95.1054
 21
23.6637
 31
0.0
  0
LINE
  8
0
 62
     0
 10
95.1054
 20
23.6637
 30
0.0
 11
109.106
 21
23.6637
 31
0.0
  0
LINE
  8
0
 62
     0
 10
109.106
 20
23.6637
 30
0.0
 11
109.106
 21
24.6641
 31
0.0
  0
LINE
  8
0
 62
     0
 10
109.106
 20
24.6641
 30
0.0
 11
109.905
 21
24.6641
 31
0.0
  0
LINE
  8
0
 62
     0
 10
109.905
 20
24.6641
 30
0.0
 11
109.905
 21
27.7633
 31
0.0
  0
LINE
  8
0
 62
     0
 10
109.905
 20
27.7633
 30
0.0
 11
109.106
 21
27.7633
 31
0.0
  0
LINE
  8
0
 62
     0
 10
109.106
 20
27.7633
 30
0.0
 11
109.106
 21
33.5621
 31
0.0
  0
LINE
  8
0
 62
     0
 10
109.106
 20
33.5621
 30
0.0
 11
109.905
 21
33.5621
 31
0.0
  0
LINE
  8
0
 62
     0
 10
109.905
 20
33.5621
 30
0.0
 11
109.905
 21
36.6628
 31
0.0
  0
LINE
  8
0
 62
     0
 10
109.905
 20
36.6628
 30
0.0
 11
109.106
 21
36.6628
 31
0.0
  0
LINE
  8
0
 62
     0
 10
109.106
 20
36.6628
 30
0.0
 11
109.106
 21
37.6619
 31
0.0
  0
LINE
  8
0
 62
     0
 10
109.106
 20
37.6619
 30
0.0
 11
95.1054
 21
37.6619
 31
0.0
  0
LINE
  8
0
 62
     0
 10
114.155
 20
37.6619
 30
0.0
 11
114.155
 21
36.6628
 31
0.0
  0
LINE
  8
0
 62
     0
 10
114.155
 20
36.6628
 30
0.0
 11
113.356
 21
36.6628
 31
0.0
  0
LINE
  8
0
 62
     0
 10
113.356
 20
36.6628
 30
0.0
 11
113.356
 21
33.5621
 31
0.0
  0
LINE
  8
0
 62
     0
 10
113.356
 20
33.5621
 30
0.0
 11
114.155
 21
33.5621
 31
0.0
  0
LINE
  8
0
 62
     0
 10
114.155
 20
33.5621
 30
0.0
 11
114.155
 21
27.7633
 31
0.0
  0
LINE
  8
0
 62
     0
 10
114.155
 20
27.7633
 30
0.0
 11
113.356
 21
27.7633
 31
0.0
  0
LINE
  8
0
 62
     0
 10
113.356
 20
27.7633
 30
0.0
 11
113.356
 21
24.6641
 31
0.0
  0
LINE
  8
0
 62
     0
 10
113.356
 20
24.6641
 30
0.0
 11
114.155
 21
24.6641
 31
0.0
  0
LINE
  8
0
 62
     0
 10
114.155
 20
24.6641
 30
0.0
 11
114.155
 21
23.6637
 31
0.0
  0
LINE
  8
0
 62
     0
 10
114.155
 20
23.6637
 30
0.0
 11
128.156
 21
23.6637
 31
0.0
  0
LINE
  8
0
 62
     0
 10
128.156
 20
23.6637
 30
0.0
 11
128.156
 21
24.6641
 31
0.0
  0
LINE
  8
0
 62
     0
 10
128.156
 20
24.6641
 30
0.0
 11
128.955
 21
24.6641
 31
0.0
  0
LINE
  8
0
 62
     0
 10
128.955
 20
24.6641
 30
0.0
 11
128.955
 21
27.7633
 31
0.0
  0
LINE
  8
0
 62
     0
 10
128.955
 20
27.7633
 30
0.0
 11
128.156
 21
27.7633
 31
0.0
  0
LINE
  8
0
 62
     0
 10
128.156
 20
27.7633
 30
0.0
 11
128.156
 21
33.5621
 31
0.0
  0
LINE
  8
0
 62
     0
 10
128.156
 20
33.5621
 30
0.0
 11
128.955
 21
33.5621
 31
0.0
  0
LINE
  8
0
 62
     0
 10
128.955
 20
33.5621
 30
0.0
 11
128.955
 21
36.6628
 31
0.0
  0
LINE
  8
0
 62
     0
 10
128.955
 20
36.6628
 30
0.0
 11
128.156
 21
36.6628
 31
0.0
  0
LINE
  8
0
 62
     0
 10
128.156
 20
36.6628
 30
0.0
 11
128.156
 21
37.6619
 31
0.0
  0
LINE
  8
0
 62
     0
 10
128.156
 20
37.6619
 30
0.0
 11
114.155
 21
37.6619
 31
0.0
  0
LINE
  8
0
 62
     0
 10
133.205
 20
37.6619
 30
0.0
 11
133.205
 21
36.6628
 31
0.0
  0
LINE
  8
0
 62
     0
 10
133.205
 20
36.6628
 30
0.0
 11
132.406
 21
36.6628
 31
0.0
  0
LINE
  8
0
 62
     0
 10
132.406
 20
36.6628
 30
0.0
 11
132.406
 21
33.5621
 31
0.0
  0
LINE
  8
0
 62
     0
 10
132.406
 20
33.5621
 30
0.0
 11
133.205
 21
33.5621
 31
0.0
  0
LINE
  8
0
 62
     0
 10
133.205
 20
33.5621
 30
0.0
 11
133.205
 21
27.7633
 31
0.0
  0
LINE
  8
0
 62
     0
 10
133.205
 20
27.7633
 30
0.0
 11
132.406
 21
27.7633
 31
0.0
  0
LINE
  8
0
 62
     0
 10
132.406
 20
27.7633
 30
0.0
 11
132.406
 21
24.6641
 31
0.0
  0
LINE
  8
0
 62
     0
 10
132.406
 20
24.6641
 30
0.0
 11
133.205
 21
24.6641
 31
0.0
  0
LINE
  8
0
 62
     0
 10
133.205
 20
24.6641
 30
0.0
 11
133.205
 21
23.6637
 31
0.0
  0
LINE
  8
0
 62
     0
 10
133.205
 20
23.6637
 30
0.0
 11
147.206
 21
23.6637
 31
0.0
  0
LINE
  8
0
 62
     0
 10
147.206
 20
23.6637
 30
0.0
 11
147.206
 21
24.6641
 31
0.0
  0
LINE
  8
0
 62
     0
 10
147.206
 20
24.6641
 30
0.0
 11
148.005
 21
24.6641
 31
0.0
  0
LINE
  8
0
 62
     0
 10
148.005
 20
24.6641
 30
0.0
 11
148.005
 21
27.7633
 31
0.0
  0
LINE
  8
0
 62
     0
 10
148.005
 20
27.7633
 30
0.0
 11
147.206
 21
27.7633
 31
0.0
  0
LINE
  8
0
 62
     0
 10
147.206
 20
27.7633
 30
0.0
 11
147.206
 21
33.5621
 31
0.0
  0
LINE
  8
0
 62
     0
 10
147.206
 20
33.5621
 30
0.0
 11
148.005
 21
33.5621
 31
0.0
  0
LINE
  8
0
 62
     0
 10
148.005
 20
33.5621
 30
0.0
 11
148.005
 21
36.6628
 31
0.0
  0
LINE
  8
0
 62
     0
 10
148.005
 20
36.6628
 30
0.0
 11
147.206
 21
36.6628
 31
0.0
  0
LINE
  8
0
 62
     0
 10
147.206
 20
36.6628
 30
0.0
 11
147.206
 21
37.6619
 31
0.0
  0
LINE
  8
0
 62
     0
 10
147.206
 20
37.6619
 30
0.0
 11
133.205
 21
37.6619
 31
0.0
  0
LINE
  8
0
 62
     0
 10
152.255
 20
37.6619
 30
0.0
 11
152.255
 21
36.6628
 31
0.0
  0
LINE
  8
0
 62
     0
 10
152.255
 20
36.6628
 30
0.0
 11
151.456
 21
36.6628
 31
0.0
  0
LINE
  8
0
 62
     0
 10
151.456
 20
36.6628
 30
0.0
 11
151.456
 21
33.5621
 31
0.0
  0
LINE
  8
0
 62
     0
 10
151.456
 20
33.5621
 30
0.0
 11
152.255
 21
33.5621
 31
0.0
  0
LINE
  8
0
 62
     0
 10
152.255
 20
33.5621
 30
0.0
 11
152.255
 21
27.7633
 31
0.0
  0
LINE
  8
0
 62
     0
 10
152.255
 20
27.7633
 30
0.0
 11
151.456
 21
27.7633
 31
0.0
  0
LINE
  8
0
 62
     0
 10
151.456
 20
27.7633
 30
0.0
 11
151.456
 21
24.6641
 31
0.0
  0
LINE
  8
0
 62
     0
 10
151.456
 20
24.6641
 30
0.0
 11
152.255
 21
24.6641
 31
0.0
  0
LINE
  8
0
 62
     0
 10
152.255
 20
24.6641
 30
0.0
 11
152.255
 21
23.6637
 31
0.0
  0
LINE
  8
0
 62
     0
 10
152.255
 20
23.6637
 30
0.0
 11
166.256
 21
23.6637
 31
0.0
  0
LINE
  8
0
 62
     0
 10
166.256
 20
23.6637
 30
0.0
 11
166.256
 21
24.6641
 31
0.0
  0
LINE
  8
0
 62
     0
 10
166.256
 20
24.6641
 30
0.0
 11
167.055
 21
24.6641
 31
0.0
  0
LINE
  8
0
 62
     0
 10
167.055
 20
24.6641
 30
0.0
 11
167.055
 21
27.7633
 31
0.0
  0
LINE
  8
0
 62
     0
 10
167.055
 20
27.7633
 30
0.0
 11
166.256
 21
27.7633
 31
0.0
  0
LINE
  8
0
 62
     0
 10
166.256
 20
27.7633
 30
0.0
 11
166.256
 21
33.5621
 31
0.0
  0
LINE
  8
0
 62
     0
 10
166.256
 20
33.5621
 30
0.0
 11
167.055
 21
33.5621
 31
0.0
  0
LINE
  8
0
 62
     0
 10
167.055
 20
33.5621
 30
0.0
 11
167.055
 21
36.6628
 31
0.0
  0
LINE
  8
0
 62
     0
 10
167.055
 20
36.6628
 30
0.0
 11
166.256
 21
36.6628
 31
0.0
  0
LINE
  8
0
 62
     0
 10
166.256
 20
36.6628
 30
0.0
 11
166.256
 21
37.6619
 31
0.0
  0
LINE
  8
0
 62
     0
 10
166.256
 20
37.6619
 30
0.0
 11
152.255
 21
37.6619
 31
0.0
  0
LINE
  8
0
 62
     0
 10
171.305
 20
37.6619
 30
0.0
 11
171.305
 21
36.6628
 31
0.0
  0
LINE
  8
0
 62
     0
 10
171.305
 20
36.6628
 30
0.0
 11
170.506
 21
36.6628
 31
0.0
  0
LINE
  8
0
 62
     0
 10
170.506
 20
36.6628
 30
0.0
 11
170.506
 21
33.5621
 31
0.0
  0
LINE
  8
0
 62
     0
 10
170.506
 20
33.5621
 30
0.0
 11
171.305
 21
33.5621
 31
0.0
  0
LINE
  8
0
 62
     0
 10
171.305
 20
33.5621
 30
0.0
 11
171.305
 21
27.7633
 31
0.0
  0
LINE
  8
0
 62
     0
 10
171.305
 20
27.7633
 30
0.0
 11
170.506
 21
27.7633
 31
0.0
  0
LINE
  8
0
 62
     0
 10
170.506
 20
27.7633
 30
0.0
 11
170.506
 21
24.6641
 31
0.0
  0
LINE
  8
0
 62
     0
 10
170.506
 20
24.6641
 30
0.0
 11
171.305
 21
24.6641
 31
0.0
  0
LINE
  8
0
 62
     0
 10
171.305
 20
24.6641
 30
0.0
 11
171.305
 21
23.6637
 31
0.0
  0
LINE
  8
0
 62
     0
 10
171.305
 20
23.6637
 30
0.0
 11
185.306
 21
23.6637
 31
0.0
  0
LINE
  8
0
 62
     0
 10
185.306
 20
23.6637
 30
0.0
 11
185.306
 21
24.6641
 31
0.0
  0
LINE
  8
0
 62
     0
 10
185.306
 20
24.6641
 30
0.0
 11
186.105
 21
24.6641
 31
0.0
  0
LINE
  8
0
 62
     0
 10
186.105
 20
24.6641
 30
0.0
 11
186.105
 21
27.7633
 31
0.0
  0
LINE
  8
0
 62
     0
 10
186.105
 20
27.7633
 30
0.0
 11
185.306
 21
27.7633
 31
0.0
  0
LINE
  8
0
 62
     0
 10
185.306
 20
27.7633
 30
0.0
 11
185.306
 21
33.5621
 31
0.0
  0
LINE
  8
0
 62
     0
 10
185.306
 20
33.5621
 30
0.0
 11
186.105
 21
33.5621
 31
0.0
  0
LINE
  8
0
 62
     0
 10
186.105
 20
33.5621
 30
0.0
 11
186.105
 21
36.6628
 31
0.0
  0
LINE
  8
0
 62
     0
 10
186.105
 20
36.6628
 30
0.0
 11
185.306
 21
36.6628
 31
0.0
  0
LINE
  8
0
 62
     0
 10
185.306
 20
36.6628
 30
0.0
 11
185.306
 21
37.6619
 31
0.0
  0
LINE
  8
0
 62
     0
 10
185.306
 20
37.6619
 30
0.0
 11
171.305
 21
37.6619
 31
0.0
  0
LINE
  8
0
 62
     0
 10
190.355
 20
37.6619
 30
0.0
 11
190.355
 21
36.6628
 31
0.0
  0
LINE
  8
0
 62
     0
 10
190.355
 20
36.6628
 30
0.0
 11
189.556
 21
36.6628
 31
0.0
  0
LINE
  8
0
 62
     0
 10
189.556
 20
36.6628
 30
0.0
 11
189.556
 21
33.5621
 31
0.0
  0
LINE
  8
0
 62
     0
 10
189.556
 20
33.5621
 30
0.0
 11
190.355
 21
33.5621
 31
0.0
  0
LINE
  8
0
 62
     0
 10
190.355
 20
33.5621
 30
0.0
 11
190.355
 21
27.7633
 31
0.0
  0
LINE
  8
0
 62
     0
 10
190.355
 20
27.7633
 30
0.0
 11
189.556
 21
27.7633
 31
0.0
  0
LINE
  8
0
 62
     0
 10
189.556
 20
27.7633
 30
0.0
 11
189.556
 21
24.6641
 31
0.0
  0
LINE
  8
0
 62
     0
 10
189.556
 20
24.6641
 30
0.0
 11
190.355
 21
24.6641
 31
0.0
  0
LINE
  8
0
 62
     0
 10
190.355
 20
24.6641
 30
0.0
 11
190.355
 21
23.6637
 31
0.0
  0
LINE
  8
0
 62
     0
 10
190.355
 20
23.6637
 30
0.0
 11
204.356
 21
23.6637
 31
0.0
  0
LINE
  8
0
 62
     0
 10
204.356
 20
23.6637
 30
0.0
 11
204.356
 21
24.6641
 31
0.0
  0
LINE
  8
0
 62
     0
 10
204.356
 20
24.6641
 30
0.0
 11
205.155
 21
24.6641
 31
0.0
  0
LINE
  8
0
 62
     0
 10
205.155
 20
24.6641
 30
0.0
 11
205.155
 21
27.7633
 31
0.0
  0
LINE
  8
0
 62
     0
 10
205.155
 20
27.7633
 30
0.0
 11
204.356
 21
27.7633
 31
0.0
  0
LINE
  8
0
 62
     0
 10
204.356
 20
27.7633
 30
0.0
 11
204.356
 21
33.5621
 31
0.0
  0
LINE
  8
0
 62
     0
 10
204.356
 20
33.5621
 30
0.0
 11
205.155
 21
33.5621
 31
0.0
  0
LINE
  8
0
 62
     0
 10
205.155
 20
33.5621
 30
0.0
 11
205.155
 21
36.6628
 31
0.0
  0
LINE
  8
0
 62
     0
 10
205.155
 20
36.6628
 30
0.0
 11
204.356
 21
36.6628
 31
0.0
  0
LINE
  8
0
 62
     0
 10
204.356
 20
36.6628
 30
0.0
 11
204.356
 21
37.6619
 31
0.0
  0
LINE
  8
0
 62
     0
 10
204.356
 20
37.6619
 30
0.0
 11
190.355
 21
37.6619
 31
0.0
  0
LINE
  8
0
 62
     0
 10
209.405
 20
37.6619
 30
0.0
 11
209.405
 21
36.6628
 31
0.0
  0
LINE
  8
0
 62
     0
 10
209.405
 20
36.6628
 30
0.0
 11
208.606
 21
36.6628
 31
0.0
  0
LINE
  8
0
 62
     0
 10
208.606
 20
36.6628
 30
0.0
 11
208.606
 21
33.5621
 31
0.0
  0
LINE
  8
0
 62
     0
 10
208.606
 20
33.5621
 30
0.0
 11
209.405
 21
33.5621
 31
0.0
  0
LINE
  8
0
 62
     0
 10
209.405
 20
33.5621
 30
0.0
 11
209.405
 21
27.7633
 31
0.0
  0
LINE
  8
0
 62
     0
 10
209.405
 20
27.7633
 30
0.0
 11
208.606
 21
27.7633
 31
0.0
  0
LINE
  8
0
 62
     0
 10
208.606
 20
27.7633
 30
0.0
 11
208.606
 21
24.6641
 31
0.0
  0
LINE
  8
0
 62
     0
 10
208.606
 20
24.6641
 30
0.0
 11
209.405
 21
24.6641
 31
0.0
  0
LINE
  8
0
 62
     0
 10
209.405
 20
24.6641
 30
0.0
 11
209.405
 21
23.6637
 31
0.0
  0
LINE
  8
0
 62
     0
 10
209.405
 20
23.6637
 30
0.0
 11
223.406
 21
23.6637
 31
0.0
  0
LINE
  8
0
 62
     0
 10
223.406
 20
23.6637
 30
0.0
 11
223.406
 21
24.6641
 31
0.0
  0
LINE
  8
0
 62
     0
 10
223.406
 20
24.6641
 30
0.0
 11
224.205
 21
24.6641
 31
0.0
  0
LINE
  8
0
 62
     0
 10
224.205
 20
24.6641
 30
0.0
 11
224.205
 21
27.7633
 31
0.0
  0
LINE
  8
0
 62
     0
 10
224.205
 20
27.7633
 30
0.0
 11
223.406
 21
27.7633
 31
0.0
  0
LINE
  8
0
 62
     0
 10
223.406
 20
27.7633
 30
0.0
 11
223.406
 21
33.5621
 31
0.0
  0
LINE
  8
0
 62
     0
 10
223.406
 20
33.5621
 30
0.0
 11
224.205
 21
33.5621
 31
0.0
  0
LINE
  8
0
 62
     0
 10
224.205
 20
33.5621
 30
0.0
 11
224.205
 21
36.6628
 31
0.0
  0
LINE
  8
0
 62
     0
 10
224.205
 20
36.6628
 30
0.0
 11
223.406
 21
36.6628
 31
0.0
  0
LINE
  8
0
 62
     0
 10
223.406
 20
36.6628
 30
0.0
 11
223.406
 21
37.6619
 31
0.0
  0
LINE
  8
0
 62
     0
 10
223.406
 20
37.6619
 30
0.0
 11
209.405
 21
37.6619
 31
0.0
  0
LINE
  8
0
 62
     0
 10
228.455
 20
37.6619
 30
0.0
 11
228.455
 21
36.6628
 31
0.0
  0
LINE
  8
0
 62
     0
 10
228.455
 20
36.6628
 30
0.0
 11
227.656
 21
36.6628
 31
0.0
  0
LINE
  8
0
 62
     0
 10
227.656
 20
36.6628
 30
0.0
 11
227.656
 21
33.5621
 31
0.0
  0
LINE
  8
0
 62
     0
 10
227.656
 20
33.5621
 30
0.0
 11
228.455
 21
33.5621
 31
0.0
  0
LINE
  8
0
 62
     0
 10
228.455
 20
33.5621
 30
0.0
 11
228.455
 21
27.7633
 31
0.0
  0
LINE
  8
0
 62
     0
 10
228.455
 20
27.7633
 30
0.0
 11
227.656
 21
27.7633
 31
0.0
  0
LINE
  8
0
 62
     0
 10
227.656
 20
27.7633
 30
0.0
 11
227.656
 21
24.6641
 31
0.0
  0
LINE
  8
0
 62
     0
 10
227.656
 20
24.6641
 30
0.0
 11
228.455
 21
24.6641
 31
0.0
  0
LINE
  8
0
 62
     0
 10
228.455
 20
24.6641
 30
0.0
 11
228.455
 21
23.6637
 31
0.0
  0
LINE
  8
0
 62
     0
 10
228.455
 20
23.6637
 30
0.0
 11
242.456
 21
23.6637
 31
0.0
  0
LINE
  8
0
 62
     0
 10
242.456
 20
23.6637
 30
0.0
 11
242.456
 21
24.6641
 31
0.0
  0
LINE
  8
0
 62
     0
 10
242.456
 20
24.6641
 30
0.0
 11
243.255
 21
24.6641
 31
0.0
  0
LINE
  8
0
 62
     0
 10
243.255
 20
24.6641
 30
0.0
 11
243.255
 21
27.7633
 31
0.0
  0
LINE
  8
0
 62
     0
 10
243.255
 20
27.7633
 30
0.0
 11
242.456
 21
27.7633
 31
0.0
  0
LINE
  8
0
 62
     0
 10
242.456
 20
27.7633
 30
0.0
 11
242.456
 21
33.5621
 31
0.0
  0
LINE
  8
0
 62
     0
 10
242.456
 20
33.5621
 30
0.0
 11
243.255
 21
33.5621
 31
0.0
  0
LINE
  8
0
 62
     0
 10
243.255
 20
33.5621
 30
0.0
 11
243.255
 21
36.6628
 31
0.0
  0
LINE
  8
0
 62
     0
 10
243.255
 20
36.6628
 30
0.0
 11
242.456
 21
36.6628
 31
0.0
  0
LINE
  8
0
 62
     0
 10
242.456
 20
36.6628
 30
0.0
 11
242.456
 21
37.6619
 31
0.0
  0
LINE
  8
0
 62
     0
 10
242.456
 20
37.6619
 30
0.0
 11
228.455
 21
37.6619
 31
0.0
  0
LINE
  8
0
 62
     0
 10
249.887
 20
37.6619
 30
0.0
 11
249.887
 21
36.6628
 31
0.0
  0
LINE
  8
0
 62
     0
 10
249.887
 20
36.6628
 30
0.0
 11
249.087
 21
36.6628
 31
0.0
  0
LINE
  8
0
 62
     0
 10
249.087
 20
36.6628
 30
0.0
 11
249.087
 21
33.5621
 31
0.0
  0
LINE
  8
0
 62
     0
 10
249.087
 20
33.5621
 30
0.0
 11
249.887
 21
33.5621
 31
0.0
  0
LINE
  8
0
 62
     0
 10
249.887
 20
33.5621
 30
0.0
 11
249.887
 21
27.7633
 31
0.0
  0
LINE
  8
0
 62
     0
 10
249.887
 20
27.7633
 30
0.0
 11
249.087
 21
27.7633
 31
0.0
  0
LINE
  8
0
 62
     0
 10
249.087
 20
27.7633
 30
0.0
 11
249.087
 21
24.6641
 31
0.0
  0
LINE
  8
0
 62
     0
 10
249.087
 20
24.6641
 30
0.0
 11
249.887
 21
24.6641
 31
0.0
  0
LINE
  8
0
 62
     0
 10
249.887
 20
24.6641
 30
0.0
 11
249.887
 21
23.6637
 31
0.0
  0
LINE
  8
0
 62
     0
 10
249.887
 20
23.6637
 30
0.0
 11
263.887
 21
23.6637
 31
0.0
  0
LINE
  8
0
 62
     0
 10
263.887
 20
23.6637
 30
0.0
 11
263.887
 21
24.6641
 31
0.0
  0
LINE
  8
0
 62
     0
 10
263.887
 20
24.6641
 30
0.0
 11
264.687
 21
24.6641
 31
0.0
  0
LINE
  8
0
 62
     0
 10
264.687
 20
24.6641
 30
0.0
 11
264.687
 21
27.7633
 31
0.0
  0
LINE
  8
0
 62
     0
 10
264.687
 20
27.7633
 30
0.0
 11
263.887
 21
27.7633
 31
0.0
  0
LINE
  8
0
 62
     0
 10
263.887
 20
27.7633
 30
0.0
 11
263.887
 21
33.5621
 31
0.0
  0
LINE
  8
0
 62
     0
 10
263.887
 20
33.5621
 30
0.0
 11
264.687
 21
33.5621
 31
0.0
  0
LINE
  8
0
 62
     0
 10
264.687
 20
33.5621
 30
0.0
 11
264.687
 21
36.6628
 31
0.0
  0
LINE
  8
0
 62
     0
 10
264.687
 20
36.6628
 30
0.0
 11
263.887
 21
36.6628
 31
0.0
  0
LINE
  8
0
 62
     0
 10
263.887
 20
36.6628
 30
0.0
 11
263.887
 21
37.6619
 31
0.0
  0
LINE
  8
0
 62
     0
 10
263.887
 20
37.6619
 30
0.0
 11
249.887
 21
37.6619
 31
0.0
  0
LINE
  8
0
 62
     0
 10
9.38029
 20
56.7118
 30
0.0
 11
9.38029
 21
55.7128
 31
0.0
  0
LINE
  8
0
 62
     0
 10
9.38029
 20
55.7128
 30
0.0
 11
8.58104
 21
55.7128
 31
0.0
  0
LINE
  8
0
 62
     0
 10
8.58104
 20
55.7128
 30
0.0
 11
8.58104
 21
52.6122
 31
0.0
  0
LINE
  8
0
 62
     0
 10
8.58104
 20
52.6122
 30
0.0
 11
9.38029
 21
52.6122
 31
0.0
  0
LINE
  8
0
 62
     0
 10
9.38029
 20
52.6122
 30
0.0
 11
9.38029
 21
46.8133
 31
0.0
  0
LINE
  8
0
 62
     0
 10
9.38029
 20
46.8133
 30
0.0
 11
8.58104
 21
46.8133
 31
0.0
  0
LINE
  8
0
 62
     0
 10
8.58104
 20
46.8133
 30
0.0
 11
8.58104
 21
43.7141
 31
0.0
  0
LINE
  8
0
 62
     0
 10
8.58104
 20
43.7141
 30
0.0
 11
9.38029
 21
43.7141
 31
0.0
  0
LINE
  8
0
 62
     0
 10
9.38029
 20
43.7141
 30
0.0
 11
9.38029
 21
42.7136
 31
0.0
  0
LINE
  8
0
 62
     0
 10
9.38029
 20
42.7136
 30
0.0
 11
23.3812
 21
42.7136
 31
0.0
  0
LINE
  8
0
 62
     0
 10
23.3812
 20
42.7136
 30
0.0
 11
23.3812
 21
43.7141
 31
0.0
  0
LINE
  8
0
 62
     0
 10
23.3812
 20
43.7141
 30
0.0
 11
24.1804
 21
43.7141
 31
0.0
  0
LINE
  8
0
 62
     0
 10
24.1804
 20
43.7141
 30
0.0
 11
24.1804
 21
46.8133
 31
0.0
  0
LINE
  8
0
 62
     0
 10
24.1804
 20
46.8133
 30
0.0
 11
23.3812
 21
46.8133
 31
0.0
  0
LINE
  8
0
 62
     0
 10
23.3812
 20
46.8133
 30
0.0
 11
23.3812
 21
52.6122
 31
0.0
  0
LINE
  8
0
 62
     0
 10
23.3812
 20
52.6122
 30
0.0
 11
24.1804
 21
52.6122
 31
0.0
  0
LINE
  8
0
 62
     0
 10
24.1804
 20
52.6122
 30
0.0
 11
24.1804
 21
55.7128
 31
0.0
  0
LINE
  8
0
 62
     0
 10
24.1804
 20
55.7128
 30
0.0
 11
23.3812
 21
55.7128
 31
0.0
  0
LINE
  8
0
 62
     0
 10
23.3812
 20
55.7128
 30
0.0
 11
23.3812
 21
56.7118
 31
0.0
  0
LINE
  8
0
 62
     0
 10
23.3812
 20
56.7118
 30
0.0
 11
9.38029
 21
56.7118
 31
0.0
  0
LINE
  8
0
 62
     0
 10
33.1942
 20
56.7118
 30
0.0
 11
33.1942
 21
55.7128
 31
0.0
  0
LINE
  8
0
 62
     0
 10
33.1942
 20
55.7128
 30
0.0
 11
32.3935
 21
55.7128
 31
0.0
  0
LINE
  8
0
 62
     0
 10
32.3935
 20
55.7128
 30
0.0
 11
32.3935
 21
52.6122
 31
0.0
  0
LINE
  8
0
 62
     0
 10
32.3935
 20
52.6122
 30
0.0
 11
33.1942
 21
52.6122
 31
0.0
  0
LINE
  8
0
 62
     0
 10
33.1942
 20
52.6122
 30
0.0
 11
33.1942
 21
46.8133
 31
0.0
  0
LINE
  8
0
 62
     0
 10
33.1942
 20
46.8133
 30
0.0
 11
32.3935
 21
46.8133
 31
0.0
  0
LINE
  8
0
 62
     0
 10
32.3935
 20
46.8133
 30
0.0
 11
32.3935
 21
43.7141
 31
0.0
  0
LINE
  8
0
 62
     0
 10
32.3935
 20
43.7141
 30
0.0
 11
33.1942
 21
43.7141
 31
0.0
  0
LINE
  8
0
 62
     0
 10
33.1942
 20
43.7141
 30
0.0
 11
33.1942
 21
42.7136
 31
0.0
  0
LINE
  8
0
 62
     0
 10
33.1942
 20
42.7136
 30
0.0
 11
47.1936
 21
42.7136
 31
0.0
  0
LINE
  8
0
 62
     0
 10
47.1936
 20
42.7136
 30
0.0
 11
47.1936
 21
43.7141
 31
0.0
  0
LINE
  8
0
 62
     0
 10
47.1936
 20
43.7141
 30
0.0
 11
47.9944
 21
43.7141
 31
0.0
  0
LINE
  8
0
 62
     0
 10
47.9944
 20
43.7141
 30
0.0
 11
47.9944
 21
46.8133
 31
0.0
  0
LINE
  8
0
 62
     0
 10
47.9944
 20
46.8133
 30
0.0
 11
47.1936
 21
46.8133
 31
0.0
  0
LINE
  8
0
 62
     0
 10
47.1936
 20
46.8133
 30
0.0
 11
47.1936
 21
52.6122
 31
0.0
  0
LINE
  8
0
 62
     0
 10
47.1936
 20
52.6122
 30
0.0
 11
47.9944
 21
52.6122
 31
0.0
  0
LINE
  8
0
 62
     0
 10
47.9944
 20
52.6122
 30
0.0
 11
47.9944
 21
55.7128
 31
0.0
  0
LINE
  8
0
 62
     0
 10
47.9944
 20
55.7128
 30
0.0
 11
47.1936
 21
55.7128
 31
0.0
  0
LINE
  8
0
 62
     0
 10
47.1936
 20
55.7128
 30
0.0
 11
47.1936
 21
56.7118
 31
0.0
  0
LINE
  8
0
 62
     0
 10
47.1936
 20
56.7118
 30
0.0
 11
33.1942
 21
56.7118
 31
0.0
  0
LINE
  8
0
 62
     0
 10
52.2443
 20
56.7118
 30
0.0
 11
52.2443
 21
55.7128
 31
0.0
  0
LINE
  8
0
 62
     0
 10
52.2443
 20
55.7128
 30
0.0
 11
51.4435
 21
55.7128
 31
0.0
  0
LINE
  8
0
 62
     0
 10
51.4435
 20
55.7128
 30
0.0
 11
51.4435
 21
52.6122
 31
0.0
  0
LINE
  8
0
 62
     0
 10
51.4435
 20
52.6122
 30
0.0
 11
52.2443
 21
52.6122
 31
0.0
  0
LINE
  8
0
 62
     0
 10
52.2443
 20
52.6122
 30
0.0
 11
52.2443
 21
46.8133
 31
0.0
  0
LINE
  8
0
 62
     0
 10
52.2443
 20
46.8133
 30
0.0
 11
51.4435
 21
46.8133
 31
0.0
  0
LINE
  8
0
 62
     0
 10
51.4435
 20
46.8133
 30
0.0
 11
51.4435
 21
43.7141
 31
0.0
  0
LINE
  8
0
 62
     0
 10
51.4435
 20
43.7141
 30
0.0
 11
52.2443
 21
43.7141
 31
0.0
  0
LINE
  8
0
 62
     0
 10
52.2443
 20
43.7141
 30
0.0
 11
52.2443
 21
42.7136
 31
0.0
  0
LINE
  8
0
 62
     0
 10
52.2443
 20
42.7136
 30
0.0
 11
66.2436
 21
42.7136
 31
0.0
  0
LINE
  8
0
 62
     0
 10
66.2436
 20
42.7136
 30
0.0
 11
66.2436
 21
43.7141
 31
0.0
  0
LINE
  8
0
 62
     0
 10
66.2436
 20
43.7141
 30
0.0
 11
67.0444
 21
43.7141
 31
0.0
  0
LINE
  8
0
 62
     0
 10
67.0444
 20
43.7141
 30
0.0
 11
67.0444
 21
46.8133
 31
0.0
  0
LINE
  8
0
 62
     0
 10
67.0444
 20
46.8133
 30
0.0
 11
66.2436
 21
46.8133
 31
0.0
  0
LINE
  8
0
 62
     0
 10
66.2436
 20
46.8133
 30
0.0
 11
66.2436
 21
52.6122
 31
0.0
  0
LINE
  8
0
 62
     0
 10
66.2436
 20
52.6122
 30
0.0
 11
67.0444
 21
52.6122
 31
0.0
  0
LINE
  8
0
 62
     0
 10
67.0444
 20
52.6122
 30
0.0
 11
67.0444
 21
55.7128
 31
0.0
  0
LINE
  8
0
 62
     0
 10
67.0444
 20
55.7128
 30
0.0
 11
66.2436
 21
55.7128
 31
0.0
  0
LINE
  8
0
 62
     0
 10
66.2436
 20
55.7128
 30
0.0
 11
66.2436
 21
56.7118
 31
0.0
  0
LINE
  8
0
 62
     0
 10
66.2436
 20
56.7118
 30
0.0
 11
52.2443
 21
56.7118
 31
0.0
  0
LINE
  8
0
 62
     0
 10
71.2943
 20
56.7118
 30
0.0
 11
71.2943
 21
55.7128
 31
0.0
  0
LINE
  8
0
 62
     0
 10
71.2943
 20
55.7128
 30
0.0
 11
70.4935
 21
55.7128
 31
0.0
  0
LINE
  8
0
 62
     0
 10
70.4935
 20
55.7128
 30
0.0
 11
70.4935
 21
52.6122
 31
0.0
  0
LINE
  8
0
 62
     0
 10
70.4935
 20
52.6122
 30
0.0
 11
71.2943
 21
52.6122
 31
0.0
  0
LINE
  8
0
 62
     0
 10
71.2943
 20
52.6122
 30
0.0
 11
71.2943
 21
46.8133
 31
0.0
  0
LINE
  8
0
 62
     0
 10
71.2943
 20
46.8133
 30
0.0
 11
70.4935
 21
46.8133
 31
0.0
  0
LINE
  8
0
 62
     0
 10
70.4935
 20
46.8133
 30
0.0
 11
70.4935
 21
43.7141
 31
0.0
  0
LINE
  8
0
 62
     0
 10
70.4935
 20
43.7141
 30
0.0
 11
71.2943
 21
43.7141
 31
0.0
  0
LINE
  8
0
 62
     0
 10
71.2943
 20
43.7141
 30
0.0
 11
71.2943
 21
42.7136
 31
0.0
  0
LINE
  8
0
 62
     0
 10
71.2943
 20
42.7136
 30
0.0
 11
85.2936
 21
42.7136
 31
0.0
  0
LINE
  8
0
 62
     0
 10
85.2936
 20
42.7136
 30
0.0
 11
85.2936
 21
43.7141
 31
0.0
  0
LINE
  8
0
 62
     0
 10
85.2936
 20
43.7141
 30
0.0
 11
86.0944
 21
43.7141
 31
0.0
  0
LINE
  8
0
 62
     0
 10
86.0944
 20
43.7141
 30
0.0
 11
86.0944
 21
46.8133
 31
0.0
  0
LINE
  8
0
 62
     0
 10
86.0944
 20
46.8133
 30
0.0
 11
85.2936
 21
46.8133
 31
0.0
  0
LINE
  8
0
 62
     0
 10
85.2936
 20
46.8133
 30
0.0
 11
85.2936
 21
52.6122
 31
0.0
  0
LINE
  8
0
 62
     0
 10
85.2936
 20
52.6122
 30
0.0
 11
86.0944
 21
52.6122
 31
0.0
  0
LINE
  8
0
 62
     0
 10
86.0944
 20
52.6122
 30
0.0
 11
86.0944
 21
55.7128
 31
0.0
  0
LINE
  8
0
 62
     0
 10
86.0944
 20
55.7128
 30
0.0
 11
85.2936
 21
55.7128
 31
0.0
  0
LINE
  8
0
 62
     0
 10
85.2936
 20
55.7128
 30
0.0
 11
85.2936
 21
56.7118
 31
0.0
  0
LINE
  8
0
 62
     0
 10
85.2936
 20
56.7118
 30
0.0
 11
71.2943
 21
56.7118
 31
0.0
  0
LINE
  8
0
 62
     0
 10
90.3443
 20
56.7118
 30
0.0
 11
90.3443
 21
55.7128
 31
0.0
  0
LINE
  8
0
 62
     0
 10
90.3443
 20
55.7128
 30
0.0
 11
89.5435
 21
55.7128
 31
0.0
  0
LINE
  8
0
 62
     0
 10
89.5435
 20
55.7128
 30
0.0
 11
89.5435
 21
52.6122
 31
0.0
  0
LINE
  8
0
 62
     0
 10
89.5435
 20
52.6122
 30
0.0
 11
90.3443
 21
52.6122
 31
0.0
  0
LINE
  8
0
 62
     0
 10
90.3443
 20
52.6122
 30
0.0
 11
90.3443
 21
46.8133
 31
0.0
  0
LINE
  8
0
 62
     0
 10
90.3443
 20
46.8133
 30
0.0
 11
89.5435
 21
46.8133
 31
0.0
  0
LINE
  8
0
 62
     0
 10
89.5435
 20
46.8133
 30
0.0
 11
89.5435
 21
43.7141
 31
0.0
  0
LINE
  8
0
 62
     0
 10
89.5435
 20
43.7141
 30
0.0
 11
90.3443
 21
43.7141
 31
0.0
  0
LINE
  8
0
 62
     0
 10
90.3443
 20
43.7141
 30
0.0
 11
90.3443
 21
42.7136
 31
0.0
  0
LINE
  8
0
 62
     0
 10
90.3443
 20
42.7136
 30
0.0
 11
104.344
 21
42.7136
 31
0.0
  0
LINE
  8
0
 62
     0
 10
104.344
 20
42.7136
 30
0.0
 11
104.344
 21
43.7141
 31
0.0
  0
LINE
  8
0
 62
     0
 10
104.344
 20
43.7141
 30
0.0
 11
105.144
 21
43.7141
 31
0.0
  0
LINE
  8
0
 62
     0
 10
105.144
 20
43.7141
 30
0.0
 11
105.144
 21
46.8133
 31
0.0
  0
LINE
  8
0
 62
     0
 10
105.144
 20
46.8133
 30
0.0
 11
104.344
 21
46.8133
 31
0.0
  0
LINE
  8
0
 62
     0
 10
104.344
 20
46.8133
 30
0.0
 11
104.344
 21
52.6122
 31
0.0
  0
LINE
  8
0
 62
     0
 10
104.344
 20
52.6122
 30
0.0
 11
105.144
 21
52.6122
 31
0.0
  0
LINE
  8
0
 62
     0
 10
105.144
 20
52.6122
 30
0.0
 11
105.144
 21
55.7128
 31
0.0
  0
LINE
  8
0
 62
     0
 10
105.144
 20
55.7128
 30
0.0
 11
104.344
 21
55.7128
 31
0.0
  0
LINE
  8
0
 62
     0
 10
104.344
 20
55.7128
 30
0.0
 11
104.344
 21
56.7118
 31
0.0
  0
LINE
  8
0
 62
     0
 10
104.344
 20
56.7118
 30
0.0
 11
90.3443
 21
56.7118
 31
0.0
  0
LINE
  8
0
 62
     0
 10
109.394
 20
56.7118
 30
0.0
 11
109.394
 21
55.7128
 31
0.0
  0
LINE
  8
0
 62
     0
 10
109.394
 20
55.7128
 30
0.0
 11
108.593
 21
55.7128
 31
0.0
  0
LINE
  8
0
 62
     0
 10
108.593
 20
55.7128
 30
0.0
 11
108.593
 21
52.6122
 31
0.0
  0
LINE
  8
0
 62
     0
 10
108.593
 20
52.6122
 30
0.0
 11
109.394
 21
52.6122
 31
0.0
  0
LINE
  8
0
 62
     0
 10
109.394
 20
52.6122
 30
0.0
 11
109.394
 21
46.8133
 31
0.0
  0
LINE
  8
0
 62
     0
 10
109.394
 20
46.8133
 30
0.0
 11
108.593
 21
46.8133
 31
0.0
  0
LINE
  8
0
 62
     0
 10
108.593
 20
46.8133
 30
0.0
 11
108.593
 21
43.7141
 31
0.0
  0
LINE
  8
0
 62
     0
 10
108.593
 20
43.7141
 30
0.0
 11
109.394
 21
43.7141
 31
0.0
  0
LINE
  8
0
 62
     0
 10
109.394
 20
43.7141
 30
0.0
 11
109.394
 21
42.7136
 31
0.0
  0
LINE
  8
0
 62
     0
 10
109.394
 20
42.7136
 30
0.0
 11
123.394
 21
42.7136
 31
0.0
  0
LINE
  8
0
 62
     0
 10
123.394
 20
42.7136
 30
0.0
 11
123.394
 21
43.7141
 31
0.0
  0
LINE
  8
0
 62
     0
 10
123.394
 20
43.7141
 30
0.0
 11
124.194
 21
43.7141
 31
0.0
  0
LINE
  8
0
 62
     0
 10
124.194
 20
43.7141
 30
0.0
 11
124.194
 21
46.8133
 31
0.0
  0
LINE
  8
0
 62
     0
 10
124.194
 20
46.8133
 30
0.0
 11
123.394
 21
46.8133
 31
0.0
  0
LINE
  8
0
 62
     0
 10
123.394
 20
46.8133
 30
0.0
 11
123.394
 21
52.6122
 31
0.0
  0
LINE
  8
0
 62
     0
 10
123.394
 20
52.6122
 30
0.0
 11
124.194
 21
52.6122
 31
0.0
  0
LINE
  8
0
 62
     0
 10
124.194
 20
52.6122
 30
0.0
 11
124.194
 21
55.7128
 31
0.0
  0
LINE
  8
0
 62
     0
 10
124.194
 20
55.7128
 30
0.0
 11
123.394
 21
55.7128
 31
0.0
  0
LINE
  8
0
 62
     0
 10
123.394
 20
55.7128
 30
0.0
 11
123.394
 21
56.7118
 31
0.0
  0
LINE
  8
0
 62
     0
 10
123.394
 20
56.7118
 30
0.0
 11
109.394
 21
56.7118
 31
0.0
  0
LINE
  8
0
 62
     0
 10
128.444
 20
56.7118
 30
0.0
 11
128.444
 21
55.7128
 31
0.0
  0
LINE
  8
0
 62
     0
 10
128.444
 20
55.7128
 30
0.0
 11
127.642
 21
55.7128
 31
0.0
  0
LINE
  8
0
 62
     0
 10
127.642
 20
55.7128
 30
0.0
 11
127.642
 21
52.6122
 31
0.0
  0
LINE
  8
0
 62
     0
 10
127.642
 20
52.6122
 30
0.0
 11
128.444
 21
52.6122
 31
0.0
  0
LINE
  8
0
 62
     0
 10
128.444
 20
52.6122
 30
0.0
 11
128.444
 21
46.8133
 31
0.0
  0
LINE
  8
0
 62
     0
 10
128.444
 20
46.8133
 30
0.0
 11
127.642
 21
46.8133
 31
0.0
  0
LINE
  8
0
 62
     0
 10
127.642
 20
46.8133
 30
0.0
 11
127.642
 21
43.7141
 31
0.0
  0
LINE
  8
0
 62
     0
 10
127.642
 20
43.7141
 30
0.0
 11
128.444
 21
43.7141
 31
0.0
  0
LINE
  8
0
 62
     0
 10
128.444
 20
43.7141
 30
0.0
 11
128.444
 21
42.7136
 31
0.0
  0
LINE
  8
0
 62
     0
 10
128.444
 20
42.7136
 30
0.0
 11
142.444
 21
42.7136
 31
0.0
  0
LINE
  8
0
 62
     0
 10
142.444
 20
42.7136
 30
0.0
 11
142.444
 21
43.7141
 31
0.0
  0
LINE
  8
0
 62
     0
 10
142.444
 20
43.7141
 30
0.0
 11
143.244
 21
43.7141
 31
0.0
  0
LINE
  8
0
 62
     0
 10
143.244
 20
43.7141
 30
0.0
 11
143.244
 21
46.8133
 31
0.0
  0
LINE
  8
0
 62
     0
 10
143.244
 20
46.8133
 30
0.0
 11
142.444
 21
46.8133
 31
0.0
  0
LINE
  8
0
 62
     0
 10
142.444
 20
46.8133
 30
0.0
 11
142.444
 21
52.6122
 31
0.0
  0
LINE
  8
0
 62
     0
 10
142.444
 20
52.6122
 30
0.0
 11
143.244
 21
52.6122
 31
0.0
  0
LINE
  8
0
 62
     0
 10
143.244
 20
52.6122
 30
0.0
 11
143.244
 21
55.7128
 31
0.0
  0
LINE
  8
0
 62
     0
 10
143.244
 20
55.7128
 30
0.0
 11
142.444
 21
55.7128
 31
0.0
  0
LINE
  8
0
 62
     0
 10
142.444
 20
55.7128
 30
0.0
 11
142.444
 21
56.7118
 31
0.0
  0
LINE
  8
0
 62
     0
 10
142.444
 20
56.7118
 30
0.0
 11
128.444
 21
56.7118
 31
0.0
  0
LINE
  8
0
 62
     0
 10
147.494
 20
56.7118
 30
0.0
 11
147.494
 21
55.7128
 31
0.0
  0
LINE
  8
0
 62
     0
 10
147.494
 20
55.7128
 30
0.0
 11
146.693
 21
55.7128
 31
0.0
  0
LINE
  8
0
 62
     0
 10
146.693
 20
55.7128
 30
0.0
 11
146.693
 21
52.6122
 31
0.0
  0
LINE
  8
0
 62
     0
 10
146.693
 20
52.6122
 30
0.0
 11
147.494
 21
52.6122
 31
0.0
  0
LINE
  8
0
 62
     0
 10
147.494
 20
52.6122
 30
0.0
 11
147.494
 21
46.8133
 31
0.0
  0
LINE
  8
0
 62
     0
 10
147.494
 20
46.8133
 30
0.0
 11
146.693
 21
46.8133
 31
0.0
  0
LINE
  8
0
 62
     0
 10
146.693
 20
46.8133
 30
0.0
 11
146.693
 21
43.7141
 31
0.0
  0
LINE
  8
0
 62
     0
 10
146.693
 20
43.7141
 30
0.0
 11
147.494
 21
43.7141
 31
0.0
  0
LINE
  8
0
 62
     0
 10
147.494
 20
43.7141
 30
0.0
 11
147.494
 21
42.7136
 31
0.0
  0
LINE
  8
0
 62
     0
 10
147.494
 20
42.7136
 30
0.0
 11
161.494
 21
42.7136
 31
0.0
  0
LINE
  8
0
 62
     0
 10
161.494
 20
42.7136
 30
0.0
 11
161.494
 21
43.7141
 31
0.0
  0
LINE
  8
0
 62
     0
 10
161.494
 20
43.7141
 30
0.0
 11
162.294
 21
43.7141
 31
0.0
  0
LINE
  8
0
 62
     0
 10
162.294
 20
43.7141
 30
0.0
 11
162.294
 21
46.8133
 31
0.0
  0
LINE
  8
0
 62
     0
 10
162.294
 20
46.8133
 30
0.0
 11
161.494
 21
46.8133
 31
0.0
  0
LINE
  8
0
 62
     0
 10
161.494
 20
46.8133
 30
0.0
 11
161.494
 21
52.6122
 31
0.0
  0
LINE
  8
0
 62
     0
 10
161.494
 20
52.6122
 30
0.0
 11
162.294
 21
52.6122
 31
0.0
  0
LINE
  8
0
 62
     0
 10
162.294
 20
52.6122
 30
0.0
 11
162.294
 21
55.7128
 31
0.0
  0
LINE
  8
0
 62
     0
 10
162.294
 20
55.7128
 30
0.0
 11
161.494
 21
55.7128
 31
0.0
  0
LINE
  8
0
 62
     0
 10
161.494
 20
55.7128
 30
0.0
 11
161.494
 21
56.7118
 31
0.0
  0
LINE
  8
0
 62
     0
 10
161.494
 20
56.7118
 30
0.0
 11
147.494
 21
56.7118
 31
0.0
  0
LINE
  8
0
 62
     0
 10
166.544
 20
56.7118
 30
0.0
 11
166.544
 21
55.7128
 31
0.0
  0
LINE
  8
0
 62
     0
 10
166.544
 20
55.7128
 30
0.0
 11
165.743
 21
55.7128
 31
0.0
  0
LINE
  8
0
 62
     0
 10
165.743
 20
55.7128
 30
0.0
 11
165.743
 21
52.6122
 31
0.0
  0
LINE
  8
0
 62
     0
 10
165.743
 20
52.6122
 30
0.0
 11
166.544
 21
52.6122
 31
0.0
  0
LINE
  8
0
 62
     0
 10
166.544
 20
52.6122
 30
0.0
 11
166.544
 21
46.8133
 31
0.0
  0
LINE
  8
0
 62
     0
 10
166.544
 20
46.8133
 30
0.0
 11
165.743
 21
46.8133
 31
0.0
  0
LINE
  8
0
 62
     0
 10
165.743
 20
46.8133
 30
0.0
 11
165.743
 21
43.7141
 31
0.0
  0
LINE
  8
0
 62
     0
 10
165.743
 20
43.7141
 30
0.0
 11
166.544
 21
43.7141
 31
0.0
  0
LINE
  8
0
 62
     0
 10
166.544
 20
43.7141
 30
0.0
 11
166.544
 21
42.7136
 31
0.0
  0
LINE
  8
0
 62
     0
 10
166.544
 20
42.7136
 30
0.0
 11
180.544
 21
42.7136
 31
0.0
  0
LINE
  8
0
 62
     0
 10
180.544
 20
42.7136
 30
0.0
 11
180.544
 21
43.7141
 31
0.0
  0
LINE
  8
0
 62
     0
 10
180.544
 20
43.7141
 30
0.0
 11
181.344
 21
43.7141
 31
0.0
  0
LINE
  8
0
 62
     0
 10
181.344
 20
43.7141
 30
0.0
 11
181.344
 21
46.8133
 31
0.0
  0
LINE
  8
0
 62
     0
 10
181.344
 20
46.8133
 30
0.0
 11
180.544
 21
46.8133
 31
0.0
  0
LINE
  8
0
 62
     0
 10
180.544
 20
46.8133
 30
0.0
 11
180.544
 21
52.6122
 31
0.0
  0
LINE
  8
0
 62
     0
 10
180.544
 20
52.6122
 30
0.0
 11
181.344
 21
52.6122
 31
0.0
  0
LINE
  8
0
 62
     0
 10
181.344
 20
52.6122
 30
0.0
 11
181.344
 21
55.7128
 31
0.0
  0
LINE
  8
0
 62
     0
 10
181.344
 20
55.7128
 30
0.0
 11
180.544
 21
55.7128
 31
0.0
  0
LINE
  8
0
 62
     0
 10
180.544
 20
55.7128
 30
0.0
 11
180.544
 21
56.7118
 31
0.0
  0
LINE
  8
0
 62
     0
 10
180.544
 20
56.7118
 30
0.0
 11
166.544
 21
56.7118
 31
0.0
  0
LINE
  8
0
 62
     0
 10
185.594
 20
56.7118
 30
0.0
 11
185.594
 21
55.7128
 31
0.0
  0
LINE
  8
0
 62
     0
 10
185.594
 20
55.7128
 30
0.0
 11
184.793
 21
55.7128
 31
0.0
  0
LINE
  8
0
 62
     0
 10
184.793
 20
55.7128
 30
0.0
 11
184.793
 21
52.6122
 31
0.0
  0
LINE
  8
0
 62
     0
 10
184.793
 20
52.6122
 30
0.0
 11
185.594
 21
52.6122
 31
0.0
  0
LINE
  8
0
 62
     0
 10
185.594
 20
52.6122
 30
0.0
 11
185.594
 21
46.8133
 31
0.0
  0
LINE
  8
0
 62
     0
 10
185.594
 20
46.8133
 30
0.0
 11
184.793
 21
46.8133
 31
0.0
  0
LINE
  8
0
 62
     0
 10
184.793
 20
46.8133
 30
0.0
 11
184.793
 21
43.7141
 31
0.0
  0
LINE
  8
0
 62
     0
 10
184.793
 20
43.7141
 30
0.0
 11
185.594
 21
43.7141
 31
0.0
  0
LINE
  8
0
 62
     0
 10
185.594
 20
43.7141
 30
0.0
 11
185.594
 21
42.7136
 31
0.0
  0
LINE
  8
0
 62
     0
 10
185.594
 20
42.7136
 30
0.0
 11
199.594
 21
42.7136
 31
0.0
  0
LINE
  8
0
 62
     0
 10
199.594
 20
42.7136
 30
0.0
 11
199.594
 21
43.7141
 31
0.0
  0
LINE
  8
0
 62
     0
 10
199.594
 20
43.7141
 30
0.0
 11
200.394
 21
43.7141
 31
0.0
  0
LINE
  8
0
 62
     0
 10
200.394
 20
43.7141
 30
0.0
 11
200.394
 21
46.8133
 31
0.0
  0
LINE
  8
0
 62
     0
 10
200.394
 20
46.8133
 30
0.0
 11
199.594
 21
46.8133
 31
0.0
  0
LINE
  8
0
 62
     0
 10
199.594
 20
46.8133
 30
0.0
 11
199.594
 21
52.6122
 31
0.0
  0
LINE
  8
0
 62
     0
 10
199.594
 20
52.6122
 30
0.0
 11
200.394
 21
52.6122
 31
0.0
  0
LINE
  8
0
 62
     0
 10
200.394
 20
52.6122
 30
0.0
 11
200.394
 21
55.7128
 31
0.0
  0
LINE
  8
0
 62
     0
 10
200.394
 20
55.7128
 30
0.0
 11
199.594
 21
55.7128
 31
0.0
  0
LINE
  8
0
 62
     0
 10
199.594
 20
55.7128
 30
0.0
 11
199.594
 21
56.7118
 31
0.0
  0
LINE
  8
0
 62
     0
 10
199.594
 20
56.7118
 30
0.0
 11
185.594
 21
56.7118
 31
0.0
  0
LINE
  8
0
 62
     0
 10
204.644
 20
56.7118
 30
0.0
 11
204.644
 21
55.7128
 31
0.0
  0
LINE
  8
0
 62
     0
 10
204.644
 20
55.7128
 30
0.0
 11
203.843
 21
55.7128
 31
0.0
  0
LINE
  8
0
 62
     0
 10
203.843
 20
55.7128
 30
0.0
 11
203.843
 21
52.6122
 31
0.0
  0
LINE
  8
0
 62
     0
 10
203.843
 20
52.6122
 30
0.0
 11
204.644
 21
52.6122
 31
0.0
  0
LINE
  8
0
 62
     0
 10
204.644
 20
52.6122
 30
0.0
 11
204.644
 21
46.8133
 31
0.0
  0
LINE
  8
0
 62
     0
 10
204.644
 20
46.8133
 30
0.0
 11
203.843
 21
46.8133
 31
0.0
  0
LINE
  8
0
 62
     0
 10
203.843
 20
46.8133
 30
0.0
 11
203.843
 21
43.7141
 31
0.0
  0
LINE
  8
0
 62
     0
 10
203.843
 20
43.7141
 30
0.0
 11
204.644
 21
43.7141
 31
0.0
  0
LINE
  8
0
 62
     0
 10
204.644
 20
43.7141
 30
0.0
 11
204.644
 21
42.7136
 31
0.0
  0
LINE
  8
0
 62
     0
 10
204.644
 20
42.7136
 30
0.0
 11
218.644
 21
42.7136
 31
0.0
  0
LINE
  8
0
 62
     0
 10
218.644
 20
42.7136
 30
0.0
 11
218.644
 21
43.7141
 31
0.0
  0
LINE
  8
0
 62
     0
 10
218.644
 20
43.7141
 30
0.0
 11
219.444
 21
43.7141
 31
0.0
  0
LINE
  8
0
 62
     0
 10
219.444
 20
43.7141
 30
0.0
 11
219.444
 21
46.8133
 31
0.0
  0
LINE
  8
0
 62
     0
 10
219.444
 20
46.8133
 30
0.0
 11
218.644
 21
46.8133
 31
0.0
  0
LINE
  8
0
 62
     0
 10
218.644
 20
46.8133
 30
0.0
 11
218.644
 21
52.6122
 31
0.0
  0
LINE
  8
0
 62
     0
 10
218.644
 20
52.6122
 30
0.0
 11
219.444
 21
52.6122
 31
0.0
  0
LINE
  8
0
 62
     0
 10
219.444
 20
52.6122
 30
0.0
 11
219.444
 21
55.7128
 31
0.0
  0
LINE
  8
0
 62
     0
 10
219.444
 20
55.7128
 30
0.0
 11
218.644
 21
55.7128
 31
0.0
  0
LINE
  8
0
 62
     0
 10
218.644
 20
55.7128
 30
0.0
 11
218.644
 21
56.7118
 31
0.0
  0
LINE
  8
0
 62
     0
 10
218.644
 20
56.7118
 30
0.0
 11
204.644
 21
56.7118
 31
0.0
  0
LINE
  8
0
 62
     0
 10
223.694
 20
56.7118
 30
0.0
 11
223.694
 21
55.7128
 31
0.0
  0
LINE
  8
0
 62
     0
 10
223.694
 20
55.7128
 30
0.0
 11
222.893
 21
55.7128
 31
0.0
  0
LINE
  8
0
 62
     0
 10
222.893
 20
55.7128
 30
0.0
 11
222.893
 21
52.6122
 31
0.0
  0
LINE
  8
0
 62
     0
 10
222.893
 20
52.6122
 30
0.0
 11
223.694
 21
52.6122
 31
0.0
  0
LINE
  8
0
 62
     0
 10
223.694
 20
52.6122
 30
0.0
 11
223.694
 21
46.8133
 31
0.0
  0
LINE
  8
0
 62
     0
 10
223.694
 20
46.8133
 30
0.0
 11
222.893
 21
46.8133
 31
0.0
  0
LINE
  8
0
 62
     0
 10
222.893
 20
46.8133
 30
0.0
 11
222.893
 21
43.7141
 31
0.0
  0
LINE
  8
0
 62
     0
 10
222.893
 20
43.7141
 30
0.0
 11
223.694
 21
43.7141
 31
0.0
  0
LINE
  8
0
 62
     0
 10
223.694
 20
43.7141
 30
0.0
 11
223.694
 21
42.7136
 31
0.0
  0
LINE
  8
0
 62
     0
 10
223.694
 20
42.7136
 30
0.0
 11
237.694
 21
42.7136
 31
0.0
  0
LINE
  8
0
 62
     0
 10
237.694
 20
42.7136
 30
0.0
 11
237.694
 21
43.7141
 31
0.0
  0
LINE
  8
0
 62
     0
 10
237.694
 20
43.7141
 30
0.0
 11
238.494
 21
43.7141
 31
0.0
  0
LINE
  8
0
 62
     0
 10
238.494
 20
43.7141
 30
0.0
 11
238.494
 21
46.8133
 31
0.0
  0
LINE
  8
0
 62
     0
 10
238.494
 20
46.8133
 30
0.0
 11
237.694
 21
46.8133
 31
0.0
  0
LINE
  8
0
 62
     0
 10
237.694
 20
46.8133
 30
0.0
 11
237.694
 21
52.6122
 31
0.0
  0
LINE
  8
0
 62
     0
 10
237.694
 20
52.6122
 30
0.0
 11
238.494
 21
52.6122
 31
0.0
  0
LINE
  8
0
 62
     0
 10
238.494
 20
52.6122
 30
0.0
 11
238.494
 21
55.7128
 31
0.0
  0
LINE
  8
0
 62
     0
 10
238.494
 20
55.7128
 30
0.0
 11
237.694
 21
55.7128
 31
0.0
  0
LINE
  8
0
 62
     0
 10
237.694
 20
55.7128
 30
0.0
 11
237.694
 21
56.7118
 31
0.0
  0
LINE
  8
0
 62
     0
 10
237.694
 20
56.7118
 30
0.0
 11
223.694
 21
56.7118
 31
0.0
  0
LINE
  8
0
 62
     0
 10
247.505
 20
56.7118
 30
0.0
 11
247.505
 21
55.7128
 31
0.0
  0
LINE
  8
0
 62
     0
 10
247.505
 20
55.7128
 30
0.0
 11
246.706
 21
55.7128
 31
0.0
  0
LINE
  8
0
 62
     0
 10
246.706
 20
55.7128
 30
0.0
 11
246.706
 21
52.6122
 31
0.0
  0
LINE
  8
0
 62
     0
 10
246.706
 20
52.6122
 30
0.0
 11
247.505
 21
52.6122
 31
0.0
  0
LINE
  8
0
 62
     0
 10
247.505
 20
52.6122
 30
0.0
 11
247.505
 21
46.8133
 31
0.0
  0
LINE
  8
0
 62
     0
 10
247.505
 20
46.8133
 30
0.0
 11
246.706
 21
46.8133
 31
0.0
  0
LINE
  8
0
 62
     0
 10
246.706
 20
46.8133
 30
0.0
 11
246.706
 21
43.7141
 31
0.0
  0
LINE
  8
0
 62
     0
 10
246.706
 20
43.7141
 30
0.0
 11
247.505
 21
43.7141
 31
0.0
  0
LINE
  8
0
 62
     0
 10
247.505
 20
43.7141
 30
0.0
 11
247.505
 21
42.7136
 31
0.0
  0
LINE
  8
0
 62
     0
 10
247.505
 20
42.7136
 30
0.0
 11
261.506
 21
42.7136
 31
0.0
  0
LINE
  8
0
 62
     0
 10
261.506
 20
42.7136
 30
0.0
 11
261.506
 21
43.7141
 31
0.0
  0
LINE
  8
0
 62
     0
 10
261.506
 20
43.7141
 30
0.0
 11
262.305
 21
43.7141
 31
0.0
  0
LINE
  8
0
 62
     0
 10
262.305
 20
43.7141
 30
0.0
 11
262.305
 21
46.8133
 31
0.0
  0
LINE
  8
0
 62
     0
 10
262.305
 20
46.8133
 30
0.0
 11
261.506
 21
46.8133
 31
0.0
  0
LINE
  8
0
 62
     0
 10
261.506
 20
46.8133
 30
0.0
 11
261.506
 21
52.6122
 31
0.0
  0
LINE
  8
0
 62
     0
 10
261.506
 20
52.6122
 30
0.0
 11
262.305
 21
52.6122
 31
0.0
  0
LINE
  8
0
 62
     0
 10
262.305
 20
52.6122
 30
0.0
 11
262.305
 21
55.7128
 31
0.0
  0
LINE
  8
0
 62
     0
 10
262.305
 20
55.7128
 30
0.0
 11
261.506
 21
55.7128
 31
0.0
  0
LINE
  8
0
 62
     0
 10
261.506
 20
55.7128
 30
0.0
 11
261.506
 21
56.7118
 31
0.0
  0
LINE
  8
0
 62
     0
 10
261.506
 20
56.7118
 30
0.0
 11
247.505
 21
56.7118
 31
0.0
  0
LINE
  8
0
 62
     0
 10
7.00045
 20
75.7618
 30
0.0
 11
7.00045
 21
74.7628
 31
0.0
  0
LINE
  8
0
 62
     0
 10
7.00045
 20
74.7628
 30
0.0
 11
6.19979
 21
74.7628
 31
0.0
  0
LINE
  8
0
 62
     0
 10
6.19979
 20
74.7628
 30
0.0
 11
6.19979
 21
71.6622
 31
0.0
  0
LINE
  8
0
 62
     0
 10
6.19979
 20
71.6622
 30
0.0
 11
7.00045
 21
71.6622
 31
0.0
  0
LINE
  8
0
 62
     0
 10
7.00045
 20
71.6622
 30
0.0
 11
7.00045
 21
65.8633
 31
0.0
  0
LINE
  8
0
 62
     0
 10
7.00045
 20
65.8633
 30
0.0
 11
6.19979
 21
65.8633
 31
0.0
  0
LINE
  8
0
 62
     0
 10
6.19979
 20
65.8633
 30
0.0
 11
6.19979
 21
62.7641
 31
0.0
  0
LINE
  8
0
 62
     0
 10
6.19979
 20
62.7641
 30
0.0
 11
7.00045
 21
62.7641
 31
0.0
  0
LINE
  8
0
 62
     0
 10
7.00045
 20
62.7641
 30
0.0
 11
7.00045
 21
61.7636
 31
0.0
  0
LINE
  8
0
 62
     0
 10
7.00045
 20
61.7636
 30
0.0
 11
20.9999
 21
61.7636
 31
0.0
  0
LINE
  8
0
 62
     0
 10
20.9999
 20
61.7636
 30
0.0
 11
20.9999
 21
62.7641
 31
0.0
  0
LINE
  8
0
 62
     0
 10
20.9999
 20
62.7641
 30
0.0
 11
21.7992
 21
62.7641
 31
0.0
  0
LINE
  8
0
 62
     0
 10
21.7992
 20
62.7641
 30
0.0
 11
21.7992
 21
65.8633
 31
0.0
  0
LINE
  8
0
 62
     0
 10
21.7992
 20
65.8633
 30
0.0
 11
20.9999
 21
65.8633
 31
0.0
  0
LINE
  8
0
 62
     0
 10
20.9999
 20
65.8633
 30
0.0
 11
20.9999
 21
71.6622
 31
0.0
  0
LINE
  8
0
 62
     0
 10
20.9999
 20
71.6622
 30
0.0
 11
21.7992
 21
71.6622
 31
0.0
  0
LINE
  8
0
 62
     0
 10
21.7992
 20
71.6622
 30
0.0
 11
21.7992
 21
74.7628
 31
0.0
  0
LINE
  8
0
 62
     0
 10
21.7992
 20
74.7628
 30
0.0
 11
20.9999
 21
74.7628
 31
0.0
  0
LINE
  8
0
 62
     0
 10
20.9999
 20
74.7628
 30
0.0
 11
20.9999
 21
75.7618
 31
0.0
  0
LINE
  8
0
 62
     0
 10
20.9999
 20
75.7618
 30
0.0
 11
7.00045
 21
75.7618
 31
0.0
  0
LINE
  8
0
 62
     0
 10
28.4303
 20
75.7618
 30
0.0
 11
28.4303
 21
74.7628
 31
0.0
  0
LINE
  8
0
 62
     0
 10
28.4303
 20
74.7628
 30
0.0
 11
27.631
 21
74.7628
 31
0.0
  0
LINE
  8
0
 62
     0
 10
27.631
 20
74.7628
 30
0.0
 11
27.631
 21
71.6622
 31
0.0
  0
LINE
  8
0
 62
     0
 10
27.631
 20
71.6622
 30
0.0
 11
28.4303
 21
71.6622
 31
0.0
  0
LINE
  8
0
 62
     0
 10
28.4303
 20
71.6622
 30
0.0
 11
28.4303
 21
65.8633
 31
0.0
  0
LINE
  8
0
 62
     0
 10
28.4303
 20
65.8633
 30
0.0
 11
27.631
 21
65.8633
 31
0.0
  0
LINE
  8
0
 62
     0
 10
27.631
 20
65.8633
 30
0.0
 11
27.631
 21
62.7641
 31
0.0
  0
LINE
  8
0
 62
     0
 10
27.631
 20
62.7641
 30
0.0
 11
28.4303
 21
62.7641
 31
0.0
  0
LINE
  8
0
 62
     0
 10
28.4303
 20
62.7641
 30
0.0
 11
28.4303
 21
61.7636
 31
0.0
  0
LINE
  8
0
 62
     0
 10
28.4303
 20
61.7636
 30
0.0
 11
42.4311
 21
61.7636
 31
0.0
  0
LINE
  8
0
 62
     0
 10
42.4311
 20
61.7636
 30
0.0
 11
42.4311
 21
62.7641
 31
0.0
  0
LINE
  8
0
 62
     0
 10
42.4311
 20
62.7641
 30
0.0
 11
43.2304
 21
62.7641
 31
0.0
  0
LINE
  8
0
 62
     0
 10
43.2304
 20
62.7641
 30
0.0
 11
43.2304
 21
65.8633
 31
0.0
  0
LINE
  8
0
 62
     0
 10
43.2304
 20
65.8633
 30
0.0
 11
42.4311
 21
65.8633
 31
0.0
  0
LINE
  8
0
 62
     0
 10
42.4311
 20
65.8633
 30
0.0
 11
42.4311
 21
71.6622
 31
0.0
  0
LINE
  8
0
 62
     0
 10
42.4311
 20
71.6622
 30
0.0
 11
43.2304
 21
71.6622
 31
0.0
  0
LINE
  8
0
 62
     0
 10
43.2304
 20
71.6622
 30
0.0
 11
43.2304
 21
74.7628
 31
0.0
  0
LINE
  8
0
 62
     0
 10
43.2304
 20
74.7628
 30
0.0
 11
42.4311
 21
74.7628
 31
0.0
  0
LINE
  8
0
 62
     0
 10
42.4311
 20
74.7628
 30
0.0
 11
42.4311
 21
75.7618
 31
0.0
  0
LINE
  8
0
 62
     0
 10
42.4311
 20
75.7618
 30
0.0
 11
28.4303
 21
75.7618
 31
0.0
  0
LINE
  8
0
 62
     0
 10
47.4804
 20
75.7618
 30
0.0
 11
47.4804
 21
74.7628
 31
0.0
  0
LINE
  8
0
 62
     0
 10
47.4804
 20
74.7628
 30
0.0
 11
46.681
 21
74.7628
 31
0.0
  0
LINE
  8
0
 62
     0
 10
46.681
 20
74.7628
 30
0.0
 11
46.681
 21
71.6622
 31
0.0
  0
LINE
  8
0
 62
     0
 10
46.681
 20
71.6622
 30
0.0
 11
47.4804
 21
71.6622
 31
0.0
  0
LINE
  8
0
 62
     0
 10
47.4804
 20
71.6622
 30
0.0
 11
47.4804
 21
65.8633
 31
0.0
  0
LINE
  8
0
 62
     0
 10
47.4804
 20
65.8633
 30
0.0
 11
46.681
 21
65.8633
 31
0.0
  0
LINE
  8
0
 62
     0
 10
46.681
 20
65.8633
 30
0.0
 11
46.681
 21
62.7641
 31
0.0
  0
LINE
  8
0
 62
     0
 10
46.681
 20
62.7641
 30
0.0
 11
47.4804
 21
62.7641
 31
0.0
  0
LINE
  8
0
 62
     0
 10
47.4804
 20
62.7641
 30
0.0
 11
47.4804
 21
61.7636
 31
0.0
  0
LINE
  8
0
 62
     0
 10
47.4804
 20
61.7636
 30
0.0
 11
61.4811
 21
61.7636
 31
0.0
  0
LINE
  8
0
 62
     0
 10
61.4811
 20
61.7636
 30
0.0
 11
61.4811
 21
62.7641
 31
0.0
  0
LINE
  8
0
 62
     0
 10
61.4811
 20
62.7641
 30
0.0
 11
62.2804
 21
62.7641
 31
0.0
  0
LINE
  8
0
 62
     0
 10
62.2804
 20
62.7641
 30
0.0
 11
62.2804
 21
65.8633
 31
0.0
  0
LINE
  8
0
 62
     0
 10
62.2804
 20
65.8633
 30
0.0
 11
61.4811
 21
65.8633
 31
0.0
  0
LINE
  8
0
 62
     0
 10
61.4811
 20
65.8633
 30
0.0
 11
61.4811
 21
71.6622
 31
0.0
  0
LINE
  8
0
 62
     0
 10
61.4811
 20
71.6622
 30
0.0
 11
62.2804
 21
71.6622
 31
0.0
  0
LINE
  8
0
 62
     0
 10
62.2804
 20
71.6622
 30
0.0
 11
62.2804
 21
74.7628
 31
0.0
  0
LINE
  8
0
 62
     0
 10
62.2804
 20
74.7628
 30
0.0
 11
61.4811
 21
74.7628
 31
0.0
  0
LINE
  8
0
 62
     0
 10
61.4811
 20
74.7628
 30
0.0
 11
61.4811
 21
75.7618
 31
0.0
  0
LINE
  8
0
 62
     0
 10
61.4811
 20
75.7618
 30
0.0
 11
47.4804
 21
75.7618
 31
0.0
  0
LINE
  8
0
 62
     0
 10
66.5304
 20
75.7618
 30
0.0
 11
66.5304
 21
74.7628
 31
0.0
  0
LINE
  8
0
 62
     0
 10
66.5304
 20
74.7628
 30
0.0
 11
65.731
 21
74.7628
 31
0.0
  0
LINE
  8
0
 62
     0
 10
65.731
 20
74.7628
 30
0.0
 11
65.731
 21
71.6622
 31
0.0
  0
LINE
  8
0
 62
     0
 10
65.731
 20
71.6622
 30
0.0
 11
66.5304
 21
71.6622
 31
0.0
  0
LINE
  8
0
 62
     0
 10
66.5304
 20
71.6622
 30
0.0
 11
66.5304
 21
65.8633
 31
0.0
  0
LINE
  8
0
 62
     0
 10
66.5304
 20
65.8633
 30
0.0
 11
65.731
 21
65.8633
 31
0.0
  0
LINE
  8
0
 62
     0
 10
65.731
 20
65.8633
 30
0.0
 11
65.731
 21
62.7641
 31
0.0
  0
LINE
  8
0
 62
     0
 10
65.731
 20
62.7641
 30
0.0
 11
66.5304
 21
62.7641
 31
0.0
  0
LINE
  8
0
 62
     0
 10
66.5304
 20
62.7641
 30
0.0
 11
66.5304
 21
61.7636
 31
0.0
  0
LINE
  8
0
 62
     0
 10
66.5304
 20
61.7636
 30
0.0
 11
80.5311
 21
61.7636
 31
0.0
  0
LINE
  8
0
 62
     0
 10
80.5311
 20
61.7636
 30
0.0
 11
80.5311
 21
62.7641
 31
0.0
  0
LINE
  8
0
 62
     0
 10
80.5311
 20
62.7641
 30
0.0
 11
81.3304
 21
62.7641
 31
0.0
  0
LINE
  8
0
 62
     0
 10
81.3304
 20
62.7641
 30
0.0
 11
81.3304
 21
65.8633
 31
0.0
  0
LINE
  8
0
 62
     0
 10
81.3304
 20
65.8633
 30
0.0
 11
80.5311
 21
65.8633
 31
0.0
  0
LINE
  8
0
 62
     0
 10
80.5311
 20
65.8633
 30
0.0
 11
80.5311
 21
71.6622
 31
0.0
  0
LINE
  8
0
 62
     0
 10
80.5311
 20
71.6622
 30
0.0
 11
81.3304
 21
71.6622
 31
0.0
  0
LINE
  8
0
 62
     0
 10
81.3304
 20
71.6622
 30
0.0
 11
81.3304
 21
74.7628
 31
0.0
  0
LINE
  8
0
 62
     0
 10
81.3304
 20
74.7628
 30
0.0
 11
80.5311
 21
74.7628
 31
0.0
  0
LINE
  8
0
 62
     0
 10
80.5311
 20
74.7628
 30
0.0
 11
80.5311
 21
75.7618
 31
0.0
  0
LINE
  8
0
 62
     0
 10
80.5311
 20
75.7618
 30
0.0
 11
66.5304
 21
75.7618
 31
0.0
  0
LINE
  8
0
 62
     0
 10
85.5804
 20
75.7618
 30
0.0
 11
85.5804
 21
74.7628
 31
0.0
  0
LINE
  8
0
 62
     0
 10
85.5804
 20
74.7628
 30
0.0
 11
84.781
 21
74.7628
 31
0.0
  0
LINE
  8
0
 62
     0
 10
84.781
 20
74.7628
 30
0.0
 11
84.781
 21
71.6622
 31
0.0
  0
LINE
  8
0
 62
     0
 10
84.781
 20
71.6622
 30
0.0
 11
85.5804
 21
71.6622
 31
0.0
  0
LINE
  8
0
 62
     0
 10
85.5804
 20
71.6622
 30
0.0
 11
85.5804
 21
65.8633
 31
0.0
  0
LINE
  8
0
 62
     0
 10
85.5804
 20
65.8633
 30
0.0
 11
84.781
 21
65.8633
 31
0.0
  0
LINE
  8
0
 62
     0
 10
84.781
 20
65.8633
 30
0.0
 11
84.781
 21
62.7641
 31
0.0
  0
LINE
  8
0
 62
     0
 10
84.781
 20
62.7641
 30
0.0
 11
85.5804
 21
62.7641
 31
0.0
  0
LINE
  8
0
 62
     0
 10
85.5804
 20
62.7641
 30
0.0
 11
85.5804
 21
61.7636
 31
0.0
  0
LINE
  8
0
 62
     0
 10
85.5804
 20
61.7636
 30
0.0
 11
99.5811
 21
61.7636
 31
0.0
  0
LINE
  8
0
 62
     0
 10
99.5811
 20
61.7636
 30
0.0
 11
99.5811
 21
62.7641
 31
0.0
  0
LINE
  8
0
 62
     0
 10
99.5811
 20
62.7641
 30
0.0
 11
100.38
 21
62.7641
 31
0.0
  0
LINE
  8
0
 62
     0
 10
100.38
 20
62.7641
 30
0.0
 11
100.38
 21
65.8633
 31
0.0
  0
LINE
  8
0
 62
     0
 10
100.38
 20
65.8633
 30
0.0
 11
99.5811
 21
65.8633
 31
0.0
  0
LINE
  8
0
 62
     0
 10
99.5811
 20
65.8633
 30
0.0
 11
99.5811
 21
71.6622
 31
0.0
  0
LINE
  8
0
 62
     0
 10
99.5811
 20
71.6622
 30
0.0
 11
100.38
 21
71.6622
 31
0.0
  0
LINE
  8
0
 62
     0
 10
100.38
 20
71.6622
 30
0.0
 11
100.38
 21
74.7628
 31
0.0
  0
LINE
  8
0
 62
     0
 10
100.38
 20
74.7628
 30
0.0
 11
99.5811
 21
74.7628
 31
0.0
  0
LINE
  8
0
 62
     0
 10
99.5811
 20
74.7628
 30
0.0
 11
99.5811
 21
75.7618
 31
0.0
  0
LINE
  8
0
 62
     0
 10
99.5811
 20
75.7618
 30
0.0
 11
85.5804
 21
75.7618
 31
0.0
  0
LINE
  8
0
 62
     0
 10
104.63
 20
75.7618
 30
0.0
 11
104.63
 21
74.7628
 31
0.0
  0
LINE
  8
0
 62
     0
 10
104.63
 20
74.7628
 30
0.0
 11
103.831
 21
74.7628
 31
0.0
  0
LINE
  8
0
 62
     0
 10
103.831
 20
74.7628
 30
0.0
 11
103.831
 21
71.6622
 31
0.0
  0
LINE
  8
0
 62
     0
 10
103.831
 20
71.6622
 30
0.0
 11
104.63
 21
71.6622
 31
0.0
  0
LINE
  8
0
 62
     0
 10
104.63
 20
71.6622
 30
0.0
 11
104.63
 21
65.8633
 31
0.0
  0
LINE
  8
0
 62
     0
 10
104.63
 20
65.8633
 30
0.0
 11
103.831
 21
65.8633
 31
0.0
  0
LINE
  8
0
 62
     0
 10
103.831
 20
65.8633
 30
0.0
 11
103.831
 21
62.7641
 31
0.0
  0
LINE
  8
0
 62
     0
 10
103.831
 20
62.7641
 30
0.0
 11
104.63
 21
62.7641
 31
0.0
  0
LINE
  8
0
 62
     0
 10
104.63
 20
62.7641
 30
0.0
 11
104.63
 21
61.7636
 31
0.0
  0
LINE
  8
0
 62
     0
 10
104.63
 20
61.7636
 30
0.0
 11
118.631
 21
61.7636
 31
0.0
  0
LINE
  8
0
 62
     0
 10
118.631
 20
61.7636
 30
0.0
 11
118.631
 21
62.7641
 31
0.0
  0
LINE
  8
0
 62
     0
 10
118.631
 20
62.7641
 30
0.0
 11
119.43
 21
62.7641
 31
0.0
  0
LINE
  8
0
 62
     0
 10
119.43
 20
62.7641
 30
0.0
 11
119.43
 21
65.8633
 31
0.0
  0
LINE
  8
0
 62
     0
 10
119.43
 20
65.8633
 30
0.0
 11
118.631
 21
65.8633
 31
0.0
  0
LINE
  8
0
 62
     0
 10
118.631
 20
65.8633
 30
0.0
 11
118.631
 21
71.6622
 31
0.0
  0
LINE
  8
0
 62
     0
 10
118.631
 20
71.6622
 30
0.0
 11
119.43
 21
71.6622
 31
0.0
  0
LINE
  8
0
 62
     0
 10
119.43
 20
71.6622
 30
0.0
 11
119.43
 21
74.7628
 31
0.0
  0
LINE
  8
0
 62
     0
 10
119.43
 20
74.7628
 30
0.0
 11
118.631
 21
74.7628
 31
0.0
  0
LINE
  8
0
 62
     0
 10
118.631
 20
74.7628
 30
0.0
 11
118.631
 21
75.7618
 31
0.0
  0
LINE
  8
0
 62
     0
 10
118.631
 20
75.7618
 30
0.0
 11
104.63
 21
75.7618
 31
0.0
  0
LINE
  8
0
 62
     0
 10
123.68
 20
75.7618
 30
0.0
 11
123.68
 21
74.7628
 31
0.0
  0
LINE
  8
0
 62
     0
 10
123.68
 20
74.7628
 30
0.0
 11
122.881
 21
74.7628
 31
0.0
  0
LINE
  8
0
 62
     0
 10
122.881
 20
74.7628
 30
0.0
 11
122.881
 21
71.6622
 31
0.0
  0
LINE
  8
0
 62
     0
 10
122.881
 20
71.6622
 30
0.0
 11
123.68
 21
71.6622
 31
0.0
  0
LINE
  8
0
 62
     0
 10
123.68
 20
71.6622
 30
0.0
 11
123.68
 21
65.8633
 31
0.0
  0
LINE
  8
0
 62
     0
 10
123.68
 20
65.8633
 30
0.0
 11
122.881
 21
65.8633
 31
0.0
  0
LINE
  8
0
 62
     0
 10
122.881
 20
65.8633
 30
0.0
 11
122.881
 21
62.7641
 31
0.0
  0
LINE
  8
0
 62
     0
 10
122.881
 20
62.7641
 30
0.0
 11
123.68
 21
62.7641
 31
0.0
  0
LINE
  8
0
 62
     0
 10
123.68
 20
62.7641
 30
0.0
 11
123.68
 21
61.7636
 31
0.0
  0
LINE
  8
0
 62
     0
 10
123.68
 20
61.7636
 30
0.0
 11
137.681
 21
61.7636
 31
0.0
  0
LINE
  8
0
 62
     0
 10
137.681
 20
61.7636
 30
0.0
 11
137.681
 21
62.7641
 31
0.0
  0
LINE
  8
0
 62
     0
 10
137.681
 20
62.7641
 30
0.0
 11
138.48
 21
62.7641
 31
0.0
  0
LINE
  8
0
 62
     0
 10
138.48
 20
62.7641
 30
0.0
 11
138.48
 21
65.8633
 31
0.0
  0
LINE
  8
0
 62
     0
 10
138.48
 20
65.8633
 30
0.0
 11
137.681
 21
65.8633
 31
0.0
  0
LINE
  8
0
 62
     0
 10
137.681
 20
65.8633
 30
0.0
 11
137.681
 21
71.6622
 31
0.0
  0
LINE
  8
0
 62
     0
 10
137.681
 20
71.6622
 30
0.0
 11
138.48
 21
71.6622
 31
0.0
  0
LINE
  8
0
 62
     0
 10
138.48
 20
71.6622
 30
0.0
 11
138.48
 21
74.7628
 31
0.0
  0
LINE
  8
0
 62
     0
 10
138.48
 20
74.7628
 30
0.0
 11
137.681
 21
74.7628
 31
0.0
  0
LINE
  8
0
 62
     0
 10
137.681
 20
74.7628
 30
0.0
 11
137.681
 21
75.7618
 31
0.0
  0
LINE
  8
0
 62
     0
 10
137.681
 20
75.7618
 30
0.0
 11
123.68
 21
75.7618
 31
0.0
  0
LINE
  8
0
 62
     0
 10
142.73
 20
75.7618
 30
0.0
 11
142.73
 21
74.7628
 31
0.0
  0
LINE
  8
0
 62
     0
 10
142.73
 20
74.7628
 30
0.0
 11
141.931
 21
74.7628
 31
0.0
  0
LINE
  8
0
 62
     0
 10
141.931
 20
74.7628
 30
0.0
 11
141.931
 21
71.6622
 31
0.0
  0
LINE
  8
0
 62
     0
 10
141.931
 20
71.6622
 30
0.0
 11
142.73
 21
71.6622
 31
0.0
  0
LINE
  8
0
 62
     0
 10
142.73
 20
71.6622
 30
0.0
 11
142.73
 21
65.8633
 31
0.0
  0
LINE
  8
0
 62
     0
 10
142.73
 20
65.8633
 30
0.0
 11
141.931
 21
65.8633
 31
0.0
  0
LINE
  8
0
 62
     0
 10
141.931
 20
65.8633
 30
0.0
 11
141.931
 21
62.7641
 31
0.0
  0
LINE
  8
0
 62
     0
 10
141.931
 20
62.7641
 30
0.0
 11
142.73
 21
62.7641
 31
0.0
  0
LINE
  8
0
 62
     0
 10
142.73
 20
62.7641
 30
0.0
 11
142.73
 21
61.7636
 31
0.0
  0
LINE
  8
0
 62
     0
 10
142.73
 20
61.7636
 30
0.0
 11
156.731
 21
61.7636
 31
0.0
  0
LINE
  8
0
 62
     0
 10
156.731
 20
61.7636
 30
0.0
 11
156.731
 21
62.7641
 31
0.0
  0
LINE
  8
0
 62
     0
 10
156.731
 20
62.7641
 30
0.0
 11
157.53
 21
62.7641
 31
0.0
  0
LINE
  8
0
 62
     0
 10
157.53
 20
62.7641
 30
0.0
 11
157.53
 21
65.8633
 31
0.0
  0
LINE
  8
0
 62
     0
 10
157.53
 20
65.8633
 30
0.0
 11
156.731
 21
65.8633
 31
0.0
  0
LINE
  8
0
 62
     0
 10
156.731
 20
65.8633
 30
0.0
 11
156.731
 21
71.6622
 31
0.0
  0
LINE
  8
0
 62
     0
 10
156.731
 20
71.6622
 30
0.0
 11
157.53
 21
71.6622
 31
0.0
  0
LINE
  8
0
 62
     0
 10
157.53
 20
71.6622
 30
0.0
 11
157.53
 21
74.7628
 31
0.0
  0
LINE
  8
0
 62
     0
 10
157.53
 20
74.7628
 30
0.0
 11
156.731
 21
74.7628
 31
0.0
  0
LINE
  8
0
 62
     0
 10
156.731
 20
74.7628
 30
0.0
 11
156.731
 21
75.7618
 31
0.0
  0
LINE
  8
0
 62
     0
 10
156.731
 20
75.7618
 30
0.0
 11
142.73
 21
75.7618
 31
0.0
  0
LINE
  8
0
 62
     0
 10
161.78
 20
75.7618
 30
0.0
 11
161.78
 21
74.7628
 31
0.0
  0
LINE
  8
0
 62
     0
 10
161.78
 20
74.7628
 30
0.0
 11
160.981
 21
74.7628
 31
0.0
  0
LINE
  8
0
 62
     0
 10
160.981
 20
74.7628
 30
0.0
 11
160.981
 21
71.6622
 31
0.0
  0
LINE
  8
0
 62
     0
 10
160.981
 20
71.6622
 30
0.0
 11
161.78
 21
71.6622
 31
0.0
  0
LINE
  8
0
 62
     0
 10
161.78
 20
71.6622
 30
0.0
 11
161.78
 21
65.8633
 31
0.0
  0
LINE
  8
0
 62
     0
 10
161.78
 20
65.8633
 30
0.0
 11
160.981
 21
65.8633
 31
0.0
  0
LINE
  8
0
 62
     0
 10
160.981
 20
65.8633
 30
0.0
 11
160.981
 21
62.7641
 31
0.0
  0
LINE
  8
0
 62
     0
 10
160.981
 20
62.7641
 30
0.0
 11
161.78
 21
62.7641
 31
0.0
  0
LINE
  8
0
 62
     0
 10
161.78
 20
62.7641
 30
0.0
 11
161.78
 21
61.7636
 31
0.0
  0
LINE
  8
0
 62
     0
 10
161.78
 20
61.7636
 30
0.0
 11
175.781
 21
61.7636
 31
0.0
  0
LINE
  8
0
 62
     0
 10
175.781
 20
61.7636
 30
0.0
 11
175.781
 21
62.7641
 31
0.0
  0
LINE
  8
0
 62
     0
 10
175.781
 20
62.7641
 30
0.0
 11
176.58
 21
62.7641
 31
0.0
  0
LINE
  8
0
 62
     0
 10
176.58
 20
62.7641
 30
0.0
 11
176.58
 21
65.8633
 31
0.0
  0
LINE
  8
0
 62
     0
 10
176.58
 20
65.8633
 30
0.0
 11
175.781
 21
65.8633
 31
0.0
  0
LINE
  8
0
 62
     0
 10
175.781
 20
65.8633
 30
0.0
 11
175.781
 21
71.6622
 31
0.0
  0
LINE
  8
0
 62
     0
 10
175.781
 20
71.6622
 30
0.0
 11
176.58
 21
71.6622
 31
0.0
  0
LINE
  8
0
 62
     0
 10
176.58
 20
71.6622
 30
0.0
 11
176.58
 21
74.7628
 31
0.0
  0
LINE
  8
0
 62
     0
 10
176.58
 20
74.7628
 30
0.0
 11
175.781
 21
74.7628
 31
0.0
  0
LINE
  8
0
 62
     0
 10
175.781
 20
74.7628
 30
0.0
 11
175.781
 21
75.7618
 31
0.0
  0
LINE
  8
0
 62
     0
 10
175.781
 20
75.7618
 30
0.0
 11
161.78
 21
75.7618
 31
0.0
  0
LINE
  8
0
 62
     0
 10
180.83
 20
75.7618
 30
0.0
 11
180.83
 21
74.7628
 31
0.0
  0
LINE
  8
0
 62
     0
 10
180.83
 20
74.7628
 30
0.0
 11
180.031
 21
74.7628
 31
0.0
  0
LINE
  8
0
 62
     0
 10
180.031
 20
74.7628
 30
0.0
 11
180.031
 21
71.6622
 31
0.0
  0
LINE
  8
0
 62
     0
 10
180.031
 20
71.6622
 30
0.0
 11
180.83
 21
71.6622
 31
0.0
  0
LINE
  8
0
 62
     0
 10
180.83
 20
71.6622
 30
0.0
 11
180.83
 21
65.8633
 31
0.0
  0
LINE
  8
0
 62
     0
 10
180.83
 20
65.8633
 30
0.0
 11
180.031
 21
65.8633
 31
0.0
  0
LINE
  8
0
 62
     0
 10
180.031
 20
65.8633
 30
0.0
 11
180.031
 21
62.7641
 31
0.0
  0
LINE
  8
0
 62
     0
 10
180.031
 20
62.7641
 30
0.0
 11
180.83
 21
62.7641
 31
0.0
  0
LINE
  8
0
 62
     0
 10
180.83
 20
62.7641
 30
0.0
 11
180.83
 21
61.7636
 31
0.0
  0
LINE
  8
0
 62
     0
 10
180.83
 20
61.7636
 30
0.0
 11
194.831
 21
61.7636
 31
0.0
  0
LINE
  8
0
 62
     0
 10
194.831
 20
61.7636
 30
0.0
 11
194.831
 21
62.7641
 31
0.0
  0
LINE
  8
0
 62
     0
 10
194.831
 20
62.7641
 30
0.0
 11
195.63
 21
62.7641
 31
0.0
  0
LINE
  8
0
 62
     0
 10
195.63
 20
62.7641
 30
0.0
 11
195.63
 21
65.8633
 31
0.0
  0
LINE
  8
0
 62
     0
 10
195.63
 20
65.8633
 30
0.0
 11
194.831
 21
65.8633
 31
0.0
  0
LINE
  8
0
 62
     0
 10
194.831
 20
65.8633
 30
0.0
 11
194.831
 21
71.6622
 31
0.0
  0
LINE
  8
0
 62
     0
 10
194.831
 20
71.6622
 30
0.0
 11
195.63
 21
71.6622
 31
0.0
  0
LINE
  8
0
 62
     0
 10
195.63
 20
71.6622
 30
0.0
 11
195.63
 21
74.7628
 31
0.0
  0
LINE
  8
0
 62
     0
 10
195.63
 20
74.7628
 30
0.0
 11
194.831
 21
74.7628
 31
0.0
  0
LINE
  8
0
 62
     0
 10
194.831
 20
74.7628
 30
0.0
 11
194.831
 21
75.7618
 31
0.0
  0
LINE
  8
0
 62
     0
 10
194.831
 20
75.7618
 30
0.0
 11
180.83
 21
75.7618
 31
0.0
  0
LINE
  8
0
 62
     0
 10
199.88
 20
75.7618
 30
0.0
 11
199.88
 21
74.7628
 31
0.0
  0
LINE
  8
0
 62
     0
 10
199.88
 20
74.7628
 30
0.0
 11
199.081
 21
74.7628
 31
0.0
  0
LINE
  8
0
 62
     0
 10
199.081
 20
74.7628
 30
0.0
 11
199.081
 21
71.6622
 31
0.0
  0
LINE
  8
0
 62
     0
 10
199.081
 20
71.6622
 30
0.0
 11
199.88
 21
71.6622
 31
0.0
  0
LINE
  8
0
 62
     0
 10
199.88
 20
71.6622
 30
0.0
 11
199.88
 21
65.8633
 31
0.0
  0
LINE
  8
0
 62
     0
 10
199.88
 20
65.8633
 30
0.0
 11
199.081
 21
65.8633
 31
0.0
  0
LINE
  8
0
 62
     0
 10
199.081
 20
65.8633
 30
0.0
 11
199.081
 21
62.7641
 31
0.0
  0
LINE
  8
0
 62
     0
 10
199.081
 20
62.7641
 30
0.0
 11
199.88
 21
62.7641
 31
0.0
  0
LINE
  8
0
 62
     0
 10
199.88
 20
62.7641
 30
0.0
 11
199.88
 21
61.7636
 31
0.0
  0
LINE
  8
0
 62
     0
 10
199.88
 20
61.7636
 30
0.0
 11
213.881
 21
61.7636
 31
0.0
  0
LINE
  8
0
 62
     0
 10
213.881
 20
61.7636
 30
0.0
 11
213.881
 21
62.7641
 31
0.0
  0
LINE
  8
0
 62
     0
 10
213.881
 20
62.7641
 30
0.0
 11
214.68
 21
62.7641
 31
0.0
  0
LINE
  8
0
 62
     0
 10
214.68
 20
62.7641
 30
0.0
 11
214.68
 21
65.8633
 31
0.0
  0
LINE
  8
0
 62
     0
 10
214.68
 20
65.8633
 30
0.0
 11
213.881
 21
65.8633
 31
0.0
  0
LINE
  8
0
 62
     0
 10
213.881
 20
65.8633
 30
0.0
 11
213.881
 21
71.6622
 31
0.0
  0
LINE
  8
0
 62
     0
 10
213.881
 20
71.6622
 30
0.0
 11
214.68
 21
71.6622
 31
0.0
  0
LINE
  8
0
 62
     0
 10
214.68
 20
71.6622
 30
0.0
 11
214.68
 21
74.7628
 31
0.0
  0
LINE
  8
0
 62
     0
 10
214.68
 20
74.7628
 30
0.0
 11
213.881
 21
74.7628
 31
0.0
  0
LINE
  8
0
 62
     0
 10
213.881
 20
74.7628
 30
0.0
 11
213.881
 21
75.7618
 31
0.0
  0
LINE
  8
0
 62
     0
 10
213.881
 20
75.7618
 30
0.0
 11
199.88
 21
75.7618
 31
0.0
  0
LINE
  8
0
 62
     0
 10
218.93
 20
75.7618
 30
0.0
 11
218.93
 21
74.7628
 31
0.0
  0
LINE
  8
0
 62
     0
 10
218.93
 20
74.7628
 30
0.0
 11
218.131
 21
74.7628
 31
0.0
  0
LINE
  8
0
 62
     0
 10
218.131
 20
74.7628
 30
0.0
 11
218.131
 21
71.6622
 31
0.0
  0
LINE
  8
0
 62
     0
 10
218.131
 20
71.6622
 30
0.0
 11
218.93
 21
71.6622
 31
0.0
  0
LINE
  8
0
 62
     0
 10
218.93
 20
71.6622
 30
0.0
 11
218.93
 21
65.8633
 31
0.0
  0
LINE
  8
0
 62
     0
 10
218.93
 20
65.8633
 30
0.0
 11
218.131
 21
65.8633
 31
0.0
  0
LINE
  8
0
 62
     0
 10
218.131
 20
65.8633
 30
0.0
 11
218.131
 21
62.7641
 31
0.0
  0
LINE
  8
0
 62
     0
 10
218.131
 20
62.7641
 30
0.0
 11
218.93
 21
62.7641
 31
0.0
  0
LINE
  8
0
 62
     0
 10
218.93
 20
62.7641
 30
0.0
 11
218.93
 21
61.7636
 31
0.0
  0
LINE
  8
0
 62
     0
 10
218.93
 20
61.7636
 30
0.0
 11
232.931
 21
61.7636
 31
0.0
  0
LINE
  8
0
 62
     0
 10
232.931
 20
61.7636
 30
0.0
 11
232.931
 21
62.7641
 31
0.0
  0
LINE
  8
0
 62
     0
 10
232.931
 20
62.7641
 30
0.0
 11
233.73
 21
62.7641
 31
0.0
  0
LINE
  8
0
 62
     0
 10
233.73
 20
62.7641
 30
0.0
 11
233.73
 21
65.8633
 31
0.0
  0
LINE
  8
0
 62
     0
 10
233.73
 20
65.8633
 30
0.0
 11
232.931
 21
65.8633
 31
0.0
  0
LINE
  8
0
 62
     0
 10
232.931
 20
65.8633
 30
0.0
 11
232.931
 21
71.6622
 31
0.0
  0
LINE
  8
0
 62
     0
 10
232.931
 20
71.6622
 30
0.0
 11
233.73
 21
71.6622
 31
0.0
  0
LINE
  8
0
 62
     0
 10
233.73
 20
71.6622
 30
0.0
 11
233.73
 21
74.7628
 31
0.0
  0
LINE
  8
0
 62
     0
 10
233.73
 20
74.7628
 30
0.0
 11
232.931
 21
74.7628
 31
0.0
  0
LINE
  8
0
 62
     0
 10
232.931
 20
74.7628
 30
0.0
 11
232.931
 21
75.7618
 31
0.0
  0
LINE
  8
0
 62
     0
 10
232.931
 20
75.7618
 30
0.0
 11
218.93
 21
75.7618
 31
0.0
  0
LINE
  8
0
 62
     0
 10
245.124
 20
75.7618
 30
0.0
 11
245.124
 21
74.7628
 31
0.0
  0
LINE
  8
0
 62
     0
 10
245.124
 20
74.7628
 30
0.0
 11
244.325
 21
74.7628
 31
0.0
  0
LINE
  8
0
 62
     0
 10
244.325
 20
74.7628
 30
0.0
 11
244.325
 21
71.6622
 31
0.0
  0
LINE
  8
0
 62
     0
 10
244.325
 20
71.6622
 30
0.0
 11
245.124
 21
71.6622
 31
0.0
  0
LINE
  8
0
 62
     0
 10
245.124
 20
71.6622
 30
0.0
 11
245.124
 21
65.8633
 31
0.0
  0
LINE
  8
0
 62
     0
 10
245.124
 20
65.8633
 30
0.0
 11
244.325
 21
65.8633
 31
0.0
  0
LINE
  8
0
 62
     0
 10
244.325
 20
65.8633
 30
0.0
 11
244.325
 21
62.7641
 31
0.0
  0
LINE
  8
0
 62
     0
 10
244.325
 20
62.7641
 30
0.0
 11
245.124
 21
62.7641
 31
0.0
  0
LINE
  8
0
 62
     0
 10
245.124
 20
62.7641
 30
0.0
 11
245.124
 21
61.7636
 31
0.0
  0
LINE
  8
0
 62
     0
 10
245.124
 20
61.7636
 30
0.0
 11
259.125
 21
61.7636
 31
0.0
  0
LINE
  8
0
 62
     0
 10
259.125
 20
61.7636
 30
0.0
 11
259.125
 21
62.7641
 31
0.0
  0
LINE
  8
0
 62
     0
 10
259.125
 20
62.7641
 30
0.0
 11
259.924
 21
62.7641
 31
0.0
  0
LINE
  8
0
 62
     0
 10
259.924
 20
62.7641
 30
0.0
 11
259.924
 21
65.8633
 31
0.0
  0
LINE
  8
0
 62
     0
 10
259.924
 20
65.8633
 30
0.0
 11
259.125
 21
65.8633
 31
0.0
  0
LINE
  8
0
 62
     0
 10
259.125
 20
65.8633
 30
0.0
 11
259.125
 21
71.6622
 31
0.0
  0
LINE
  8
0
 62
     0
 10
259.125
 20
71.6622
 30
0.0
 11
259.924
 21
71.6622
 31
0.0
  0
LINE
  8
0
 62
     0
 10
259.924
 20
71.6622
 30
0.0
 11
259.924
 21
74.7628
 31
0.0
  0
LINE
  8
0
 62
     0
 10
259.924
 20
74.7628
 30
0.0
 11
259.125
 21
74.7628
 31
0.0
  0
LINE
  8
0
 62
     0
 10
259.125
 20
74.7628
 30
0.0
 11
259.125
 21
75.7618
 31
0.0
  0
LINE
  8
0
 62
     0
 10
259.125
 20
75.7618
 30
0.0
 11
245.124
 21
75.7618
 31
0.0
  0
LINE
  8
0
 62
     0
 10
4.61779
 20
94.8118
 30
0.0
 11
4.61779
 21
93.8128
 31
0.0
  0
LINE
  8
0
 62
     0
 10
4.61779
 20
93.8128
 30
0.0
 11
3.81716
 21
93.8128
 31
0.0
  0
LINE
  8
0
 62
     0
 10
3.81716
 20
93.8128
 30
0.0
 11
3.81716
 21
90.7122
 31
0.0
  0
LINE
  8
0
 62
     0
 10
3.81716
 20
90.7122
 30
0.0
 11
4.61779
 21
90.7122
 31
0.0
  0
LINE
  8
0
 62
     0
 10
4.61779
 20
90.7122
 30
0.0
 11
4.61779
 21
84.9133
 31
0.0
  0
LINE
  8
0
 62
     0
 10
4.61779
 20
84.9133
 30
0.0
 11
3.81716
 21
84.9133
 31
0.0
  0
LINE
  8
0
 62
     0
 10
3.81716
 20
84.9133
 30
0.0
 11
3.81716
 21
81.8141
 31
0.0
  0
LINE
  8
0
 62
     0
 10
3.81716
 20
81.8141
 30
0.0
 11
4.61779
 21
81.8141
 31
0.0
  0
LINE
  8
0
 62
     0
 10
4.61779
 20
81.8141
 30
0.0
 11
4.61779
 21
80.8136
 31
0.0
  0
LINE
  8
0
 62
     0
 10
4.61779
 20
80.8136
 30
0.0
 11
18.6187
 21
80.8136
 31
0.0
  0
LINE
  8
0
 62
     0
 10
18.6187
 20
80.8136
 30
0.0
 11
18.6187
 21
81.8141
 31
0.0
  0
LINE
  8
0
 62
     0
 10
18.6187
 20
81.8141
 30
0.0
 11
19.4193
 21
81.8141
 31
0.0
  0
LINE
  8
0
 62
     0
 10
19.4193
 20
81.8141
 30
0.0
 11
19.4193
 21
84.9133
 31
0.0
  0
LINE
  8
0
 62
     0
 10
19.4193
 20
84.9133
 30
0.0
 11
18.6187
 21
84.9133
 31
0.0
  0
LINE
  8
0
 62
     0
 10
18.6187
 20
84.9133
 30
0.0
 11
18.6187
 21
90.7122
 31
0.0
  0
LINE
  8
0
 62
     0
 10
18.6187
 20
90.7122
 30
0.0
 11
19.4193
 21
90.7122
 31
0.0
  0
LINE
  8
0
 62
     0
 10
19.4193
 20
90.7122
 30
0.0
 11
19.4193
 21
93.8128
 31
0.0
  0
LINE
  8
0
 62
     0
 10
19.4193
 20
93.8128
 30
0.0
 11
18.6187
 21
93.8128
 31
0.0
  0
LINE
  8
0
 62
     0
 10
18.6187
 20
93.8128
 30
0.0
 11
18.6187
 21
94.8118
 31
0.0
  0
LINE
  8
0
 62
     0
 10
18.6187
 20
94.8118
 30
0.0
 11
4.61779
 21
94.8118
 31
0.0
  0
LINE
  8
0
 62
     0
 10
23.6692
 20
94.8118
 30
0.0
 11
23.6692
 21
93.8128
 31
0.0
  0
LINE
  8
0
 62
     0
 10
23.6692
 20
93.8128
 30
0.0
 11
22.8685
 21
93.8128
 31
0.0
  0
LINE
  8
0
 62
     0
 10
22.8685
 20
93.8128
 30
0.0
 11
22.8685
 21
90.7122
 31
0.0
  0
LINE
  8
0
 62
     0
 10
22.8685
 20
90.7122
 30
0.0
 11
23.6692
 21
90.7122
 31
0.0
  0
LINE
  8
0
 62
     0
 10
23.6692
 20
90.7122
 30
0.0
 11
23.6692
 21
84.9133
 31
0.0
  0
LINE
  8
0
 62
     0
 10
23.6692
 20
84.9133
 30
0.0
 11
22.8685
 21
84.9133
 31
0.0
  0
LINE
  8
0
 62
     0
 10
22.8685
 20
84.9133
 30
0.0
 11
22.8685
 21
81.8141
 31
0.0
  0
LINE
  8
0
 62
     0
 10
22.8685
 20
81.8141
 30
0.0
 11
23.6692
 21
81.8141
 31
0.0
  0
LINE
  8
0
 62
     0
 10
23.6692
 20
81.8141
 30
0.0
 11
23.6692
 21
80.8136
 31
0.0
  0
LINE
  8
0
 62
     0
 10
23.6692
 20
80.8136
 30
0.0
 11
37.6686
 21
80.8136
 31
0.0
  0
LINE
  8
0
 62
     0
 10
37.6686
 20
80.8136
 30
0.0
 11
37.6686
 21
81.8141
 31
0.0
  0
LINE
  8
0
 62
     0
 10
37.6686
 20
81.8141
 30
0.0
 11
38.4694
 21
81.8141
 31
0.0
  0
LINE
  8
0
 62
     0
 10
38.4694
 20
81.8141
 30
0.0
 11
38.4694
 21
84.9133
 31
0.0
  0
LINE
  8
0
 62
     0
 10
38.4694
 20
84.9133
 30
0.0
 11
37.6686
 21
84.9133
 31
0.0
  0
LINE
  8
0
 62
     0
 10
37.6686
 20
84.9133
 30
0.0
 11
37.6686
 21
90.7122
 31
0.0
  0
LINE
  8
0
 62
     0
 10
37.6686
 20
90.7122
 30
0.0
 11
38.4694
 21
90.7122
 31
0.0
  0
LINE
  8
0
 62
     0
 10
38.4694
 20
90.7122
 30
0.0
 11
38.4694
 21
93.8128
 31
0.0
  0
LINE
  8
0
 62
     0
 10
38.4694
 20
93.8128
 30
0.0
 11
37.6686
 21
93.8128
 31
0.0
  0
LINE
  8
0
 62
     0
 10
37.6686
 20
93.8128
 30
0.0
 11
37.6686
 21
94.8118
 31
0.0
  0
LINE
  8
0
 62
     0
 10
37.6686
 20
94.8118
 30
0.0
 11
23.6692
 21
94.8118
 31
0.0
  0
LINE
  8
0
 62
     0
 10
42.7193
 20
94.8118
 30
0.0
 11
42.7193
 21
93.8128
 31
0.0
  0
LINE
  8
0
 62
     0
 10
42.7193
 20
93.8128
 30
0.0
 11
41.9185
 21
93.8128
 31
0.0
  0
LINE
  8
0
 62
     0
 10
41.9185
 20
93.8128
 30
0.0
 11
41.9185
 21
90.7122
 31
0.0
  0
LINE
  8
0
 62
     0
 10
41.9185
 20
90.7122
 30
0.0
 11
42.7193
 21
90.7122
 31
0.0
  0
LINE
  8
0
 62
     0
 10
42.7193
 20
90.7122
 30
0.0
 11
42.7193
 21
84.9133
 31
0.0
  0
LINE
  8
0
 62
     0
 10
42.7193
 20
84.9133
 30
0.0
 11
41.9185
 21
84.9133
 31
0.0
  0
LINE
  8
0
 62
     0
 10
41.9185
 20
84.9133
 30
0.0
 11
41.9185
 21
81.8141
 31
0.0
  0
LINE
  8
0
 62
     0
 10
41.9185
 20
81.8141
 30
0.0
 11
42.7193
 21
81.8141
 31
0.0
  0
LINE
  8
0
 62
     0
 10
42.7193
 20
81.8141
 30
0.0
 11
42.7193
 21
80.8136
 31
0.0
  0
LINE
  8
0
 62
     0
 10
42.7193
 20
80.8136
 30
0.0
 11
56.7186
 21
80.8136
 31
0.0
  0
LINE
  8
0
 62
     0
 10
56.7186
 20
80.8136
 30
0.0
 11
56.7186
 21
81.8141
 31
0.0
  0
LINE
  8
0
 62
     0
 10
56.7186
 20
81.8141
 30
0.0
 11
57.5194
 21
81.8141
 31
0.0
  0
LINE
  8
0
 62
     0
 10
57.5194
 20
81.8141
 30
0.0
 11
57.5194
 21
84.9133
 31
0.0
  0
LINE
  8
0
 62
     0
 10
57.5194
 20
84.9133
 30
0.0
 11
56.7186
 21
84.9133
 31
0.0
  0
LINE
  8
0
 62
     0
 10
56.7186
 20
84.9133
 30
0.0
 11
56.7186
 21
90.7122
 31
0.0
  0
LINE
  8
0
 62
     0
 10
56.7186
 20
90.7122
 30
0.0
 11
57.5194
 21
90.7122
 31
0.0
  0
LINE
  8
0
 62
     0
 10
57.5194
 20
90.7122
 30
0.0
 11
57.5194
 21
93.8128
 31
0.0
  0
LINE
  8
0
 62
     0
 10
57.5194
 20
93.8128
 30
0.0
 11
56.7186
 21
93.8128
 31
0.0
  0
LINE
  8
0
 62
     0
 10
56.7186
 20
93.8128
 30
0.0
 11
56.7186
 21
94.8118
 31
0.0
  0
LINE
  8
0
 62
     0
 10
56.7186
 20
94.8118
 30
0.0
 11
42.7193
 21
94.8118
 31
0.0
  0
LINE
  8
0
 62
     0
 10
61.7693
 20
94.8118
 30
0.0
 11
61.7693
 21
93.8128
 31
0.0
  0
LINE
  8
0
 62
     0
 10
61.7693
 20
93.8128
 30
0.0
 11
60.9685
 21
93.8128
 31
0.0
  0
LINE
  8
0
 62
     0
 10
60.9685
 20
93.8128
 30
0.0
 11
60.9685
 21
90.7122
 31
0.0
  0
LINE
  8
0
 62
     0
 10
60.9685
 20
90.7122
 30
0.0
 11
61.7693
 21
90.7122
 31
0.0
  0
LINE
  8
0
 62
     0
 10
61.7693
 20
90.7122
 30
0.0
 11
61.7693
 21
84.9133
 31
0.0
  0
LINE
  8
0
 62
     0
 10
61.7693
 20
84.9133
 30
0.0
 11
60.9685
 21
84.9133
 31
0.0
  0
LINE
  8
0
 62
     0
 10
60.9685
 20
84.9133
 30
0.0
 11
60.9685
 21
81.8141
 31
0.0
  0
LINE
  8
0
 62
     0
 10
60.9685
 20
81.8141
 30
0.0
 11
61.7693
 21
81.8141
 31
0.0
  0
LINE
  8
0
 62
     0
 10
61.7693
 20
81.8141
 30
0.0
 11
61.7693
 21
80.8136
 31
0.0
  0
LINE
  8
0
 62
     0
 10
61.7693
 20
80.8136
 30
0.0
 11
75.7686
 21
80.8136
 31
0.0
  0
LINE
  8
0
 62
     0
 10
75.7686
 20
80.8136
 30
0.0
 11
75.7686
 21
81.8141
 31
0.0
  0
LINE
  8
0
 62
     0
 10
75.7686
 20
81.8141
 30
0.0
 11
76.5694
 21
81.8141
 31
0.0
  0
LINE
  8
0
 62
     0
 10
76.5694
 20
81.8141
 30
0.0
 11
76.5694
 21
84.9133
 31
0.0
  0
LINE
  8
0
 62
     0
 10
76.5694
 20
84.9133
 30
0.0
 11
75.7686
 21
84.9133
 31
0.0
  0
LINE
  8
0
 62
     0
 10
75.7686
 20
84.9133
 30
0.0
 11
75.7686
 21
90.7122
 31
0.0
  0
LINE
  8
0
 62
     0
 10
75.7686
 20
90.7122
 30
0.0
 11
76.5694
 21
90.7122
 31
0.0
  0
LINE
  8
0
 62
     0
 10
76.5694
 20
90.7122
 30
0.0
 11
76.5694
 21
93.8128
 31
0.0
  0
LINE
  8
0
 62
     0
 10
76.5694
 20
93.8128
 30
0.0
 11
75.7686
 21
93.8128
 31
0.0
  0
LINE
  8
0
 62
     0
 10
75.7686
 20
93.8128
 30
0.0
 11
75.7686
 21
94.8118
 31
0.0
  0
LINE
  8
0
 62
     0
 10
75.7686
 20
94.8118
 30
0.0
 11
61.7693
 21
94.8118
 31
0.0
  0
LINE
  8
0
 62
     0
 10
80.8193
 20
94.8118
 30
0.0
 11
80.8193
 21
93.8128
 31
0.0
  0
LINE
  8
0
 62
     0
 10
80.8193
 20
93.8128
 30
0.0
 11
80.0185
 21
93.8128
 31
0.0
  0
LINE
  8
0
 62
     0
 10
80.0185
 20
93.8128
 30
0.0
 11
80.0185
 21
90.7122
 31
0.0
  0
LINE
  8
0
 62
     0
 10
80.0185
 20
90.7122
 30
0.0
 11
80.8193
 21
90.7122
 31
0.0
  0
LINE
  8
0
 62
     0
 10
80.8193
 20
90.7122
 30
0.0
 11
80.8193
 21
84.9133
 31
0.0
  0
LINE
  8
0
 62
     0
 10
80.8193
 20
84.9133
 30
0.0
 11
80.0185
 21
84.9133
 31
0.0
  0
LINE
  8
0
 62
     0
 10
80.0185
 20
84.9133
 30
0.0
 11
80.0185
 21
81.8141
 31
0.0
  0
LINE
  8
0
 62
     0
 10
80.0185
 20
81.8141
 30
0.0
 11
80.8193
 21
81.8141
 31
0.0
  0
LINE
  8
0
 62
     0
 10
80.8193
 20
81.8141
 30
0.0
 11
80.8193
 21
80.8136
 31
0.0
  0
LINE
  8
0
 62
     0
 10
80.8193
 20
80.8136
 30
0.0
 11
94.8186
 21
80.8136
 31
0.0
  0
LINE
  8
0
 62
     0
 10
94.8186
 20
80.8136
 30
0.0
 11
94.8186
 21
81.8141
 31
0.0
  0
LINE
  8
0
 62
     0
 10
94.8186
 20
81.8141
 30
0.0
 11
95.6179
 21
81.8141
 31
0.0
  0
LINE
  8
0
 62
     0
 10
95.6179
 20
81.8141
 30
0.0
 11
95.6179
 21
84.9133
 31
0.0
  0
LINE
  8
0
 62
     0
 10
95.6179
 20
84.9133
 30
0.0
 11
94.8186
 21
84.9133
 31
0.0
  0
LINE
  8
0
 62
     0
 10
94.8186
 20
84.9133
 30
0.0
 11
94.8186
 21
90.7122
 31
0.0
  0
LINE
  8
0
 62
     0
 10
94.8186
 20
90.7122
 30
0.0
 11
95.6179
 21
90.7122
 31
0.0
  0
LINE
  8
0
 62
     0
 10
95.6179
 20
90.7122
 30
0.0
 11
95.6179
 21
93.8128
 31
0.0
  0
LINE
  8
0
 62
     0
 10
95.6179
 20
93.8128
 30
0.0
 11
94.8186
 21
93.8128
 31
0.0
  0
LINE
  8
0
 62
     0
 10
94.8186
 20
93.8128
 30
0.0
 11
94.8186
 21
94.8118
 31
0.0
  0
LINE
  8
0
 62
     0
 10
94.8186
 20
94.8118
 30
0.0
 11
80.8193
 21
94.8118
 31
0.0
  0
LINE
  8
0
 62
     0
 10
99.8679
 20
94.8118
 30
0.0
 11
99.8679
 21
93.8128
 31
0.0
  0
LINE
  8
0
 62
     0
 10
99.8679
 20
93.8128
 30
0.0
 11
99.0685
 21
93.8128
 31
0.0
  0
LINE
  8
0
 62
     0
 10
99.0685
 20
93.8128
 30
0.0
 11
99.0685
 21
90.7122
 31
0.0
  0
LINE
  8
0
 62
     0
 10
99.0685
 20
90.7122
 30
0.0
 11
99.8679
 21
90.7122
 31
0.0
  0
LINE
  8
0
 62
     0
 10
99.8679
 20
90.7122
 30
0.0
 11
99.8679
 21
84.9133
 31
0.0
  0
LINE
  8
0
 62
     0
 10
99.8679
 20
84.9133
 30
0.0
 11
99.0685
 21
84.9133
 31
0.0
  0
LINE
  8
0
 62
     0
 10
99.0685
 20
84.9133
 30
0.0
 11
99.0685
 21
81.8141
 31
0.0
  0
LINE
  8
0
 62
     0
 10
99.0685
 20
81.8141
 30
0.0
 11
99.8679
 21
81.8141
 31
0.0
  0
LINE
  8
0
 62
     0
 10
99.8679
 20
81.8141
 30
0.0
 11
99.8679
 21
80.8136
 31
0.0
  0
LINE
  8
0
 62
     0
 10
99.8679
 20
80.8136
 30
0.0
 11
113.867
 21
80.8136
 31
0.0
  0
LINE
  8
0
 62
     0
 10
113.867
 20
80.8136
 30
0.0
 11
113.867
 21
81.8141
 31
0.0
  0
LINE
  8
0
 62
     0
 10
113.867
 20
81.8141
 30
0.0
 11
114.668
 21
81.8141
 31
0.0
  0
LINE
  8
0
 62
     0
 10
114.668
 20
81.8141
 30
0.0
 11
114.668
 21
84.9133
 31
0.0
  0
LINE
  8
0
 62
     0
 10
114.668
 20
84.9133
 30
0.0
 11
113.867
 21
84.9133
 31
0.0
  0
LINE
  8
0
 62
     0
 10
113.867
 20
84.9133
 30
0.0
 11
113.867
 21
90.7122
 31
0.0
  0
LINE
  8
0
 62
     0
 10
113.867
 20
90.7122
 30
0.0
 11
114.668
 21
90.7122
 31
0.0
  0
LINE
  8
0
 62
     0
 10
114.668
 20
90.7122
 30
0.0
 11
114.668
 21
93.8128
 31
0.0
  0
LINE
  8
0
 62
     0
 10
114.668
 20
93.8128
 30
0.0
 11
113.867
 21
93.8128
 31
0.0
  0
LINE
  8
0
 62
     0
 10
113.867
 20
93.8128
 30
0.0
 11
113.867
 21
94.8118
 31
0.0
  0
LINE
  8
0
 62
     0
 10
113.867
 20
94.8118
 30
0.0
 11
99.8679
 21
94.8118
 31
0.0
  0
LINE
  8
0
 62
     0
 10
118.918
 20
94.8118
 30
0.0
 11
118.918
 21
93.8128
 31
0.0
  0
LINE
  8
0
 62
     0
 10
118.918
 20
93.8128
 30
0.0
 11
118.117
 21
93.8128
 31
0.0
  0
LINE
  8
0
 62
     0
 10
118.117
 20
93.8128
 30
0.0
 11
118.117
 21
90.7122
 31
0.0
  0
LINE
  8
0
 62
     0
 10
118.117
 20
90.7122
 30
0.0
 11
118.918
 21
90.7122
 31
0.0
  0
LINE
  8
0
 62
     0
 10
118.918
 20
90.7122
 30
0.0
 11
118.918
 21
84.9133
 31
0.0
  0
LINE
  8
0
 62
     0
 10
118.918
 20
84.9133
 30
0.0
 11
118.117
 21
84.9133
 31
0.0
  0
LINE
  8
0
 62
     0
 10
118.117
 20
84.9133
 30
0.0
 11
118.117
 21
81.8141
 31
0.0
  0
LINE
  8
0
 62
     0
 10
118.117
 20
81.8141
 30
0.0
 11
118.918
 21
81.8141
 31
0.0
  0
LINE
  8
0
 62
     0
 10
118.918
 20
81.8141
 30
0.0
 11
118.918
 21
80.8136
 31
0.0
  0
LINE
  8
0
 62
     0
 10
118.918
 20
80.8136
 30
0.0
 11
132.919
 21
80.8136
 31
0.0
  0
LINE
  8
0
 62
     0
 10
132.919
 20
80.8136
 30
0.0
 11
132.919
 21
81.8141
 31
0.0
  0
LINE
  8
0
 62
     0
 10
132.919
 20
81.8141
 30
0.0
 11
133.719
 21
81.8141
 31
0.0
  0
LINE
  8
0
 62
     0
 10
133.719
 20
81.8141
 30
0.0
 11
133.719
 21
84.9133
 31
0.0
  0
LINE
  8
0
 62
     0
 10
133.719
 20
84.9133
 30
0.0
 11
132.919
 21
84.9133
 31
0.0
  0
LINE
  8
0
 62
     0
 10
132.919
 20
84.9133
 30
0.0
 11
132.919
 21
90.7122
 31
0.0
  0
LINE
  8
0
 62
     0
 10
132.919
 20
90.7122
 30
0.0
 11
133.719
 21
90.7122
 31
0.0
  0
LINE
  8
0
 62
     0
 10
133.719
 20
90.7122
 30
0.0
 11
133.719
 21
93.8128
 31
0.0
  0
LINE
  8
0
 62
     0
 10
133.719
 20
93.8128
 30
0.0
 11
132.919
 21
93.8128
 31
0.0
  0
LINE
  8
0
 62
     0
 10
132.919
 20
93.8128
 30
0.0
 11
132.919
 21
94.8118
 31
0.0
  0
LINE
  8
0
 62
     0
 10
132.919
 20
94.8118
 30
0.0
 11
118.918
 21
94.8118
 31
0.0
  0
LINE
  8
0
 62
     0
 10
137.969
 20
94.8118
 30
0.0
 11
137.969
 21
93.8128
 31
0.0
  0
LINE
  8
0
 62
     0
 10
137.969
 20
93.8128
 30
0.0
 11
137.168
 21
93.8128
 31
0.0
  0
LINE
  8
0
 62
     0
 10
137.168
 20
93.8128
 30
0.0
 11
137.168
 21
90.7122
 31
0.0
  0
LINE
  8
0
 62
     0
 10
137.168
 20
90.7122
 30
0.0
 11
137.969
 21
90.7122
 31
0.0
  0
LINE
  8
0
 62
     0
 10
137.969
 20
90.7122
 30
0.0
 11
137.969
 21
84.9133
 31
0.0
  0
LINE
  8
0
 62
     0
 10
137.969
 20
84.9133
 30
0.0
 11
137.168
 21
84.9133
 31
0.0
  0
LINE
  8
0
 62
     0
 10
137.168
 20
84.9133
 30
0.0
 11
137.168
 21
81.8141
 31
0.0
  0
LINE
  8
0
 62
     0
 10
137.168
 20
81.8141
 30
0.0
 11
137.969
 21
81.8141
 31
0.0
  0
LINE
  8
0
 62
     0
 10
137.969
 20
81.8141
 30
0.0
 11
137.969
 21
80.8136
 31
0.0
  0
LINE
  8
0
 62
     0
 10
137.969
 20
80.8136
 30
0.0
 11
151.969
 21
80.8136
 31
0.0
  0
LINE
  8
0
 62
     0
 10
151.969
 20
80.8136
 30
0.0
 11
151.969
 21
81.8141
 31
0.0
  0
LINE
  8
0
 62
     0
 10
151.969
 20
81.8141
 30
0.0
 11
152.769
 21
81.8141
 31
0.0
  0
LINE
  8
0
 62
     0
 10
152.769
 20
81.8141
 30
0.0
 11
152.769
 21
84.9133
 31
0.0
  0
LINE
  8
0
 62
     0
 10
152.769
 20
84.9133
 30
0.0
 11
151.969
 21
84.9133
 31
0.0
  0
LINE
  8
0
 62
     0
 10
151.969
 20
84.9133
 30
0.0
 11
151.969
 21
90.7122
 31
0.0
  0
LINE
  8
0
 62
     0
 10
151.969
 20
90.7122
 30
0.0
 11
152.769
 21
90.7122
 31
0.0
  0
LINE
  8
0
 62
     0
 10
152.769
 20
90.7122
 30
0.0
 11
152.769
 21
93.8128
 31
0.0
  0
LINE
  8
0
 62
     0
 10
152.769
 20
93.8128
 30
0.0
 11
151.969
 21
93.8128
 31
0.0
  0
LINE
  8
0
 62
     0
 10
151.969
 20
93.8128
 30
0.0
 11
151.969
 21
94.8118
 31
0.0
  0
LINE
  8
0
 62
     0
 10
151.969
 20
94.8118
 30
0.0
 11
137.969
 21
94.8118
 31
0.0
  0
LINE
  8
0
 62
     0
 10
157.019
 20
94.8118
 30
0.0
 11
157.019
 21
93.8128
 31
0.0
  0
LINE
  8
0
 62
     0
 10
157.019
 20
93.8128
 30
0.0
 11
156.218
 21
93.8128
 31
0.0
  0
LINE
  8
0
 62
     0
 10
156.218
 20
93.8128
 30
0.0
 11
156.218
 21
90.7122
 31
0.0
  0
LINE
  8
0
 62
     0
 10
156.218
 20
90.7122
 30
0.0
 11
157.019
 21
90.7122
 31
0.0
  0
LINE
  8
0
 62
     0
 10
157.019
 20
90.7122
 30
0.0
 11
157.019
 21
84.9133
 31
0.0
  0
LINE
  8
0
 62
     0
 10
157.019
 20
84.9133
 30
0.0
 11
156.218
 21
84.9133
 31
0.0
  0
LINE
  8
0
 62
     0
 10
156.218
 20
84.9133
 30
0.0
 11
156.218
 21
81.8141
 31
0.0
  0
LINE
  8
0
 62
     0
 10
156.218
 20
81.8141
 30
0.0
 11
157.019
 21
81.8141
 31
0.0
  0
LINE
  8
0
 62
     0
 10
157.019
 20
81.8141
 30
0.0
 11
157.019
 21
80.8136
 31
0.0
  0
LINE
  8
0
 62
     0
 10
157.019
 20
80.8136
 30
0.0
 11
171.019
 21
80.8136
 31
0.0
  0
LINE
  8
0
 62
     0
 10
171.019
 20
80.8136
 30
0.0
 11
171.019
 21
81.8141
 31
0.0
  0
LINE
  8
0
 62
     0
 10
171.019
 20
81.8141
 30
0.0
 11
171.819
 21
81.8141
 31
0.0
  0
LINE
  8
0
 62
     0
 10
171.819
 20
81.8141
 30
0.0
 11
171.819
 21
84.9133
 31
0.0
  0
LINE
  8
0
 62
     0
 10
171.819
 20
84.9133
 30
0.0
 11
171.019
 21
84.9133
 31
0.0
  0
LINE
  8
0
 62
     0
 10
171.019
 20
84.9133
 30
0.0
 11
171.019
 21
90.7122
 31
0.0
  0
LINE
  8
0
 62
     0
 10
171.019
 20
90.7122
 30
0.0
 11
171.819
 21
90.7122
 31
0.0
  0
LINE
  8
0
 62
     0
 10
171.819
 20
90.7122
 30
0.0
 11
171.819
 21
93.8128
 31
0.0
  0
LINE
  8
0
 62
     0
 10
171.819
 20
93.8128
 30
0.0
 11
171.019
 21
93.8128
 31
0.0
  0
LINE
  8
0
 62
     0
 10
171.019
 20
93.8128
 30
0.0
 11
171.019
 21
94.8118
 31
0.0
  0
LINE
  8
0
 62
     0
 10
171.019
 20
94.8118
 30
0.0
 11
157.019
 21
94.8118
 31
0.0
  0
LINE
  8
0
 62
     0
 10
176.069
 20
94.8118
 30
0.0
 11
176.069
 21
93.8128
 31
0.0
  0
LINE
  8
0
 62
     0
 10
176.069
 20
93.8128
 30
0.0
 11
175.268
 21
93.8128
 31
0.0
  0
LINE
  8
0
 62
     0
 10
175.268
 20
93.8128
 30
0.0
 11
175.268
 21
90.7122
 31
0.0
  0
LINE
  8
0
 62
     0
 10
175.268
 20
90.7122
 30
0.0
 11
176.069
 21
90.7122
 31
0.0
  0
LINE
  8
0
 62
     0
 10
176.069
 20
90.7122
 30
0.0
 11
176.069
 21
84.9133
 31
0.0
  0
LINE
  8
0
 62
     0
 10
176.069
 20
84.9133
 30
0.0
 11
175.268
 21
84.9133
 31
0.0
  0
LINE
  8
0
 62
     0
 10
175.268
 20
84.9133
 30
0.0
 11
175.268
 21
81.8141
 31
0.0
  0
LINE
  8
0
 62
     0
 10
175.268
 20
81.8141
 30
0.0
 11
176.069
 21
81.8141
 31
0.0
  0
LINE
  8
0
 62
     0
 10
176.069
 20
81.8141
 30
0.0
 11
176.069
 21
80.8136
 31
0.0
  0
LINE
  8
0
 62
     0
 10
176.069
 20
80.8136
 30
0.0
 11
190.069
 21
80.8136
 31
0.0
  0
LINE
  8
0
 62
     0
 10
190.069
 20
80.8136
 30
0.0
 11
190.069
 21
81.8141
 31
0.0
  0
LINE
  8
0
 62
     0
 10
190.069
 20
81.8141
 30
0.0
 11
190.869
 21
81.8141
 31
0.0
  0
LINE
  8
0
 62
     0
 10
190.869
 20
81.8141
 30
0.0
 11
190.869
 21
84.9133
 31
0.0
  0
LINE
  8
0
 62
     0
 10
190.869
 20
84.9133
 30
0.0
 11
190.069
 21
84.9133
 31
0.0
  0
LINE
  8
0
 62
     0
 10
190.069
 20
84.9133
 30
0.0
 11
190.069
 21
90.7122
 31
0.0
  0
LINE
  8
0
 62
     0
 10
190.069
 20
90.7122
 30
0.0
 11
190.869
 21
90.7122
 31
0.0
  0
LINE
  8
0
 62
     0
 10
190.869
 20
90.7122
 30
0.0
 11
190.869
 21
93.8128
 31
0.0
  0
LINE
  8
0
 62
     0
 10
190.869
 20
93.8128
 30
0.0
 11
190.069
 21
93.8128
 31
0.0
  0
LINE
  8
0
 62
     0
 10
190.069
 20
93.8128
 30
0.0
 11
190.069
 21
94.8118
 31
0.0
  0
LINE
  8
0
 62
     0
 10
190.069
 20
94.8118
 30
0.0
 11
176.069
 21
94.8118
 31
0.0
  0
LINE
  8
0
 62
     0
 10
195.119
 20
94.8118
 30
0.0
 11
195.119
 21
93.8128
 31
0.0
  0
LINE
  8
0
 62
     0
 10
195.119
 20
93.8128
 30
0.0
 11
194.318
 21
93.8128
 31
0.0
  0
LINE
  8
0
 62
     0
 10
194.318
 20
93.8128
 30
0.0
 11
194.318
 21
90.7122
 31
0.0
  0
LINE
  8
0
 62
     0
 10
194.318
 20
90.7122
 30
0.0
 11
195.119
 21
90.7122
 31
0.0
  0
LINE
  8
0
 62
     0
 10
195.119
 20
90.7122
 30
0.0
 11
195.119
 21
84.9133
 31
0.0
  0
LINE
  8
0
 62
     0
 10
195.119
 20
84.9133
 30
0.0
 11
194.318
 21
84.9133
 31
0.0
  0
LINE
  8
0
 62
     0
 10
194.318
 20
84.9133
 30
0.0
 11
194.318
 21
81.8141
 31
0.0
  0
LINE
  8
0
 62
     0
 10
194.318
 20
81.8141
 30
0.0
 11
195.119
 21
81.8141
 31
0.0
  0
LINE
  8
0
 62
     0
 10
195.119
 20
81.8141
 30
0.0
 11
195.119
 21
80.8136
 31
0.0
  0
LINE
  8
0
 62
     0
 10
195.119
 20
80.8136
 30
0.0
 11
209.119
 21
80.8136
 31
0.0
  0
LINE
  8
0
 62
     0
 10
209.119
 20
80.8136
 30
0.0
 11
209.119
 21
81.8141
 31
0.0
  0
LINE
  8
0
 62
     0
 10
209.119
 20
81.8141
 30
0.0
 11
209.919
 21
81.8141
 31
0.0
  0
LINE
  8
0
 62
     0
 10
209.919
 20
81.8141
 30
0.0
 11
209.919
 21
84.9133
 31
0.0
  0
LINE
  8
0
 62
     0
 10
209.919
 20
84.9133
 30
0.0
 11
209.119
 21
84.9133
 31
0.0
  0
LINE
  8
0
 62
     0
 10
209.119
 20
84.9133
 30
0.0
 11
209.119
 21
90.7122
 31
0.0
  0
LINE
  8
0
 62
     0
 10
209.119
 20
90.7122
 30
0.0
 11
209.919
 21
90.7122
 31
0.0
  0
LINE
  8
0
 62
     0
 10
209.919
 20
90.7122
 30
0.0
 11
209.919
 21
93.8128
 31
0.0
  0
LINE
  8
0
 62
     0
 10
209.919
 20
93.8128
 30
0.0
 11
209.119
 21
93.8128
 31
0.0
  0
LINE
  8
0
 62
     0
 10
209.119
 20
93.8128
 30
0.0
 11
209.119
 21
94.8118
 31
0.0
  0
LINE
  8
0
 62
     0
 10
209.119
 20
94.8118
 30
0.0
 11
195.119
 21
94.8118
 31
0.0
  0
LINE
  8
0
 62
     0
 10
214.169
 20
94.8118
 30
0.0
 11
214.169
 21
93.8128
 31
0.0
  0
LINE
  8
0
 62
     0
 10
214.169
 20
93.8128
 30
0.0
 11
213.368
 21
93.8128
 31
0.0
  0
LINE
  8
0
 62
     0
 10
213.368
 20
93.8128
 30
0.0
 11
213.368
 21
90.7122
 31
0.0
  0
LINE
  8
0
 62
     0
 10
213.368
 20
90.7122
 30
0.0
 11
214.169
 21
90.7122
 31
0.0
  0
LINE
  8
0
 62
     0
 10
214.169
 20
90.7122
 30
0.0
 11
214.169
 21
84.9133
 31
0.0
  0
LINE
  8
0
 62
     0
 10
214.169
 20
84.9133
 30
0.0
 11
213.368
 21
84.9133
 31
0.0
  0
LINE
  8
0
 62
     0
 10
213.368
 20
84.9133
 30
0.0
 11
213.368
 21
81.8141
 31
0.0
  0
LINE
  8
0
 62
     0
 10
213.368
 20
81.8141
 30
0.0
 11
214.169
 21
81.8141
 31
0.0
  0
LINE
  8
0
 62
     0
 10
214.169
 20
81.8141
 30
0.0
 11
214.169
 21
80.8136
 31
0.0
  0
LINE
  8
0
 62
     0
 10
214.169
 20
80.8136
 30
0.0
 11
228.169
 21
80.8136
 31
0.0
  0
LINE
  8
0
 62
     0
 10
228.169
 20
80.8136
 30
0.0
 11
228.169
 21
81.8141
 31
0.0
  0
LINE
  8
0
 62
     0
 10
228.169
 20
81.8141
 30
0.0
 11
228.969
 21
81.8141
 31
0.0
  0
LINE
  8
0
 62
     0
 10
228.969
 20
81.8141
 30
0.0
 11
228.969
 21
84.9133
 31
0.0
  0
LINE
  8
0
 62
     0
 10
228.969
 20
84.9133
 30
0.0
 11
228.169
 21
84.9133
 31
0.0
  0
LINE
  8
0
 62
     0
 10
228.169
 20
84.9133
 30
0.0
 11
228.169
 21
90.7122
 31
0.0
  0
LINE
  8
0
 62
     0
 10
228.169
 20
90.7122
 30
0.0
 11
228.969
 21
90.7122
 31
0.0
  0
LINE
  8
0
 62
     0
 10
228.969
 20
90.7122
 30
0.0
 11
228.969
 21
93.8128
 31
0.0
  0
LINE
  8
0
 62
     0
 10
228.969
 20
93.8128
 30
0.0
 11
228.169
 21
93.8128
 31
0.0
  0
LINE
  8
0
 62
     0
 10
228.169
 20
93.8128
 30
0.0
 11
228.169
 21
94.8118
 31
0.0
  0
LINE
  8
0
 62
     0
 10
228.169
 20
94.8118
 30
0.0
 11
214.169
 21
94.8118
 31
0.0
  0
LINE
  8
0
 62
     0
 10
233.219
 20
94.8118
 30
0.0
 11
233.219
 21
93.8128
 31
0.0
  0
LINE
  8
0
 62
     0
 10
233.219
 20
93.8128
 30
0.0
 11
232.418
 21
93.8128
 31
0.0
  0
LINE
  8
0
 62
     0
 10
232.418
 20
93.8128
 30
0.0
 11
232.418
 21
90.7122
 31
0.0
  0
LINE
  8
0
 62
     0
 10
232.418
 20
90.7122
 30
0.0
 11
233.219
 21
90.7122
 31
0.0
  0
LINE
  8
0
 62
     0
 10
233.219
 20
90.7122
 30
0.0
 11
233.219
 21
84.9133
 31
0.0
  0
LINE
  8
0
 62
     0
 10
233.219
 20
84.9133
 30
0.0
 11
232.418
 21
84.9133
 31
0.0
  0
LINE
  8
0
 62
     0
 10
232.418
 20
84.9133
 30
0.0
 11
232.418
 21
81.8141
 31
0.0
  0
LINE
  8
0
 62
     0
 10
232.418
 20
81.8141
 30
0.0
 11
233.219
 21
81.8141
 31
0.0
  0
LINE
  8
0
 62
     0
 10
233.219
 20
81.8141
 30
0.0
 11
233.219
 21
80.8136
 31
0.0
  0
LINE
  8
0
 62
     0
 10
233.219
 20
80.8136
 30
0.0
 11
247.219
 21
80.8136
 31
0.0
  0
LINE
  8
0
 62
     0
 10
247.219
 20
80.8136
 30
0.0
 11
247.219
 21
81.8141
 31
0.0
  0
LINE
  8
0
 62
     0
 10
247.219
 20
81.8141
 30
0.0
 11
248.019
 21
81.8141
 31
0.0
  0
LINE
  8
0
 62
     0
 10
248.019
 20
81.8141
 30
0.0
 11
248.019
 21
84.9133
 31
0.0
  0
LINE
  8
0
 62
     0
 10
248.019
 20
84.9133
 30
0.0
 11
247.219
 21
84.9133
 31
0.0
  0
LINE
  8
0
 62
     0
 10
247.219
 20
84.9133
 30
0.0
 11
247.219
 21
90.7122
 31
0.0
  0
LINE
  8
0
 62
     0
 10
247.219
 20
90.7122
 30
0.0
 11
248.019
 21
90.7122
 31
0.0
  0
LINE
  8
0
 62
     0
 10
248.019
 20
90.7122
 30
0.0
 11
248.019
 21
93.8128
 31
0.0
  0
LINE
  8
0
 62
     0
 10
248.019
 20
93.8128
 30
0.0
 11
247.219
 21
93.8128
 31
0.0
  0
LINE
  8
0
 62
     0
 10
247.219
 20
93.8128
 30
0.0
 11
247.219
 21
94.8118
 31
0.0
  0
LINE
  8
0
 62
     0
 10
247.219
 20
94.8118
 30
0.0
 11
233.219
 21
94.8118
 31
0.0
  0
LINE
  8
0
 62
     0
 10
252.269
 20
94.8118
 30
0.0
 11
252.269
 21
93.8128
 31
0.0
  0
LINE
  8
0
 62
     0
 10
252.269
 20
93.8128
 30
0.0
 11
251.468
 21
93.8128
 31
0.0
  0
LINE
  8
0
 62
     0
 10
251.468
 20
93.8128
 30
0.0
 11
251.468
 21
90.7122
 31
0.0
  0
LINE
  8
0
 62
     0
 10
251.468
 20
90.7122
 30
0.0
 11
252.269
 21
90.7122
 31
0.0
  0
LINE
  8
0
 62
     0
 10
252.269
 20
90.7122
 30
0.0
 11
252.269
 21
84.9133
 31
0.0
  0
LINE
  8
0
 62
     0
 10
252.269
 20
84.9133
 30
0.0
 11
251.468
 21
84.9133
 31
0.0
  0
LINE
  8
0
 62
     0
 10
251.468
 20
84.9133
 30
0.0
 11
251.468
 21
81.8141
 31
0.0
  0
LINE
  8
0
 62
     0
 10
251.468
 20
81.8141
 30
0.0
 11
252.269
 21
81.8141
 31
0.0
  0
LINE
  8
0
 62
     0
 10
252.269
 20
81.8141
 30
0.0
 11
252.269
 21
80.8136
 31
0.0
  0
LINE
  8
0
 62
     0
 10
252.269
 20
80.8136
 30
0.0
 11
266.269
 21
80.8136
 31
0.0
  0
LINE
  8
0
 62
     0
 10
266.269
 20
80.8136
 30
0.0
 11
266.269
 21
81.8141
 31
0.0
  0
LINE
  8
0
 62
     0
 10
266.269
 20
81.8141
 30
0.0
 11
267.069
 21
81.8141
 31
0.0
  0
LINE
  8
0
 62
     0
 10
267.069
 20
81.8141
 30
0.0
 11
267.069
 21
84.9133
 31
0.0
  0
LINE
  8
0
 62
     0
 10
267.069
 20
84.9133
 30
0.0
 11
266.269
 21
84.9133
 31
0.0
  0
LINE
  8
0
 62
     0
 10
266.269
 20
84.9133
 30
0.0
 11
266.269
 21
90.7122
 31
0.0
  0
LINE
  8
0
 62
     0
 10
266.269
 20
90.7122
 30
0.0
 11
267.069
 21
90.7122
 31
0.0
  0
LINE
  8
0
 62
     0
 10
267.069
 20
90.7122
 30
0.0
 11
267.069
 21
93.8128
 31
0.0
  0
LINE
  8
0
 62
     0
 10
267.069
 20
93.8128
 30
0.0
 11
266.269
 21
93.8128
 31
0.0
  0
LINE
  8
0
 62
     0
 10
266.269
 20
93.8128
 30
0.0
 11
266.269
 21
94.8118
 31
0.0
  0
LINE
  8
0
 62
     0
 10
266.269
 20
94.8118
 30
0.0
 11
252.269
 21
94.8118
 31
0.0
  0
ENDSEC
  0
EOF
