<?xml version="1.0"?>
<!-- Generated by SVGo -->
<svg width="280.701mm" height="125.538mm"
     viewBox="0.000 0.000 280.701 125.538"
     xmlns="http://www.w3.org/2000/svg" 
     xmlns:xlink="http://www.w3.org/1999/xlink">
<polygon points="275.701,120.538 5.000,120.538 5.000,5.000 275.701,5.000" style="fill:none;stroke-width:0.050000mm;stroke:black"/>
<polygon points="133.350,102.012 133.350,103.012 132.549,103.012 132.549,106.112 133.350,106.112 133.350,106.712 115.149,106.712 115.149,103.482 108.399,103.482 108.399,106.712 107.574,106.712 107.574,109.512 108.399,109.512 108.399,115.782 110.125,115.782 110.125,116.982 113.425,116.982 113.425,115.782 115.149,115.782 115.149,111.312 133.350,111.312 133.350,111.912 132.549,111.912 132.549,115.012 133.350,115.012 133.350,116.012 147.350,116.012 147.350,115.012 148.150,115.012 148.150,111.912 147.350,111.912 147.350,111.312 165.549,111.312 165.549,115.782 167.275,115.782 167.275,116.982 170.575,116.982 170.575,115.782 172.299,115.782 172.299,109.512 173.125,109.512 173.125,106.712 172.299,106.712 172.299,103.482 165.549,103.482 165.549,106.712 147.350,106.712 147.350,106.112 148.150,106.112 148.150,103.012 147.350,103.012 147.350,102.012" style="fill:none;stroke-width:0.050000mm;stroke:black"/>
<polygon points="28.575,102.012 28.575,103.012 27.775,103.012 27.775,106.112 28.575,106.112 28.575,111.912 27.775,111.912 27.775,115.012 28.575,115.012 28.575,116.012 42.575,116.012 42.575,115.012 43.375,115.012 43.375,111.912 42.575,111.912 42.575,106.112 43.375,106.112 43.375,103.012 42.575,103.012 42.575,102.012" style="fill:none;stroke-width:0.050000mm;stroke:black"/>
<polygon points="47.625,102.012 47.625,103.012 46.825,103.012 46.825,106.112 47.625,106.112 47.625,111.912 46.825,111.912 46.825,115.012 47.625,115.012 47.625,116.012 61.625,116.012 61.625,115.012 62.425,115.012 62.425,111.912 61.625,111.912 61.625,106.112 62.425,106.112 62.425,103.012 61.625,103.012 61.625,102.012" style="fill:none;stroke-width:0.050000mm;stroke:black"/>
<polygon points="66.675,102.012 66.675,103.012 65.875,103.012 65.875,106.112 66.675,106.112 66.675,111.912 65.875,111.912 65.875,115.012 66.675,115.012 66.675,116.012 80.675,116.012 80.675,115.012 81.475,115.012 81.475,111.912 80.675,111.912 80.675,106.112 81.475,106.112 81.475,103.012 80.675,103.012 80.675,102.012" style="fill:none;stroke-width:0.050000mm;stroke:black"/>
<polygon points="85.725,102.012 85.725,103.012 84.925,103.012 84.925,106.112 85.725,106.112 85.725,111.912 84.925,111.912 84.925,115.012 85.725,115.012 85.725,116.012 99.725,116.012 99.725,115.012 100.524,115.012 100.524,111.912 99.725,111.912 99.725,106.112 100.524,106.112 100.524,103.012 99.725,103.012 99.725,102.012" style="fill:none;stroke-width:0.050000mm;stroke:black"/>
<polygon points="180.975,102.012 180.975,103.012 180.174,103.012 180.174,106.112 180.975,106.112 180.975,111.912 180.174,111.912 180.174,115.012 180.975,115.012 180.975,116.012 194.975,116.012 194.975,115.012 195.775,115.012 195.775,111.912 194.975,111.912 194.975,106.112 195.775,106.112 195.775,103.012 194.975,103.012 194.975,102.012" style="fill:none;stroke-width:0.050000mm;stroke:black"/>
<polygon points="200.025,102.012 200.025,103.012 199.225,103.012 199.225,106.112 200.025,106.112 200.025,111.912 199.225,111.912 199.225,115.012 200.025,115.012 200.025,116.012 214.025,116.012 214.025,115.012 214.825,115.012 214.825,111.912 214.025,111.912 214.025,106.112 214.825,106.112 214.825,103.012 214.025,103.012 214.025,102.012" style="fill:none;stroke-width:0.050000mm;stroke:black"/>
<polygon points="219.075,102.012 219.075,103.012 218.275,103.012 218.275,106.112 219.075,106.112 219.075,111.912 218.275,111.912 218.275,115.012 219.075,115.012 219.075,116.012 233.075,116.012 233.075,115.012 233.875,115.012 233.875,111.912 233.075,111.912 233.075,106.112 233.875,106.112 233.875,103.012 233.075,103.012 233.075,102.012" style="fill:none;stroke-width:0.050000mm;stroke:black"/>
<polygon points="238.125,102.012 238.125,103.012 237.325,103.012 237.325,106.112 238.125,106.112 238.125,111.912 237.325,111.912 237.325,115.012 238.125,115.012 238.125,116.012 252.125,116.012 252.125,115.012 252.925,115.012 252.925,111.912 252.125,111.912 252.125,106.112 252.925,106.112 252.925,103.012 252.125,103.012 252.125,102.012" style="fill:none;stroke-width:0.050000mm;stroke:black"/>
<polygon points="16.668,82.962 16.668,83.962 15.868,83.962 15.868,87.062 16.668,87.062 16.668,92.862 15.868,92.862 15.868,95.962 16.668,95.962 16.668,96.962 30.668,96.962 30.668,95.962 31.468,95.962 31.468,92.862 30.668,92.862 30.668,87.062 31.468,87.062 31.468,83.962 30.668,83.962 30.668,82.962" style="fill:none;stroke-width:0.050000mm;stroke:black"/>
<polygon points="42.862,82.962 42.862,83.962 42.062,83.962 42.062,87.062 42.862,87.062 42.862,92.862 42.062,92.862 42.062,95.962 42.862,95.962 42.862,96.962 56.862,96.962 56.862,95.962 57.662,95.962 57.662,92.862 56.862,92.862 56.862,87.062 57.662,87.062 57.662,83.962 56.862,83.962 56.862,82.962" style="fill:none;stroke-width:0.050000mm;stroke:black"/>
<polygon points="61.912,82.962 61.912,83.962 61.112,83.962 61.112,87.062 61.912,87.062 61.912,92.862 61.112,92.862 61.112,95.962 61.912,95.962 61.912,96.962 75.912,96.962 75.912,95.962 76.712,95.962 76.712,92.862 75.912,92.862 75.912,87.062 76.712,87.062 76.712,83.962 75.912,83.962 75.912,82.962" style="fill:none;stroke-width:0.050000mm;stroke:black"/>
<polygon points="80.962,82.962 80.962,83.962 80.162,83.962 80.162,87.062 80.962,87.062 80.962,92.862 80.162,92.862 80.162,95.962 80.962,95.962 80.962,96.962 94.962,96.962 94.962,95.962 95.762,95.962 95.762,92.862 94.962,92.862 94.962,87.062 95.762,87.062 95.762,83.962 94.962,83.962 94.962,82.962" style="fill:none;stroke-width:0.050000mm;stroke:black"/>
<polygon points="100.012,82.962 100.012,83.962 99.212,83.962 99.212,87.062 100.012,87.062 100.012,92.862 99.212,92.862 99.212,95.962 100.012,95.962 100.012,96.962 114.012,96.962 114.012,95.962 114.812,95.962 114.812,92.862 114.012,92.862 114.012,87.062 114.812,87.062 114.812,83.962 114.012,83.962 114.012,82.962" style="fill:none;stroke-width:0.050000mm;stroke:black"/>
<polygon points="119.062,82.962 119.062,83.962 118.262,83.962 118.262,87.062 119.062,87.062 119.062,92.862 118.262,92.862 118.262,95.962 119.062,95.962 119.062,96.962 133.062,96.962 133.062,95.962 133.862,95.962 133.862,92.862 133.062,92.862 133.062,87.062 133.862,87.062 133.862,83.962 133.062,83.962 133.062,82.962" style="fill:none;stroke-width:0.050000mm;stroke:black"/>
<polygon points="138.112,82.962 138.112,83.962 137.312,83.962 137.312,87.062 138.112,87.062 138.112,92.862 137.312,92.862 137.312,95.962 138.112,95.962 138.112,96.962 152.112,96.962 152.112,95.962 152.912,95.962 152.912,92.862 152.112,92.862 152.112,87.062 152.912,87.062 152.912,83.962 152.112,83.962 152.112,82.962" style="fill:none;stroke-width:0.050000mm;stroke:black"/>
<polygon points="157.162,82.962 157.162,83.962 156.362,83.962 156.362,87.062 157.162,87.062 157.162,92.862 156.362,92.862 156.362,95.962 157.162,95.962 157.162,96.962 171.162,96.962 171.162,95.962 171.962,95.962 171.962,92.862 171.162,92.862 171.162,87.062 171.962,87.062 171.962,83.962 171.162,83.962 171.162,82.962" style="fill:none;stroke-width:0.050000mm;stroke:black"/>
<polygon points="176.212,82.962 176.212,83.962 175.412,83.962 175.412,87.062 176.212,87.062 176.212,92.862 175.412,92.862 175.412,95.962 176.212,95.962 176.212,96.962 190.212,96.962 190.212,95.962 191.012,95.962 191.012,92.862 190.212,92.862 190.212,87.062 191.012,87.062 191.012,83.962 190.212,83.962 190.212,82.962" style="fill:none;stroke-width:0.050000mm;stroke:black"/>
<polygon points="195.262,82.962 195.262,83.962 194.462,83.962 194.462,87.062 195.262,87.062 195.262,92.862 194.462,92.862 194.462,95.962 195.262,95.962 195.262,96.962 209.262,96.962 209.262,95.962 210.062,95.962 210.062,92.862 209.262,92.862 209.262,87.062 210.062,87.062 210.062,83.962 209.262,83.962 209.262,82.962" style="fill:none;stroke-width:0.050000mm;stroke:black"/>
<polygon points="214.312,82.962 214.312,83.962 213.512,83.962 213.512,87.062 214.312,87.062 214.312,92.862 213.512,92.862 213.512,95.962 214.312,95.962 214.312,96.962 228.312,96.962 228.312,95.962 229.112,95.962 229.112,92.862 228.312,92.862 228.312,87.062 229.112,87.062 229.112,83.962 228.312,83.962 228.312,82.962" style="fill:none;stroke-width:0.050000mm;stroke:black"/>
<polygon points="233.362,82.962 233.362,83.962 232.562,83.962 232.562,87.062 233.362,87.062 233.362,92.862 232.562,92.862 232.562,95.962 233.362,95.962 233.362,96.962 247.362,96.962 247.362,95.962 248.162,95.962 248.162,92.862 247.362,92.862 247.362,87.062 248.162,87.062 248.162,83.962 247.362,83.962 247.362,82.962" style="fill:none;stroke-width:0.050000mm;stroke:black"/>
<polygon points="254.793,82.962 254.793,83.962 253.993,83.962 253.993,87.062 254.793,87.062 254.793,92.862 253.993,92.862 253.993,95.962 254.793,95.962 254.793,96.962 268.793,96.962 268.793,95.962 269.593,95.962 269.593,92.862 268.793,92.862 268.793,87.062 269.593,87.062 269.593,83.962 268.793,83.962 268.793,82.962" style="fill:none;stroke-width:0.050000mm;stroke:black"/>
<polygon points="14.287,63.912 14.287,64.912 13.487,64.912 13.487,68.012 14.287,68.012 14.287,73.812 13.487,73.812 13.487,76.912 14.287,76.912 14.287,77.912 28.287,77.912 28.287,76.912 29.087,76.912 29.087,73.812 28.287,73.812 28.287,68.012 29.087,68.012 29.087,64.912 28.287,64.912 28.287,63.912" style="fill:none;stroke-width:0.050000mm;stroke:black"/>
<polygon points="38.100,63.912 38.100,64.912 37.300,64.912 37.300,68.012 38.100,68.012 38.100,73.812 37.300,73.812 37.300,76.912 38.100,76.912 38.100,77.912 52.100,77.912 52.100,76.912 52.900,76.912 52.900,73.812 52.100,73.812 52.100,68.012 52.900,68.012 52.900,64.912 52.100,64.912 52.100,63.912" style="fill:none;stroke-width:0.050000mm;stroke:black"/>
<polygon points="57.150,63.912 57.150,64.912 56.350,64.912 56.350,68.012 57.150,68.012 57.150,73.812 56.350,73.812 56.350,76.912 57.150,76.912 57.150,77.912 71.150,77.912 71.150,76.912 71.950,76.912 71.950,73.812 71.150,73.812 71.150,68.012 71.950,68.012 71.950,64.912 71.150,64.912 71.150,63.912" style="fill:none;stroke-width:0.050000mm;stroke:black"/>
<polygon points="76.200,63.912 76.200,64.912 75.400,64.912 75.400,68.012 76.200,68.012 76.200,73.812 75.400,73.812 75.400,76.912 76.200,76.912 76.200,77.912 90.200,77.912 90.200,76.912 91.000,76.912 91.000,73.812 90.200,73.812 90.200,68.012 91.000,68.012 91.000,64.912 90.200,64.912 90.200,63.912" style="fill:none;stroke-width:0.050000mm;stroke:black"/>
<polygon points="95.250,63.912 95.250,64.912 94.450,64.912 94.450,68.012 95.250,68.012 95.250,73.812 94.450,73.812 94.450,76.912 95.250,76.912 95.250,77.912 109.250,77.912 109.250,76.912 110.050,76.912 110.050,73.812 109.250,73.812 109.250,68.012 110.050,68.012 110.050,64.912 109.250,64.912 109.250,63.912" style="fill:none;stroke-width:0.050000mm;stroke:black"/>
<polygon points="114.300,63.912 114.300,64.912 113.500,64.912 113.500,68.012 114.300,68.012 114.300,73.812 113.500,73.812 113.500,76.912 114.300,76.912 114.300,77.912 128.300,77.912 128.300,76.912 129.100,76.912 129.100,73.812 128.300,73.812 128.300,68.012 129.100,68.012 129.100,64.912 128.300,64.912 128.300,63.912" style="fill:none;stroke-width:0.050000mm;stroke:black"/>
<polygon points="133.350,63.912 133.350,64.912 132.549,64.912 132.549,68.012 133.350,68.012 133.350,73.812 132.549,73.812 132.549,76.912 133.350,76.912 133.350,77.912 147.350,77.912 147.350,76.912 148.150,76.912 148.150,73.812 147.350,73.812 147.350,68.012 148.150,68.012 148.150,64.912 147.350,64.912 147.350,63.912" style="fill:none;stroke-width:0.050000mm;stroke:black"/>
<polygon points="152.400,63.912 152.400,64.912 151.600,64.912 151.600,68.012 152.400,68.012 152.400,73.812 151.600,73.812 151.600,76.912 152.400,76.912 152.400,77.912 166.400,77.912 166.400,76.912 167.200,76.912 167.200,73.812 166.400,73.812 166.400,68.012 167.200,68.012 167.200,64.912 166.400,64.912 166.400,63.912" style="fill:none;stroke-width:0.050000mm;stroke:black"/>
<polygon points="171.450,63.912 171.450,64.912 170.650,64.912 170.650,68.012 171.450,68.012 171.450,73.812 170.650,73.812 170.650,76.912 171.450,76.912 171.450,77.912 185.450,77.912 185.450,76.912 186.250,76.912 186.250,73.812 185.450,73.812 185.450,68.012 186.250,68.012 186.250,64.912 185.450,64.912 185.450,63.912" style="fill:none;stroke-width:0.050000mm;stroke:black"/>
<polygon points="190.500,63.912 190.500,64.912 189.700,64.912 189.700,68.012 190.500,68.012 190.500,73.812 189.700,73.812 189.700,76.912 190.500,76.912 190.500,77.912 204.500,77.912 204.500,76.912 205.300,76.912 205.300,73.812 204.500,73.812 204.500,68.012 205.300,68.012 205.300,64.912 204.500,64.912 204.500,63.912" style="fill:none;stroke-width:0.050000mm;stroke:black"/>
<polygon points="209.550,63.912 209.550,64.912 208.750,64.912 208.750,68.012 209.550,68.012 209.550,73.812 208.750,73.812 208.750,76.912 209.550,76.912 209.550,77.912 223.550,77.912 223.550,76.912 224.350,76.912 224.350,73.812 223.550,73.812 223.550,68.012 224.350,68.012 224.350,64.912 223.550,64.912 223.550,63.912" style="fill:none;stroke-width:0.050000mm;stroke:black"/>
<polygon points="228.600,63.912 228.600,64.912 227.800,64.912 227.800,68.012 228.600,68.012 228.600,73.812 227.800,73.812 227.800,76.912 228.600,76.912 228.600,77.912 242.600,77.912 242.600,76.912 243.400,76.912 243.400,73.812 242.600,73.812 242.600,68.012 243.400,68.012 243.400,64.912 242.600,64.912 242.600,63.912" style="fill:none;stroke-width:0.050000mm;stroke:black"/>
<polygon points="252.412,63.912 252.412,64.912 251.612,64.912 251.612,68.012 252.412,68.012 252.412,73.812 251.612,73.812 251.612,76.912 252.412,76.912 252.412,77.912 266.412,77.912 266.412,76.912 267.212,76.912 267.212,73.812 266.412,73.812 266.412,68.012 267.212,68.012 267.212,64.912 266.412,64.912 266.412,63.912" style="fill:none;stroke-width:0.050000mm;stroke:black"/>
<polygon points="11.906,44.862 11.906,45.862 11.106,45.862 11.106,48.962 11.906,48.962 11.906,54.762 11.106,54.762 11.106,57.862 11.906,57.862 11.906,58.862 25.906,58.862 25.906,57.862 26.706,57.862 26.706,54.762 25.906,54.762 25.906,48.962 26.706,48.962 26.706,45.862 25.906,45.862 25.906,44.862" style="fill:none;stroke-width:0.050000mm;stroke:black"/>
<polygon points="33.337,44.862 33.337,45.862 32.537,45.862 32.537,48.962 33.337,48.962 33.337,54.762 32.537,54.762 32.537,57.862 33.337,57.862 33.337,58.862 47.337,58.862 47.337,57.862 48.137,57.862 48.137,54.762 47.337,54.762 47.337,48.962 48.137,48.962 48.137,45.862 47.337,45.862 47.337,44.862" style="fill:none;stroke-width:0.050000mm;stroke:black"/>
<polygon points="52.387,44.862 52.387,45.862 51.587,45.862 51.587,48.962 52.387,48.962 52.387,54.762 51.587,54.762 51.587,57.862 52.387,57.862 52.387,58.862 66.387,58.862 66.387,57.862 67.187,57.862 67.187,54.762 66.387,54.762 66.387,48.962 67.187,48.962 67.187,45.862 66.387,45.862 66.387,44.862" style="fill:none;stroke-width:0.050000mm;stroke:black"/>
<polygon points="71.437,44.862 71.437,45.862 70.637,45.862 70.637,48.962 71.437,48.962 71.437,54.762 70.637,54.762 70.637,57.862 71.437,57.862 71.437,58.862 85.437,58.862 85.437,57.862 86.237,57.862 86.237,54.762 85.437,54.762 85.437,48.962 86.237,48.962 86.237,45.862 85.437,45.862 85.437,44.862" style="fill:none;stroke-width:0.050000mm;stroke:black"/>
<polygon points="90.487,44.862 90.487,45.862 89.687,45.862 89.687,48.962 90.487,48.962 90.487,54.762 89.687,54.762 89.687,57.862 90.487,57.862 90.487,58.862 104.487,58.862 104.487,57.862 105.287,57.862 105.287,54.762 104.487,54.762 104.487,48.962 105.287,48.962 105.287,45.862 104.487,45.862 104.487,44.862" style="fill:none;stroke-width:0.050000mm;stroke:black"/>
<polygon points="109.537,44.862 109.537,45.862 108.737,45.862 108.737,48.962 109.537,48.962 109.537,54.762 108.737,54.762 108.737,57.862 109.537,57.862 109.537,58.862 123.537,58.862 123.537,57.862 124.337,57.862 124.337,54.762 123.537,54.762 123.537,48.962 124.337,48.962 124.337,45.862 123.537,45.862 123.537,44.862" style="fill:none;stroke-width:0.050000mm;stroke:black"/>
<polygon points="128.586,44.862 128.586,45.862 127.787,45.862 127.787,48.962 128.586,48.962 128.586,54.762 127.787,54.762 127.787,57.862 128.586,57.862 128.586,58.862 142.587,58.862 142.587,57.862 143.387,57.862 143.387,54.762 142.587,54.762 142.587,48.962 143.387,48.962 143.387,45.862 142.587,45.862 142.587,44.862" style="fill:none;stroke-width:0.050000mm;stroke:black"/>
<polygon points="147.637,44.862 147.637,45.862 146.837,45.862 146.837,48.962 147.637,48.962 147.637,54.762 146.837,54.762 146.837,57.862 147.637,57.862 147.637,58.862 161.637,58.862 161.637,57.862 162.437,57.862 162.437,54.762 161.637,54.762 161.637,48.962 162.437,48.962 162.437,45.862 161.637,45.862 161.637,44.862" style="fill:none;stroke-width:0.050000mm;stroke:black"/>
<polygon points="166.687,44.862 166.687,45.862 165.887,45.862 165.887,48.962 166.687,48.962 166.687,54.762 165.887,54.762 165.887,57.862 166.687,57.862 166.687,58.862 180.687,58.862 180.687,57.862 181.487,57.862 181.487,54.762 180.687,54.762 180.687,48.962 181.487,48.962 181.487,45.862 180.687,45.862 180.687,44.862" style="fill:none;stroke-width:0.050000mm;stroke:black"/>
<polygon points="185.737,44.862 185.737,45.862 184.937,45.862 184.937,48.962 185.737,48.962 185.737,54.762 184.937,54.762 184.937,57.862 185.737,57.862 185.737,58.862 199.737,58.862 199.737,57.862 200.537,57.862 200.537,54.762 199.737,54.762 199.737,48.962 200.537,48.962 200.537,45.862 199.737,45.862 199.737,44.862" style="fill:none;stroke-width:0.050000mm;stroke:black"/>
<polygon points="204.787,44.862 204.787,45.862 203.987,45.862 203.987,48.962 204.787,48.962 204.787,54.762 203.987,54.762 203.987,57.862 204.787,57.862 204.787,58.862 218.787,58.862 218.787,57.862 219.587,57.862 219.587,54.762 218.787,54.762 218.787,48.962 219.587,48.962 219.587,45.862 218.787,45.862 218.787,44.862" style="fill:none;stroke-width:0.050000mm;stroke:black"/>
<polygon points="223.837,44.862 223.837,45.862 223.037,45.862 223.037,48.962 223.837,48.962 223.837,54.762 223.037,54.762 223.037,57.862 223.837,57.862 223.837,58.862 237.837,58.862 237.837,57.862 238.637,57.862 238.637,54.762 237.837,54.762 237.837,48.962 238.637,48.962 238.637,45.862 237.837,45.862 237.837,44.862" style="fill:none;stroke-width:0.050000mm;stroke:black"/>
<polygon points="250.031,44.862 250.031,45.862 249.231,45.862 249.231,48.962 250.031,48.962 250.031,54.762 249.231,54.762 249.231,57.862 250.031,57.862 250.031,58.862 264.031,58.862 264.031,57.862 264.831,57.862 264.831,54.762 264.031,54.762 264.031,48.962 264.831,48.962 264.831,45.862 264.031,45.862 264.031,44.862" style="fill:none;stroke-width:0.050000mm;stroke:black"/>
<polygon points="9.524,25.812 9.524,26.812 8.724,26.812 8.724,29.912 9.524,29.912 9.524,35.712 8.724,35.712 8.724,38.812 9.524,38.812 9.524,39.812 23.525,39.812 23.525,38.812 24.325,38.812 24.325,35.712 23.525,35.712 23.525,29.912 24.325,29.912 24.325,26.812 23.525,26.812 23.525,25.812" style="fill:none;stroke-width:0.050000mm;stroke:black"/>
<polygon points="28.575,25.812 28.575,26.812 27.775,26.812 27.775,29.912 28.575,29.912 28.575,35.712 27.775,35.712 27.775,38.812 28.575,38.812 28.575,39.812 42.575,39.812 42.575,38.812 43.375,38.812 43.375,35.712 42.575,35.712 42.575,29.912 43.375,29.912 43.375,26.812 42.575,26.812 42.575,25.812" style="fill:none;stroke-width:0.050000mm;stroke:black"/>
<polygon points="47.625,25.812 47.625,26.812 46.825,26.812 46.825,29.912 47.625,29.912 47.625,35.712 46.825,35.712 46.825,38.812 47.625,38.812 47.625,39.812 61.625,39.812 61.625,38.812 62.425,38.812 62.425,35.712 61.625,35.712 61.625,29.912 62.425,29.912 62.425,26.812 61.625,26.812 61.625,25.812" style="fill:none;stroke-width:0.050000mm;stroke:black"/>
<polygon points="66.675,25.812 66.675,26.812 65.875,26.812 65.875,29.912 66.675,29.912 66.675,35.712 65.875,35.712 65.875,38.812 66.675,38.812 66.675,39.812 80.675,39.812 80.675,38.812 81.475,38.812 81.475,35.712 80.675,35.712 80.675,29.912 81.475,29.912 81.475,26.812 80.675,26.812 80.675,25.812" style="fill:none;stroke-width:0.050000mm;stroke:black"/>
<polygon points="85.725,25.812 85.725,26.812 84.925,26.812 84.925,29.912 85.725,29.912 85.725,35.712 84.925,35.712 84.925,38.812 85.725,38.812 85.725,39.812 99.725,39.812 99.725,38.812 100.524,38.812 100.524,35.712 99.725,35.712 99.725,29.912 100.524,29.912 100.524,26.812 99.725,26.812 99.725,25.812" style="fill:none;stroke-width:0.050000mm;stroke:black"/>
<polygon points="104.774,25.812 104.774,26.812 103.975,26.812 103.975,29.912 104.774,29.912 104.774,35.712 103.975,35.712 103.975,38.812 104.774,38.812 104.774,39.812 118.774,39.812 118.774,38.812 119.574,38.812 119.574,35.712 118.774,35.712 118.774,29.912 119.574,29.912 119.574,26.812 118.774,26.812 118.774,25.812" style="fill:none;stroke-width:0.050000mm;stroke:black"/>
<polygon points="123.824,25.812 123.824,26.812 123.024,26.812 123.024,29.912 123.824,29.912 123.824,35.712 123.024,35.712 123.024,38.812 123.824,38.812 123.824,39.812 137.825,39.812 137.825,38.812 138.625,38.812 138.625,35.712 137.825,35.712 137.825,29.912 138.625,29.912 138.625,26.812 137.825,26.812 137.825,25.812" style="fill:none;stroke-width:0.050000mm;stroke:black"/>
<polygon points="142.875,25.812 142.875,26.812 142.075,26.812 142.075,29.912 142.875,29.912 142.875,35.712 142.075,35.712 142.075,38.812 142.875,38.812 142.875,39.812 156.875,39.812 156.875,38.812 157.675,38.812 157.675,35.712 156.875,35.712 156.875,29.912 157.675,29.912 157.675,26.812 156.875,26.812 156.875,25.812" style="fill:none;stroke-width:0.050000mm;stroke:black"/>
<polygon points="161.925,25.812 161.925,26.812 161.125,26.812 161.125,29.912 161.925,29.912 161.925,35.712 161.125,35.712 161.125,38.812 161.925,38.812 161.925,39.812 175.925,39.812 175.925,38.812 176.725,38.812 176.725,35.712 175.925,35.712 175.925,29.912 176.725,29.912 176.725,26.812 175.925,26.812 175.925,25.812" style="fill:none;stroke-width:0.050000mm;stroke:black"/>
<polygon points="180.975,25.812 180.975,26.812 180.175,26.812 180.175,29.912 180.975,29.912 180.975,35.712 180.175,35.712 180.175,38.812 180.975,38.812 180.975,39.812 194.975,39.812 194.975,38.812 195.775,38.812 195.775,35.712 194.975,35.712 194.975,29.912 195.775,29.912 195.775,26.812 194.975,26.812 194.975,25.812" style="fill:none;stroke-width:0.050000mm;stroke:black"/>
<polygon points="200.025,25.812 200.025,26.812 199.225,26.812 199.225,29.912 200.025,29.912 200.025,35.712 199.225,35.712 199.225,38.812 200.025,38.812 200.025,39.812 214.025,39.812 214.025,38.812 214.825,38.812 214.825,35.712 214.025,35.712 214.025,29.912 214.825,29.912 214.825,26.812 214.025,26.812 214.025,25.812" style="fill:none;stroke-width:0.050000mm;stroke:black"/>
<polygon points="219.075,25.812 219.075,26.812 218.275,26.812 218.275,29.912 219.075,29.912 219.075,35.712 218.275,35.712 218.275,38.812 219.075,38.812 219.075,39.812 233.075,39.812 233.075,38.812 233.875,38.812 233.875,35.712 233.075,35.712 233.075,29.912 233.875,29.912 233.875,26.812 233.075,26.812 233.075,25.812" style="fill:none;stroke-width:0.050000mm;stroke:black"/>
<polygon points="238.125,25.812 238.125,26.812 237.325,26.812 237.325,29.912 238.125,29.912 238.125,35.712 237.325,35.712 237.325,38.812 238.125,38.812 238.125,39.812 252.125,39.812 252.125,38.812 252.925,38.812 252.925,35.712 252.125,35.712 252.125,29.912 252.925,29.912 252.925,26.812 252.125,26.812 252.125,25.812" style="fill:none;stroke-width:0.050000mm;stroke:black"/>
<polygon points="257.175,25.812 257.175,26.812 256.375,26.812 256.375,29.912 257.175,29.912 257.175,35.712 256.375,35.712 256.375,38.812 257.175,38.812 257.175,39.812 271.175,39.812 271.175,38.812 271.975,38.812 271.975,35.712 271.175,35.712 271.175,29.912 271.975,29.912 271.975,26.812 271.175,26.812 271.175,25.812" style="fill:none;stroke-width:0.050000mm;stroke:black"/>
</svg>
