<?xml version="1.0"?>
<!-- Generated by SVGo -->
<svg width="322.189mm" height="126.927mm"
     viewBox="0.000 0.000 322.189 126.927"
     xmlns="http://www.w3.org/2000/svg" 
     xmlns:xlink="http://www.w3.org/1999/xlink">
<polygon points="314.189,5.001 314.424,5.010 314.658,5.037 314.889,5.083 315.116,5.147 315.337,5.229 315.551,5.327 315.756,5.443 315.952,5.573 316.137,5.719 316.310,5.879 316.470,6.052 316.616,6.237 316.747,6.433 316.862,6.639 316.961,6.852 317.042,7.073 317.106,7.300 317.152,7.531 317.180,7.765 317.189,8.001 317.189,118.927 317.180,119.162 317.152,119.396 317.106,119.627 317.042,119.854 316.961,120.075 316.862,120.288 316.747,120.494 316.616,120.690 316.470,120.875 316.310,121.048 316.137,121.208 315.952,121.354 315.756,121.484 315.551,121.600 315.337,121.698 315.116,121.780 314.889,121.844 314.658,121.890 314.424,121.917 314.189,121.927 8.001,121.927 7.765,121.917 7.531,121.890 7.300,121.844 7.073,121.780 6.852,121.698 6.639,121.600 6.433,121.484 6.237,121.354 6.052,121.208 5.879,121.048 5.719,120.875 5.573,120.690 5.443,120.494 5.327,120.288 5.229,120.075 5.147,119.854 5.083,119.627 5.037,119.396 5.010,119.162 5.000,118.927 5.001,8.001 5.010,7.765 5.037,7.531 5.083,7.300 5.147,7.073 5.229,6.852 5.327,6.639 5.443,6.433 5.573,6.237 5.719,6.052 5.879,5.879 6.052,5.719 6.237,5.573 6.433,5.443 6.639,5.327 6.852,5.229 7.073,5.147 7.300,5.083 7.531,5.037 7.765,5.010 8.001,5.000" style="fill:none;stroke-width:0.050000mm;stroke:black"/>
<polygon points="313.828,117.972 313.570,118.103 313.366,118.308 313.234,118.566 313.189,118.852 313.234,119.137 313.366,119.395 313.570,119.600 313.828,119.731 314.114,119.777 314.400,119.731 314.658,119.600 314.862,119.395 314.994,119.137 315.039,118.852 314.994,118.566 314.862,118.308 314.658,118.103 314.400,117.972 314.114,117.927" style="fill:none;stroke-width:0.050000mm;stroke:black"/>
<polygon points="211.815,117.972 211.557,118.103 211.353,118.308 211.221,118.566 211.176,118.852 211.221,119.137 211.353,119.395 211.557,119.600 211.815,119.731 212.101,119.777 212.387,119.731 212.645,119.600 212.850,119.395 212.981,119.137 213.026,118.852 212.981,118.566 212.850,118.308 212.645,118.103 212.387,117.972 212.101,117.927" style="fill:none;stroke-width:0.050000mm;stroke:black"/>
<polygon points="109.802,117.972 109.545,118.103 109.340,118.308 109.209,118.566 109.163,118.852 109.209,119.137 109.340,119.395 109.545,119.600 109.802,119.731 110.088,119.777 110.374,119.731 110.632,119.600 110.837,119.395 110.968,119.137 111.013,118.852 110.968,118.566 110.837,118.308 110.632,118.103 110.374,117.972 110.088,117.927" style="fill:none;stroke-width:0.050000mm;stroke:black"/>
<polygon points="7.790,117.972 7.532,118.103 7.327,118.308 7.196,118.566 7.151,118.852 7.196,119.137 7.327,119.395 7.532,119.600 7.790,119.731 8.075,119.777 8.361,119.731 8.619,119.600 8.824,119.395 8.955,119.137 9.001,118.852 8.955,118.566 8.824,118.308 8.619,118.103 8.361,117.972 8.075,117.927" style="fill:none;stroke-width:0.050000mm;stroke:black"/>
<polygon points="13.676,99.401 13.676,113.251 27.526,113.251 27.526,99.401" style="fill:none;stroke-width:0.050000mm;stroke:black"/>
<polygon points="32.726,99.401 32.726,113.251 46.576,113.251 46.576,99.401" style="fill:none;stroke-width:0.050000mm;stroke:black"/>
<polygon points="108.926,99.401 108.926,113.251 122.776,113.251 122.776,99.401" style="fill:none;stroke-width:0.050000mm;stroke:black"/>
<polygon points="199.413,99.401 199.413,113.251 213.263,113.251 213.263,99.401" style="fill:none;stroke-width:0.050000mm;stroke:black"/>
<polygon points="275.613,99.401 275.613,113.251 289.463,113.251 289.463,99.401" style="fill:none;stroke-width:0.050000mm;stroke:black"/>
<polygon points="294.663,99.401 294.663,113.251 308.513,113.251 308.513,99.401" style="fill:none;stroke-width:0.050000mm;stroke:black"/>
<polygon points="51.776,94.638 51.776,108.488 65.626,108.488 65.626,94.638" style="fill:none;stroke-width:0.050000mm;stroke:black"/>
<polygon points="89.876,94.638 89.876,108.488 103.726,108.488 103.726,94.638" style="fill:none;stroke-width:0.050000mm;stroke:black"/>
<polygon points="218.463,94.638 218.463,108.488 232.313,108.488 232.313,94.638" style="fill:none;stroke-width:0.050000mm;stroke:black"/>
<polygon points="256.563,94.638 256.563,108.488 270.413,108.488 270.413,94.638" style="fill:none;stroke-width:0.050000mm;stroke:black"/>
<polygon points="153.295,90.664 153.295,106.264 168.895,106.264 168.895,90.664" style="fill:none;stroke-width:0.050000mm;stroke:black"/>
<polygon points="70.826,89.876 70.826,103.726 84.676,103.726 84.676,89.876" style="fill:none;stroke-width:0.050000mm;stroke:black"/>
<polygon points="237.513,89.876 237.513,103.726 251.363,103.726 251.363,89.876" style="fill:none;stroke-width:0.050000mm;stroke:black"/>
<polygon points="13.676,80.351 13.676,94.201 27.526,94.201 27.526,80.351" style="fill:none;stroke-width:0.050000mm;stroke:black"/>
<polygon points="32.726,80.351 32.726,94.201 46.576,94.201 46.576,80.351" style="fill:none;stroke-width:0.050000mm;stroke:black"/>
<polygon points="108.926,80.351 108.926,94.201 122.776,94.201 122.776,80.351" style="fill:none;stroke-width:0.050000mm;stroke:black"/>
<polygon points="199.413,80.351 199.413,94.201 213.263,94.201 213.263,80.351" style="fill:none;stroke-width:0.050000mm;stroke:black"/>
<polygon points="275.613,80.351 275.613,94.201 289.463,94.201 289.463,80.351" style="fill:none;stroke-width:0.050000mm;stroke:black"/>
<polygon points="294.663,80.351 294.663,94.201 308.513,94.201 308.513,80.351" style="fill:none;stroke-width:0.050000mm;stroke:black"/>
<polygon points="51.776,75.588 51.776,89.438 65.626,89.438 65.626,75.588" style="fill:none;stroke-width:0.050000mm;stroke:black"/>
<polygon points="89.876,75.588 89.876,89.438 103.726,89.438 103.726,75.588" style="fill:none;stroke-width:0.050000mm;stroke:black"/>
<polygon points="218.463,75.588 218.463,89.438 232.313,89.438 232.313,75.588" style="fill:none;stroke-width:0.050000mm;stroke:black"/>
<polygon points="256.563,75.588 256.563,89.438 270.413,89.438 270.413,75.588" style="fill:none;stroke-width:0.050000mm;stroke:black"/>
<polygon points="70.826,70.826 70.826,84.676 84.676,84.676 84.676,70.826" style="fill:none;stroke-width:0.050000mm;stroke:black"/>
<polygon points="237.513,70.826 237.513,84.676 251.363,84.676 251.363,70.826" style="fill:none;stroke-width:0.050000mm;stroke:black"/>
<polygon points="136.095,48.464 136.095,78.464 186.095,78.464 186.095,48.464" style="fill:none;stroke-width:0.050000mm;stroke:black"/>
<polygon points="13.676,61.301 13.676,75.150 27.526,75.150 27.526,61.301" style="fill:none;stroke-width:0.050000mm;stroke:black"/>
<polygon points="32.726,61.301 32.726,75.150 46.576,75.150 46.576,61.301" style="fill:none;stroke-width:0.050000mm;stroke:black"/>
<polygon points="108.926,61.301 108.926,75.150 122.776,75.150 122.776,61.301" style="fill:none;stroke-width:0.050000mm;stroke:black"/>
<polygon points="199.413,61.301 199.413,75.150 213.263,75.150 213.263,61.301" style="fill:none;stroke-width:0.050000mm;stroke:black"/>
<polygon points="275.613,61.301 275.613,75.150 289.463,75.150 289.463,61.301" style="fill:none;stroke-width:0.050000mm;stroke:black"/>
<polygon points="294.663,61.301 294.663,75.150 308.513,75.150 308.513,61.301" style="fill:none;stroke-width:0.050000mm;stroke:black"/>
<polygon points="51.776,56.538 51.776,70.388 65.626,70.388 65.626,56.538" style="fill:none;stroke-width:0.050000mm;stroke:black"/>
<polygon points="89.876,56.538 89.876,70.388 103.726,70.388 103.726,56.538" style="fill:none;stroke-width:0.050000mm;stroke:black"/>
<polygon points="218.463,56.538 218.463,70.388 232.313,70.388 232.313,56.538" style="fill:none;stroke-width:0.050000mm;stroke:black"/>
<polygon points="256.563,56.538 256.563,70.388 270.413,70.388 270.413,56.538" style="fill:none;stroke-width:0.050000mm;stroke:black"/>
<polygon points="70.826,51.776 70.826,65.626 84.676,65.626 84.676,51.776" style="fill:none;stroke-width:0.050000mm;stroke:black"/>
<polygon points="237.513,51.776 237.513,65.626 251.363,65.626 251.363,51.776" style="fill:none;stroke-width:0.050000mm;stroke:black"/>
<polygon points="313.828,62.584 313.570,62.715 313.366,62.920 313.234,63.178 313.189,63.464 313.234,63.749 313.366,64.007 313.570,64.212 313.828,64.343 314.114,64.389 314.400,64.343 314.658,64.212 314.862,64.007 314.994,63.749 315.039,63.464 314.994,63.178 314.862,62.920 314.658,62.715 314.400,62.584 314.114,62.539" style="fill:none;stroke-width:0.050000mm;stroke:black"/>
<polygon points="7.790,62.584 7.532,62.715 7.327,62.920 7.196,63.178 7.151,63.464 7.196,63.749 7.327,64.007 7.532,64.212 7.790,64.343 8.075,64.389 8.361,64.343 8.619,64.212 8.824,64.007 8.955,63.749 9.001,63.464 8.955,63.178 8.824,62.920 8.619,62.715 8.361,62.584 8.075,62.539" style="fill:none;stroke-width:0.050000mm;stroke:black"/>
<polygon points="13.676,42.251 13.676,56.100 27.526,56.100 27.526,42.251" style="fill:none;stroke-width:0.050000mm;stroke:black"/>
<polygon points="32.726,42.251 32.726,56.100 46.576,56.100 46.576,42.251" style="fill:none;stroke-width:0.050000mm;stroke:black"/>
<polygon points="108.926,42.251 108.926,56.100 122.776,56.100 122.776,42.251" style="fill:none;stroke-width:0.050000mm;stroke:black"/>
<polygon points="199.413,42.251 199.413,56.100 213.263,56.100 213.263,42.251" style="fill:none;stroke-width:0.050000mm;stroke:black"/>
<polygon points="275.613,42.251 275.613,56.100 289.463,56.100 289.463,42.251" style="fill:none;stroke-width:0.050000mm;stroke:black"/>
<polygon points="294.663,42.251 294.663,56.100 308.513,56.100 308.513,42.251" style="fill:none;stroke-width:0.050000mm;stroke:black"/>
<polygon points="51.776,37.488 51.776,51.338 65.626,51.338 65.626,37.488" style="fill:none;stroke-width:0.050000mm;stroke:black"/>
<polygon points="89.876,37.488 89.876,51.338 103.726,51.338 103.726,37.488" style="fill:none;stroke-width:0.050000mm;stroke:black"/>
<polygon points="218.463,37.488 218.463,51.338 232.313,51.338 232.313,37.488" style="fill:none;stroke-width:0.050000mm;stroke:black"/>
<polygon points="256.563,37.488 256.563,51.338 270.413,51.338 270.413,37.488" style="fill:none;stroke-width:0.050000mm;stroke:black"/>
<polygon points="70.826,32.726 70.826,46.575 84.676,46.575 84.676,32.726" style="fill:none;stroke-width:0.050000mm;stroke:black"/>
<polygon points="237.513,32.726 237.513,46.575 251.363,46.575 251.363,32.726" style="fill:none;stroke-width:0.050000mm;stroke:black"/>
<polygon points="13.676,23.201 13.676,37.051 27.526,37.051 27.526,23.201" style="fill:none;stroke-width:0.050000mm;stroke:black"/>
<polygon points="32.726,23.201 32.726,37.051 46.576,37.051 46.576,23.201" style="fill:none;stroke-width:0.050000mm;stroke:black"/>
<polygon points="108.926,23.201 108.926,37.051 122.776,37.051 122.776,23.201" style="fill:none;stroke-width:0.050000mm;stroke:black"/>
<polygon points="199.413,23.201 199.413,37.051 213.263,37.051 213.263,23.201" style="fill:none;stroke-width:0.050000mm;stroke:black"/>
<polygon points="275.613,23.201 275.613,37.051 289.463,37.051 289.463,23.201" style="fill:none;stroke-width:0.050000mm;stroke:black"/>
<polygon points="294.663,23.201 294.663,37.051 308.513,37.051 308.513,23.201" style="fill:none;stroke-width:0.050000mm;stroke:black"/>
<polygon points="51.776,18.438 51.776,32.288 65.626,32.288 65.626,18.438" style="fill:none;stroke-width:0.050000mm;stroke:black"/>
<polygon points="89.876,18.438 89.876,32.288 103.726,32.288 103.726,18.438" style="fill:none;stroke-width:0.050000mm;stroke:black"/>
<polygon points="218.463,18.438 218.463,32.288 232.313,32.288 232.313,18.438" style="fill:none;stroke-width:0.050000mm;stroke:black"/>
<polygon points="256.563,18.438 256.563,32.288 270.413,32.288 270.413,18.438" style="fill:none;stroke-width:0.050000mm;stroke:black"/>
<polygon points="70.826,13.676 70.826,27.526 84.676,27.526 84.676,13.676" style="fill:none;stroke-width:0.050000mm;stroke:black"/>
<polygon points="237.513,13.676 237.513,27.526 251.363,27.526 251.363,13.676" style="fill:none;stroke-width:0.050000mm;stroke:black"/>
<polygon points="109.802,7.196 109.545,7.327 109.340,7.532 109.209,7.790 109.163,8.075 109.209,8.361 109.340,8.619 109.545,8.824 109.802,8.955 110.088,9.001 110.374,8.955 110.632,8.824 110.837,8.619 110.968,8.361 111.013,8.075 110.968,7.790 110.837,7.532 110.632,7.327 110.374,7.196 110.088,7.150" style="fill:none;stroke-width:0.050000mm;stroke:black"/>
<polygon points="211.815,7.196 211.557,7.327 211.353,7.532 211.221,7.790 211.176,8.075 211.221,8.361 211.353,8.619 211.557,8.824 211.815,8.955 212.101,9.001 212.387,8.955 212.645,8.824 212.850,8.619 212.981,8.361 213.026,8.075 212.981,7.790 212.850,7.532 212.645,7.327 212.387,7.196 212.101,7.150" style="fill:none;stroke-width:0.050000mm;stroke:black"/>
<polygon points="313.828,7.196 313.570,7.327 313.366,7.532 313.234,7.790 313.189,8.075 313.234,8.361 313.366,8.619 313.570,8.824 313.828,8.955 314.114,9.001 314.400,8.955 314.658,8.824 314.862,8.619 314.994,8.361 315.039,8.075 314.994,7.790 314.862,7.532 314.658,7.327 314.400,7.196 314.114,7.150" style="fill:none;stroke-width:0.050000mm;stroke:black"/>
<polygon points="7.790,7.196 7.532,7.327 7.327,7.532 7.196,7.790 7.151,8.075 7.196,8.361 7.327,8.619 7.532,8.824 7.790,8.955 8.075,9.001 8.361,8.955 8.619,8.824 8.824,8.619 8.955,8.361 9.001,8.075 8.955,7.790 8.824,7.532 8.619,7.327 8.361,7.196 8.075,7.151" style="fill:none;stroke-width:0.050000mm;stroke:black"/>
</svg>
